SplineFontDB: 3.2
FontName: RisingSun-ExtraLightItalic
FullName: Rising Sun ExtraLight Italic
FamilyName: Rising Sun ExtraLight
Weight: Extra-Light
Copyright: Copyright (c) 2012, The Raleway Project Authors (matt@pixelspread.com)
Version: 4.322
ItalicAngle: -12
UnderlinePosition: -125
UnderlineWidth: 50
Ascent: 800
Descent: 200
InvalidEm: 0
sfntRevision: 0x0004526e
LayerCount: 2
Layer: 0 1 "Back" 1
Layer: 1 1 "Fore" 0
XUID: [1021 158 994486733 4492823]
StyleMap: 0x0001
FSType: 0
OS2Version: 4
OS2_WeightWidthSlopeOnly: 0
OS2_UseTypoMetrics: 1
CreationTime: 1683073834
ModificationTime: 1710188147
PfmFamily: 81
TTFWeight: 200
TTFWidth: 5
LineGap: 21
VLineGap: 0
Panose: 0 0 0 0 0 0 0 0 0 0
OS2TypoAscent: 923
OS2TypoAOffset: 0
OS2TypoDescent: -213
OS2TypoDOffset: 0
OS2TypoLinegap: 21
OS2WinAscent: 944
OS2WinAOffset: 0
OS2WinDescent: 234
OS2WinDOffset: 0
HheadAscent: 923
HheadAOffset: 0
HheadDescent: -213
HheadDOffset: 0
OS2SubXSize: 650
OS2SubYSize: 600
OS2SubXOff: 0
OS2SubYOff: 75
OS2SupXSize: 650
OS2SupYSize: 600
OS2SupXOff: 0
OS2SupYOff: 350
OS2StrikeYSize: 50
OS2StrikeYPos: 300
OS2CapHeight: 710
OS2XHeight: 520
OS2Vendor: '    '
OS2CodePages: 2000019f.00000000
OS2UnicodeRanges: a00002ff.4000205b.00000000.00000000
Lookup: 1 0 0 "'aalt' Access All Alternates lookup 0" { "'aalt' Access All Alternates lookup 0 subtable"  } ['aalt' ('DFLT' <'dflt' > 'cyrl' <'BGR ' 'MKD ' 'SRB ' 'dflt' > 'latn' <'AZE ' 'CAT ' 'CRT ' 'KAZ ' 'MOL ' 'ROM ' 'TAT ' 'TRK ' 'dflt' > ) ]
Lookup: 3 0 0 "'aalt' Access All Alternates lookup 1" { "'aalt' Access All Alternates lookup 1 subtable"  } ['aalt' ('DFLT' <'dflt' > 'cyrl' <'BGR ' 'MKD ' 'SRB ' 'dflt' > 'latn' <'AZE ' 'CAT ' 'CRT ' 'KAZ ' 'MOL ' 'ROM ' 'TAT ' 'TRK ' 'dflt' > ) ]

StartChar: .notdef
Encoding: 65536 -1 0
Width: 608
GlyphClass: 1
Flags: W
LayerCount: 2
Fore
SplineSet
558 689 m 2,0,1
 558 699 558 699 553 704.5 c 128,-1,2
 548 710 548 710 540 710 c 2,3,-1
 69 710 l 2,4,5
 61 710 61 710 55.5 704 c 128,-1,6
 50 698 50 698 50 687 c 2,7,-1
 50 25 l 2,8,9
 50 12 50 12 55.5 6 c 128,-1,10
 61 0 61 0 77 0 c 2,11,-1
 525 0 l 2,12,13
 542 0 542 0 550 6.5 c 128,-1,14
 558 13 558 13 558 29 c 2,15,-1
 558 689 l 2,0,1
506 74 m 2,16,17
 506 61 506 61 499 55.5 c 128,-1,18
 492 50 492 50 478 50 c 2,19,-1
 125 50 l 2,20,21
 111 50 111 50 106.5 55 c 128,-1,22
 102 60 102 60 102 71 c 2,23,-1
 102 641 l 2,24,25
 102 650 102 650 106.5 655 c 128,-1,26
 111 660 111 660 118 660 c 2,27,-1
 491 660 l 2,28,29
 498 660 498 660 502 655 c 128,-1,30
 506 650 506 650 506 642 c 2,31,-1
 506 74 l 2,16,17
538 33 m 1,32,-1
 123 696 l 1,33,-1
 71 669 l 1,34,-1
 478 28 l 1,35,-1
 538 33 l 1,32,-1
EndSplineSet
EndChar

StartChar: exclam
Encoding: 33 33 4
Width: 235
GlyphClass: 1
Flags: W
LayerCount: 2
Fore
SplineSet
8 37 m 0,0,1
 7 28 7 28 8.5 20 c 128,-1,2
 10 12 10 12 14.5 6 c 128,-1,3
 19 0 19 0 26 -3.5 c 128,-1,4
 33 -7 33 -7 43 -7 c 0,5,6
 52 -7 52 -7 60.5 -3.5 c 128,-1,7
 69 0 69 0 76.5 6 c 128,-1,8
 84 12 84 12 88.5 19.5 c 128,-1,9
 93 27 93 27 95 37 c 0,10,11
 97 46 97 46 95.5 53.5 c 128,-1,12
 94 61 94 61 89 67 c 128,-1,13
 84 73 84 73 77 76 c 128,-1,14
 70 79 70 79 61 79 c 256,15,16
 52 79 52 79 43.5 76 c 128,-1,17
 35 73 35 73 27.5 67 c 128,-1,18
 20 61 20 61 15 53.5 c 128,-1,19
 10 46 10 46 8 37 c 0,0,1
107 213 m 1,20,-1
 158 433 l 1,21,-1
 218 717 l 1,22,-1
 175 717 l 1,23,-1
 115 433 l 1,24,-1
 71 213 l 1,25,-1
 107 213 l 1,20,-1
EndSplineSet
EndChar

StartChar: quotedbl
Encoding: 34 34 5
Width: 334
GlyphClass: 1
Flags: W
LayerCount: 2
Fore
SplineSet
138 548 m 1,0,-1
 168 548 l 1,1,-1
 249 714 l 1,2,-1
 197 714 l 1,3,-1
 138 548 l 1,0,-1
228 548 m 1,4,-1
 258 548 l 1,5,-1
 339 714 l 1,6,-1
 287 714 l 1,7,-1
 228 548 l 1,4,-1
EndSplineSet
EndChar

StartChar: numbersign
Encoding: 35 35 6
Width: 637
GlyphClass: 1
Flags: W
LayerCount: 2
Fore
SplineSet
642 504 m 1,0,-1
 533 504 l 1,1,-1
 625 710 l 1,2,-1
 587 710 l 1,3,-1
 496 504 l 1,4,-1
 293 504 l 1,5,-1
 385 710 l 1,6,-1
 347 710 l 1,7,-1
 256 504 l 1,8,-1
 121 504 l 1,9,-1
 113 470 l 1,10,-1
 240 470 l 1,11,-1
 144 250 l 1,12,-1
 27 250 l 1,13,-1
 20 214 l 1,14,-1
 127 214 l 1,15,-1
 32 0 l 1,16,-1
 70 0 l 1,17,-1
 164 214 l 1,18,-1
 367 214 l 1,19,-1
 272 0 l 1,20,-1
 310 0 l 1,21,-1
 405 214 l 1,22,-1
 541 214 l 1,23,-1
 549 250 l 1,24,-1
 421 250 l 1,25,-1
 517 470 l 1,26,-1
 635 470 l 1,27,-1
 642 504 l 1,0,-1
181 250 m 1,28,-1
 277 470 l 1,29,-1
 480 470 l 1,30,-1
 383 250 l 1,31,-1
 181 250 l 1,28,-1
EndSplineSet
EndChar

StartChar: dollar
Encoding: 36 36 7
Width: 591
GlyphClass: 1
Flags: W
LayerCount: 2
Fore
SplineSet
201 -98 m 1,0,-1
 228 -98 l 1,1,-1
 251 13 l 1,2,-1
 224 13 l 1,3,-1
 201 -98 l 1,0,-1
251 19 m 1,4,-1
 394 694 l 1,5,-1
 370 690 l 1,6,-1
 227 20 l 1,7,-1
 251 19 l 1,4,-1
368 690 m 1,8,-1
 396 693 l 1,9,-1
 422 815 l 1,10,-1
 395 815 l 1,11,-1
 368 690 l 1,8,-1
584 631 m 1,12,13
 568 653 568 653 548.5 668.5 c 128,-1,14
 529 684 529 684 505.5 694.5 c 128,-1,15
 482 705 482 705 454 710 c 128,-1,16
 426 715 426 715 393 715 c 0,17,18
 332 715 332 715 280 699 c 128,-1,19
 228 683 228 683 189.5 653 c 128,-1,20
 151 623 151 623 129.5 580.5 c 128,-1,21
 108 538 108 538 108 484 c 0,22,23
 108 450 108 450 121 426.5 c 128,-1,24
 134 403 134 403 158.5 386.5 c 128,-1,25
 183 370 183 370 218 358.5 c 128,-1,26
 253 347 253 347 298 337 c 256,27,28
 343 327 343 327 377.5 315 c 128,-1,29
 412 303 412 303 435 287.5 c 128,-1,30
 458 272 458 272 470 251 c 128,-1,31
 482 230 482 230 482 202 c 0,32,33
 482 161 482 161 466 129.5 c 128,-1,34
 450 98 450 98 420.5 76.5 c 128,-1,35
 391 55 391 55 349 44 c 128,-1,36
 307 33 307 33 255 33 c 0,37,38
 216 33 216 33 183 39.5 c 128,-1,39
 150 46 150 46 122 59.5 c 128,-1,40
 94 73 94 73 71.5 92 c 128,-1,41
 49 111 49 111 32 135 c 1,42,-1
 1 101 l 1,43,44
 23 74 23 74 49 54 c 128,-1,45
 75 34 75 34 105 20.5 c 128,-1,46
 135 7 135 7 170 0.5 c 128,-1,47
 205 -6 205 -6 245 -6 c 0,48,49
 307 -6 307 -6 359.5 8.5 c 128,-1,50
 412 23 412 23 449.5 51 c 128,-1,51
 487 79 487 79 508 120.5 c 128,-1,52
 529 162 529 162 529 215 c 0,53,54
 529 251 529 251 514.5 277 c 128,-1,55
 500 303 500 303 473.5 321 c 128,-1,56
 447 339 447 339 410 351.5 c 128,-1,57
 373 364 373 364 327 375 c 0,58,59
 284 385 284 385 251.5 395 c 128,-1,60
 219 405 219 405 197.5 418.5 c 128,-1,61
 176 432 176 432 165.5 450.5 c 128,-1,62
 155 469 155 469 155 496 c 0,63,64
 155 534 155 534 168.5 566.5 c 128,-1,65
 182 599 182 599 209.5 623.5 c 128,-1,66
 237 648 237 648 281 662 c 128,-1,67
 325 676 325 676 386 676 c 0,68,69
 416 676 416 676 441 671 c 128,-1,70
 466 666 466 666 487 656.5 c 128,-1,71
 508 647 508 647 524.5 632.5 c 128,-1,72
 541 618 541 618 554 598 c 1,73,-1
 584 631 l 1,12,13
EndSplineSet
EndChar

StartChar: percent
Encoding: 37 37 8
Width: 665
GlyphClass: 1
Flags: W
LayerCount: 2
Fore
SplineSet
211 439 m 0,0,1
 243 439 243 439 273.5 452 c 128,-1,2
 304 465 304 465 328 488 c 128,-1,3
 352 511 352 511 366.5 541 c 128,-1,4
 381 571 381 571 381 604 c 0,5,6
 381 629 381 629 373 650 c 128,-1,7
 365 671 365 671 350.5 686.5 c 128,-1,8
 336 702 336 702 315.5 711 c 128,-1,9
 295 720 295 720 271 720 c 0,10,11
 239 720 239 720 208 706.5 c 128,-1,12
 177 693 177 693 153.5 670.5 c 128,-1,13
 130 648 130 648 115.5 618 c 128,-1,14
 101 588 101 588 101 554 c 0,15,16
 101 530 101 530 109 509 c 128,-1,17
 117 488 117 488 131.5 472.5 c 128,-1,18
 146 457 146 457 166 448 c 128,-1,19
 186 439 186 439 211 439 c 0,0,1
217 468 m 0,20,21
 181 468 181 468 158.5 494 c 128,-1,22
 136 520 136 520 136 559 c 0,23,24
 136 585 136 585 146.5 608.5 c 128,-1,25
 157 632 157 632 175 650.5 c 128,-1,26
 193 669 193 669 216 680 c 128,-1,27
 239 691 239 691 264 691 c 0,28,29
 299 691 299 691 322.5 665 c 128,-1,30
 346 639 346 639 346 600 c 0,31,32
 346 574 346 574 334.5 550.5 c 128,-1,33
 323 527 323 527 305 508.5 c 128,-1,34
 287 490 287 490 264 479 c 128,-1,35
 241 468 241 468 217 468 c 0,20,21
417 -10 m 0,36,37
 450 -10 450 -10 480.5 3.5 c 128,-1,38
 511 17 511 17 534.5 39.5 c 128,-1,39
 558 62 558 62 572.5 92 c 128,-1,40
 587 122 587 122 587 156 c 0,41,42
 587 180 587 180 579 201 c 128,-1,43
 571 222 571 222 556.5 237.5 c 128,-1,44
 542 253 542 253 522 262 c 128,-1,45
 502 271 502 271 477 271 c 0,46,47
 445 271 445 271 414.5 258 c 128,-1,48
 384 245 384 245 360 222 c 128,-1,49
 336 199 336 199 321.5 169 c 128,-1,50
 307 139 307 139 307 106 c 0,51,52
 307 81 307 81 315 60 c 128,-1,53
 323 39 323 39 337.5 23.5 c 128,-1,54
 352 8 352 8 372.5 -1 c 128,-1,55
 393 -10 393 -10 417 -10 c 0,36,37
423 19 m 0,56,57
 387 19 387 19 364.5 45 c 128,-1,58
 342 71 342 71 342 110 c 0,59,60
 342 135 342 135 353 159 c 128,-1,61
 364 183 364 183 382 201.5 c 128,-1,62
 400 220 400 220 423 231 c 128,-1,63
 446 242 446 242 471 242 c 0,64,65
 506 242 506 242 529 215.5 c 128,-1,66
 552 189 552 189 552 150 c 0,67,68
 552 125 552 125 541 101.5 c 128,-1,69
 530 78 530 78 512 59.5 c 128,-1,70
 494 41 494 41 471 30 c 128,-1,71
 448 19 448 19 423 19 c 0,56,57
16 -2 m 1,72,-1
 344 337 l 1,73,-1
 691 692 l 1,74,-1
 671 712 l 1,75,-1
 326 355 l 1,76,-1
 -4 18 l 1,77,-1
 16 -2 l 1,72,-1
EndSplineSet
EndChar

StartChar: ampersand
Encoding: 38 38 9
Width: 669
GlyphClass: 1
Flags: W
LayerCount: 2
Fore
SplineSet
187 -10 m 0,0,1
 248 -10 248 -10 307 22 c 128,-1,2
 366 54 366 54 416 111.5 c 128,-1,3
 466 169 466 169 503 247 c 128,-1,4
 540 325 540 325 557 416 c 1,5,-1
 516 416 l 1,6,7
 501 334 501 334 469 263 c 128,-1,8
 437 192 437 192 393.5 140 c 128,-1,9
 350 88 350 88 299 57.5 c 128,-1,10
 248 27 248 27 195 27 c 0,11,12
 137 27 137 27 99.5 63 c 128,-1,13
 62 99 62 99 62 160 c 0,14,15
 62 194 62 194 74.5 223.5 c 128,-1,16
 87 253 87 253 112 281 c 128,-1,17
 137 309 137 309 174.5 336 c 128,-1,18
 212 363 212 363 261 390 c 1,19,-1
 238 418 l 1,20,21
 185 388 185 388 143.5 358 c 128,-1,22
 102 328 102 328 74.5 296 c 128,-1,23
 47 264 47 264 33 229.5 c 128,-1,24
 19 195 19 195 19 155 c 0,25,26
 19 119 19 119 31.5 88.5 c 128,-1,27
 44 58 44 58 66 36 c 128,-1,28
 88 14 88 14 119 2 c 128,-1,29
 150 -10 150 -10 187 -10 c 0,0,1
494 0 m 1,30,-1
 550 0 l 1,31,-1
 260 415 l 2,32,33
 243 439 243 439 231.5 459 c 128,-1,34
 220 479 220 479 212.5 495.5 c 128,-1,35
 205 512 205 512 202 526.5 c 128,-1,36
 199 541 199 541 199 553 c 0,37,38
 199 579 199 579 211.5 602.5 c 128,-1,39
 224 626 224 626 245.5 644.5 c 128,-1,40
 267 663 267 663 294.5 674 c 128,-1,41
 322 685 322 685 352 685 c 0,42,43
 399 685 399 685 435 658.5 c 128,-1,44
 471 632 471 632 489 588 c 1,45,-1
 518 614 l 1,46,47
 507 639 507 639 491 658.5 c 128,-1,48
 475 678 475 678 454.5 691.5 c 128,-1,49
 434 705 434 705 410 712 c 128,-1,50
 386 719 386 719 359 719 c 0,51,52
 319 719 319 719 282.5 705 c 128,-1,53
 246 691 246 691 218 667.5 c 128,-1,54
 190 644 190 644 174 613 c 128,-1,55
 158 582 158 582 158 547 c 0,56,57
 158 531 158 531 162 513.5 c 128,-1,58
 166 496 166 496 176 474.5 c 128,-1,59
 186 453 186 453 202.5 427 c 128,-1,60
 219 401 219 401 242 367 c 2,61,-1
 494 0 l 1,30,-1
519 380 m 1,62,-1
 647 380 l 1,63,-1
 655 416 l 1,64,-1
 526 416 l 1,65,-1
 519 380 l 1,62,-1
EndSplineSet
EndChar

StartChar: quotesingle
Encoding: 39 39 10
Width: 181
GlyphClass: 1
Flags: W
LayerCount: 2
Fore
SplineSet
136 547 m 1,0,-1
 217 712 l 1,1,-1
 165 712 l 1,2,-1
 106 547 l 1,3,-1
 136 547 l 1,0,-1
EndSplineSet
EndChar

StartChar: parenleft
Encoding: 40 40 11
Width: 245
GlyphClass: 1
Flags: W
LayerCount: 2
Fore
SplineSet
47 258 m 0,0,1
 47 223 47 223 50.5 186 c 128,-1,2
 54 149 54 149 62 112 c 128,-1,3
 70 75 70 75 81.5 38.5 c 128,-1,4
 93 2 93 2 108 -31 c 1,5,-1
 144 -12 l 1,6,7
 130 20 130 20 119.5 55.5 c 128,-1,8
 109 91 109 91 102 127.5 c 128,-1,9
 95 164 95 164 91.5 199 c 128,-1,10
 88 234 88 234 88 265 c 0,11,12
 88 325 88 325 108.5 388.5 c 128,-1,13
 129 452 129 452 160.5 511.5 c 128,-1,14
 192 571 192 571 229 623.5 c 128,-1,15
 266 676 266 676 299 714 c 1,16,-1
 270 732 l 1,17,18
 224 674 224 674 183.5 617.5 c 128,-1,19
 143 561 143 561 112.5 503.5 c 128,-1,20
 82 446 82 446 64.5 385 c 128,-1,21
 47 324 47 324 47 258 c 0,0,1
EndSplineSet
EndChar

StartChar: parenright
Encoding: 41 41 12
Width: 245
GlyphClass: 1
Flags: W
LayerCount: 2
Fore
SplineSet
217 433 m 0,0,1
 217 508 217 508 200 585.5 c 128,-1,2
 183 663 183 663 159 732 c 1,3,-1
 122 714 l 1,4,5
 132 689 132 689 142 655 c 128,-1,6
 152 621 152 621 159.5 582 c 128,-1,7
 167 543 167 543 171 502.5 c 128,-1,8
 175 462 175 462 175 424 c 0,9,10
 175 370 175 370 160 315.5 c 128,-1,11
 145 261 145 261 118 206 c 128,-1,12
 91 151 91 151 52.5 96.5 c 128,-1,13
 14 42 14 42 -32 -12 c 1,14,-1
 -4 -31 l 1,15,16
 47 28 47 28 88 85 c 128,-1,17
 129 142 129 142 157.5 199 c 128,-1,18
 186 256 186 256 201.5 314 c 128,-1,19
 217 372 217 372 217 433 c 0,0,1
EndSplineSet
EndChar

StartChar: asterisk
Encoding: 42 42 13
Width: 303
GlyphClass: 1
Flags: W
LayerCount: 2
Fore
SplineSet
159 539 m 1,0,-1
 212 599 l 1,1,-1
 238 539 l 1,2,-1
 265 555 l 1,3,-1
 237 615 l 1,4,-1
 306 637 l 1,5,-1
 305 664 l 1,6,-1
 234 640 l 1,7,-1
 250 711 l 1,8,-1
 220 711 l 1,9,-1
 206 640 l 1,10,-1
 147 664 l 1,11,-1
 133 637 l 1,12,-1
 192 615 l 1,13,-1
 140 555 l 1,14,-1
 159 539 l 1,0,-1
EndSplineSet
EndChar

StartChar: plus
Encoding: 43 43 14
Width: 412
GlyphClass: 1
Flags: W
LayerCount: 2
Fore
SplineSet
236 374 m 1,0,-1
 236 516 l 1,1,-1
 196 516 l 1,2,-1
 196 374 l 1,3,-1
 63 374 l 1,4,-1
 63 336 l 1,5,-1
 196 336 l 1,6,-1
 196 194 l 1,7,-1
 236 194 l 1,8,-1
 236 336 l 1,9,-1
 368 336 l 1,10,-1
 368 374 l 1,11,-1
 236 374 l 1,0,-1
EndSplineSet
EndChar

StartChar: comma
Encoding: 44 44 15
Width: 244
GlyphClass: 1
Flags: W
LayerCount: 2
Fore
SplineSet
64 -160 m 1,0,-1
 177 100 l 1,1,-1
 125 100 l 1,2,-1
 34 -160 l 1,3,-1
 64 -160 l 1,0,-1
EndSplineSet
EndChar

StartChar: hyphen
Encoding: 45 45 16
Width: 405
GlyphClass: 1
Flags: W
LayerCount: 2
Fore
SplineSet
328 252 m 1,0,-1
 337 292 l 1,1,-1
 64 292 l 1,2,-1
 55 252 l 1,3,-1
 328 252 l 1,0,-1
EndSplineSet
EndChar

StartChar: period
Encoding: 46 46 17
Width: 173
GlyphClass: 1
Flags: W
LayerCount: 2
Fore
SplineSet
44 35 m 0,0,1
 40 18 40 18 49.5 5.5 c 128,-1,2
 59 -7 59 -7 77 -7 c 0,3,4
 93 -7 93 -7 108 5.5 c 128,-1,5
 123 18 123 18 126 35 c 0,6,7
 130 52 130 52 120.5 63.5 c 128,-1,8
 111 75 111 75 94 75 c 0,9,10
 76 75 76 75 61.5 63 c 128,-1,11
 47 51 47 51 44 35 c 0,0,1
EndSplineSet
EndChar

StartChar: slash
Encoding: 47 47 18
Width: 563
GlyphClass: 1
Flags: W
LayerCount: 2
Fore
SplineSet
566 710 m 1,0,-1
 -26 0 l 1,1,-1
 23 0 l 1,2,-1
 615 710 l 1,3,-1
 566 710 l 1,0,-1
EndSplineSet
Substitution2: "'frac' Diagonal Fractions lookup 23 subtable" fraction
Substitution2: "'aalt' Access All Alternates lookup 0 subtable" fraction
EndChar

StartChar: zero
Encoding: 48 48 19
Width: 650
GlyphClass: 1
Flags: W
LayerCount: 2
Fore
SplineSet
259 -10 m 0,0,1
 332 -10 332 -10 397.5 30 c 128,-1,2
 463 70 463 70 512 133 c 128,-1,3
 561 196 561 196 589.5 273.5 c 128,-1,4
 618 351 618 351 618 425 c 0,5,6
 618 476 618 476 606.5 526 c 128,-1,7
 595 576 595 576 570 617.5 c 128,-1,8
 545 659 545 659 506 684.5 c 128,-1,9
 467 710 467 710 412 710 c 0,10,11
 338 710 338 710 273 670 c 128,-1,12
 208 630 208 630 158.5 566.5 c 128,-1,13
 109 503 109 503 80.5 425.5 c 128,-1,14
 52 348 52 348 52 273 c 0,15,16
 52 223 52 223 63.5 172.5 c 128,-1,17
 75 122 75 122 100.5 81.5 c 128,-1,18
 126 41 126 41 165.5 15.5 c 128,-1,19
 205 -10 205 -10 259 -10 c 0,0,1
267 30 m 0,20,21
 222 30 222 30 190 49.5 c 128,-1,22
 158 69 158 69 137 101.5 c 128,-1,23
 116 134 116 134 106.5 177 c 128,-1,24
 97 220 97 220 97 265 c 0,25,26
 97 327 97 327 119.5 397.5 c 128,-1,27
 142 468 142 468 182.5 529 c 128,-1,28
 223 590 223 590 279.5 630 c 128,-1,29
 336 670 336 670 403 670 c 0,30,31
 447 670 447 670 479 648.5 c 128,-1,32
 511 627 511 627 532 592 c 128,-1,33
 553 557 553 557 563.5 512.5 c 128,-1,34
 574 468 574 468 574 421 c 0,35,36
 574 362 574 362 551.5 293.5 c 128,-1,37
 529 225 529 225 488 166.5 c 128,-1,38
 447 108 447 108 390.5 69 c 128,-1,39
 334 30 334 30 267 30 c 0,20,21
EndSplineSet
Substitution2: "'frac' Diagonal Fractions lookup 24 subtable" zero.numr
Substitution2: "'dnom' Denominators lookup 22 subtable" zero.dnom
Substitution2: "'numr' Numerators lookup 21 subtable" zero.numr
Substitution2: "'sups' Superscript lookup 20 subtable" uni2070
Substitution2: "'sinf' Scientific Inferiors lookup 19 subtable" zero.subs
Substitution2: "'subs' Subscript lookup 18 subtable" uni2080
AlternateSubs2: "'aalt' Access All Alternates lookup 1 subtable" uni2080 zero.subs uni2070 zero.numr zero.dnom
EndChar

StartChar: one
Encoding: 49 49 20
Width: 346
GlyphClass: 1
Flags: W
LayerCount: 2
Fore
SplineSet
125 0 m 1,0,-1
 169 0 l 1,1,-1
 322 719 l 1,2,-1
 278 719 l 2,3,4
 277 718 277 718 259.5 702.5 c 128,-1,5
 242 687 242 687 217 668.5 c 128,-1,6
 192 650 192 650 163 635.5 c 128,-1,7
 134 621 134 621 108 621 c 1,8,-1
 100 580 l 1,9,10
 119 580 119 580 143.5 589 c 128,-1,11
 168 598 168 598 192 611.5 c 128,-1,12
 216 625 216 625 236.5 639.5 c 128,-1,13
 257 654 257 654 266 666 c 1,14,-1
 125 0 l 1,0,-1
EndSplineSet
Substitution2: "'frac' Diagonal Fractions lookup 24 subtable" one.numr
Substitution2: "'dnom' Denominators lookup 22 subtable" one.dnom
Substitution2: "'numr' Numerators lookup 21 subtable" one.numr
Substitution2: "'sups' Superscript lookup 20 subtable" onesuperior
Substitution2: "'sinf' Scientific Inferiors lookup 19 subtable" one.subs
Substitution2: "'subs' Subscript lookup 18 subtable" uni2081
AlternateSubs2: "'aalt' Access All Alternates lookup 1 subtable" uni2081 one.subs onesuperior one.numr one.dnom
EndChar

StartChar: two
Encoding: 50 50 21
Width: 544
GlyphClass: 1
Flags: W
LayerCount: 2
Fore
SplineSet
-14 0 m 1,0,-1
 429 0 l 1,1,-1
 438 40 l 1,2,-1
 41 40 l 1,3,4
 47 71 47 71 60 105 c 128,-1,5
 73 139 73 139 99.5 172.5 c 128,-1,6
 126 206 126 206 168.5 237.5 c 128,-1,7
 211 269 211 269 275 295 c 0,8,9
 316 312 316 312 363.5 330.5 c 128,-1,10
 411 349 411 349 451 377.5 c 128,-1,11
 491 406 491 406 517.5 449 c 128,-1,12
 544 492 544 492 544 557 c 0,13,14
 544 589 544 589 534 618.5 c 128,-1,15
 524 648 524 648 503.5 670 c 128,-1,16
 483 692 483 692 451.5 705.5 c 128,-1,17
 420 719 420 719 376 719 c 0,18,19
 320 719 320 719 275 701 c 128,-1,20
 230 683 230 683 196.5 661 c 128,-1,21
 163 639 163 639 143.5 619 c 128,-1,22
 124 599 124 599 120 595 c 1,23,-1
 144 569 l 1,24,25
 158 584 158 584 178.5 603 c 128,-1,26
 199 622 199 622 226.5 638.5 c 128,-1,27
 254 655 254 655 288.5 666.5 c 128,-1,28
 323 678 323 678 363 678 c 0,29,30
 398 678 398 678 423 667.5 c 128,-1,31
 448 657 448 657 464.5 639.5 c 128,-1,32
 481 622 481 622 488.5 599 c 128,-1,33
 496 576 496 576 496 550 c 0,34,35
 496 493 496 493 472 456.5 c 128,-1,36
 448 420 448 420 411 395.5 c 128,-1,37
 374 371 374 371 329 355 c 128,-1,38
 284 339 284 339 242 322 c 0,39,40
 194 302 194 302 152.5 275 c 128,-1,41
 111 248 111 248 77.5 210 c 128,-1,42
 44 172 44 172 21 120.5 c 128,-1,43
 -2 69 -2 69 -14 0 c 1,0,-1
EndSplineSet
Substitution2: "'frac' Diagonal Fractions lookup 24 subtable" two.numr
Substitution2: "'dnom' Denominators lookup 22 subtable" two.dnom
Substitution2: "'numr' Numerators lookup 21 subtable" two.numr
Substitution2: "'sups' Superscript lookup 20 subtable" twosuperior
Substitution2: "'sinf' Scientific Inferiors lookup 19 subtable" two.subs
Substitution2: "'subs' Subscript lookup 18 subtable" uni2082
AlternateSubs2: "'aalt' Access All Alternates lookup 1 subtable" uni2082 two.subs twosuperior two.numr two.dnom
EndChar

StartChar: three
Encoding: 51 51 22
Width: 500
GlyphClass: 1
Flags: W
LayerCount: 2
Fore
SplineSet
179 -9 m 0,0,1
 233 -9 233 -9 280 8.5 c 128,-1,2
 327 26 327 26 362 58 c 128,-1,3
 397 90 397 90 417 133.5 c 128,-1,4
 437 177 437 177 437 229 c 0,5,6
 437 286 437 286 408.5 326 c 128,-1,7
 380 366 380 366 327 374 c 1,8,9
 370 379 370 379 402 396 c 128,-1,10
 434 413 434 413 455 439 c 128,-1,11
 476 465 476 465 486.5 497.5 c 128,-1,12
 497 530 497 530 497 566 c 0,13,14
 497 598 497 598 485.5 625.5 c 128,-1,15
 474 653 474 653 453 672.5 c 128,-1,16
 432 692 432 692 402.5 703 c 128,-1,17
 373 714 373 714 336 714 c 0,18,19
 302 714 302 714 269.5 705.5 c 128,-1,20
 237 697 237 697 208 681 c 128,-1,21
 179 665 179 665 155 642.5 c 128,-1,22
 131 620 131 620 114 593 c 1,23,-1
 139 569 l 1,24,25
 169 617 169 617 218.5 645.5 c 128,-1,26
 268 674 268 674 325 674 c 256,27,28
 382 674 382 674 416.5 642.5 c 128,-1,29
 451 611 451 611 451 557 c 0,30,31
 451 521 451 521 438 490.5 c 128,-1,32
 425 460 425 460 400 438.5 c 128,-1,33
 375 417 375 417 339 405 c 128,-1,34
 303 393 303 393 257 393 c 2,35,-1
 180 393 l 1,36,-1
 172 355 l 1,37,-1
 248 355 l 2,38,39
 319 355 319 355 356 320 c 128,-1,40
 393 285 393 285 393 226 c 0,41,42
 393 182 393 182 378 146 c 128,-1,43
 363 110 363 110 336 84.5 c 128,-1,44
 309 59 309 59 271 45 c 128,-1,45
 233 31 233 31 188 31 c 0,46,47
 125 31 125 31 85.5 60 c 128,-1,48
 46 89 46 89 38 137 c 1,49,-1
 2 113 l 1,50,51
 14 56 14 56 61 23.5 c 128,-1,52
 108 -9 108 -9 179 -9 c 0,0,1
EndSplineSet
Substitution2: "'frac' Diagonal Fractions lookup 24 subtable" three.numr
Substitution2: "'dnom' Denominators lookup 22 subtable" three.dnom
Substitution2: "'numr' Numerators lookup 21 subtable" three.numr
Substitution2: "'sups' Superscript lookup 20 subtable" threesuperior
Substitution2: "'sinf' Scientific Inferiors lookup 19 subtable" three.subs
Substitution2: "'subs' Subscript lookup 18 subtable" uni2083
AlternateSubs2: "'aalt' Access All Alternates lookup 1 subtable" uni2083 three.subs threesuperior three.numr three.dnom
EndChar

StartChar: four
Encoding: 52 52 23
Width: 536
GlyphClass: 1
Flags: W
LayerCount: 2
Fore
SplineSet
353 0 m 1,0,-1
 396 201 l 1,1,-1
 480 201 l 1,2,-1
 488 241 l 1,3,-1
 404 241 l 1,4,-1
 504 710 l 1,5,-1
 474 710 l 1,6,-1
 14 239 l 1,7,-1
 5 201 l 1,8,-1
 353 201 l 1,9,-1
 311 0 l 1,10,-1
 353 0 l 1,0,-1
63 241 m 1,11,-1
 450 640 l 1,12,-1
 365 241 l 1,13,-1
 63 241 l 1,11,-1
EndSplineSet
Substitution2: "'frac' Diagonal Fractions lookup 24 subtable" four.numr
Substitution2: "'dnom' Denominators lookup 22 subtable" four.dnom
Substitution2: "'numr' Numerators lookup 21 subtable" four.numr
Substitution2: "'sups' Superscript lookup 20 subtable" uni2074
Substitution2: "'sinf' Scientific Inferiors lookup 19 subtable" four.subs
Substitution2: "'subs' Subscript lookup 18 subtable" uni2084
AlternateSubs2: "'aalt' Access All Alternates lookup 1 subtable" uni2084 four.subs uni2074 four.numr four.dnom
EndChar

StartChar: five
Encoding: 53 53 24
Width: 535
GlyphClass: 1
Flags: W
LayerCount: 2
Fore
SplineSet
193 -10 m 0,0,1
 246 -10 246 -10 297 10.5 c 128,-1,2
 348 31 348 31 388 67.5 c 128,-1,3
 428 104 428 104 452.5 154.5 c 128,-1,4
 477 205 477 205 477 266 c 0,5,6
 477 306 477 306 464 339.5 c 128,-1,7
 451 373 451 373 427.5 397 c 128,-1,8
 404 421 404 421 371.5 434.5 c 128,-1,9
 339 448 339 448 300 448 c 0,10,11
 253 448 253 448 208.5 430 c 128,-1,12
 164 412 164 412 128 378 c 1,13,-1
 244 670 l 1,14,-1
 534 670 l 1,15,-1
 543 710 l 1,16,-1
 220 710 l 1,17,18
 220 710 220 710 209.5 684 c 128,-1,19
 199 658 199 658 182.5 618 c 128,-1,20
 166 578 166 578 147 530 c 128,-1,21
 128 482 128 482 110.5 439 c 128,-1,22
 93 396 93 396 79.5 363 c 128,-1,23
 66 330 66 330 62 319 c 1,24,-1
 104 319 l 1,25,26
 142 363 142 363 190.5 386 c 128,-1,27
 239 409 239 409 288 409 c 0,28,29
 320 409 320 409 346.5 398 c 128,-1,30
 373 387 373 387 392 367 c 128,-1,31
 411 347 411 347 422 319 c 128,-1,32
 433 291 433 291 433 258 c 0,33,34
 433 210 433 210 413.5 168 c 128,-1,35
 394 126 394 126 361.5 95.5 c 128,-1,36
 329 65 329 65 287.5 47.5 c 128,-1,37
 246 30 246 30 201 30 c 0,38,39
 142 30 142 30 100.5 62 c 128,-1,40
 59 94 59 94 44 148 c 1,41,-1
 10 129 l 1,42,43
 25 65 25 65 73 27.5 c 128,-1,44
 121 -10 121 -10 193 -10 c 0,0,1
EndSplineSet
Substitution2: "'frac' Diagonal Fractions lookup 24 subtable" five.numr
Substitution2: "'dnom' Denominators lookup 22 subtable" five.dnom
Substitution2: "'numr' Numerators lookup 21 subtable" five.numr
Substitution2: "'sups' Superscript lookup 20 subtable" uni2075
Substitution2: "'sinf' Scientific Inferiors lookup 19 subtable" five.subs
Substitution2: "'subs' Subscript lookup 18 subtable" uni2085
AlternateSubs2: "'aalt' Access All Alternates lookup 1 subtable" uni2085 five.subs uni2075 five.numr five.dnom
EndChar

StartChar: six
Encoding: 54 54 25
Width: 584
GlyphClass: 1
Flags: W
LayerCount: 2
Fore
SplineSet
239 -10 m 0,0,1
 196 -10 196 -10 161 5 c 128,-1,2
 126 20 126 20 101 48 c 128,-1,3
 76 76 76 76 63 116.5 c 128,-1,4
 50 157 50 157 50 207 c 0,5,6
 50 305 50 305 75 396.5 c 128,-1,7
 100 488 100 488 146 559 c 128,-1,8
 192 630 192 630 256 672.5 c 128,-1,9
 320 715 320 715 397 715 c 0,10,11
 465 715 465 715 510 677.5 c 128,-1,12
 555 640 555 640 565 575 c 1,13,-1
 530 553 l 1,14,15
 523 608 523 608 484.5 642 c 128,-1,16
 446 676 446 676 388 676 c 0,17,18
 339 676 339 676 293.5 651 c 128,-1,19
 248 626 248 626 210 580 c 128,-1,20
 172 534 172 534 143 469.5 c 128,-1,21
 114 405 114 405 97 325 c 1,22,23
 115 360 115 360 143 387.5 c 128,-1,24
 171 415 171 415 204 434.5 c 128,-1,25
 237 454 237 454 274 464.5 c 128,-1,26
 311 475 311 475 347 475 c 0,27,28
 388 475 388 475 422.5 459.5 c 128,-1,29
 457 444 457 444 481 417 c 128,-1,30
 505 390 505 390 518.5 354.5 c 128,-1,31
 532 319 532 319 532 277 c 0,32,33
 532 219 532 219 507.5 166.5 c 128,-1,34
 483 114 483 114 442 75 c 128,-1,35
 401 36 401 36 348 13 c 128,-1,36
 295 -10 295 -10 239 -10 c 0,0,1
248 29 m 0,37,38
 294 29 294 29 337 48 c 128,-1,39
 380 67 380 67 414 100.5 c 128,-1,40
 448 134 448 134 469 177 c 128,-1,41
 490 220 490 220 490 268 c 0,42,43
 490 303 490 303 478.5 334 c 128,-1,44
 467 365 467 365 446 388 c 128,-1,45
 425 411 425 411 397 424.5 c 128,-1,46
 369 438 369 438 334 438 c 0,47,48
 289 438 289 438 245.5 418 c 128,-1,49
 202 398 202 398 168 365 c 128,-1,50
 134 332 134 332 113 288.5 c 128,-1,51
 92 245 92 245 92 198 c 0,52,53
 92 163 92 163 103.5 132 c 128,-1,54
 115 101 115 101 135.5 78 c 128,-1,55
 156 55 156 55 185 42 c 128,-1,56
 214 29 214 29 248 29 c 0,37,38
EndSplineSet
Substitution2: "'frac' Diagonal Fractions lookup 24 subtable" six.numr
Substitution2: "'dnom' Denominators lookup 22 subtable" six.dnom
Substitution2: "'numr' Numerators lookup 21 subtable" six.numr
Substitution2: "'sups' Superscript lookup 20 subtable" uni2076
Substitution2: "'sinf' Scientific Inferiors lookup 19 subtable" six.subs
Substitution2: "'subs' Subscript lookup 18 subtable" uni2086
AlternateSubs2: "'aalt' Access All Alternates lookup 1 subtable" uni2086 six.subs uni2076 six.numr six.dnom
EndChar

StartChar: seven
Encoding: 55 55 26
Width: 480
GlyphClass: 1
Flags: W
LayerCount: 2
Fore
SplineSet
18 0 m 1,0,-1
 66 0 l 1,1,-1
 561 710 l 1,2,-1
 108 710 l 1,3,-1
 100 670 l 1,4,-1
 483 670 l 1,5,-1
 18 0 l 1,0,-1
EndSplineSet
Substitution2: "'frac' Diagonal Fractions lookup 24 subtable" seven.numr
Substitution2: "'dnom' Denominators lookup 22 subtable" seven.dnom
Substitution2: "'numr' Numerators lookup 21 subtable" seven.numr
Substitution2: "'sups' Superscript lookup 20 subtable" uni2077
Substitution2: "'sinf' Scientific Inferiors lookup 19 subtable" seven.subs
Substitution2: "'subs' Subscript lookup 18 subtable" uni2087
AlternateSubs2: "'aalt' Access All Alternates lookup 1 subtable" uni2087 seven.subs uni2077 seven.numr seven.dnom
EndChar

StartChar: eight
Encoding: 56 56 27
Width: 563
GlyphClass: 1
Flags: W
LayerCount: 2
Fore
SplineSet
493 224 m 0,0,1
 493 281 493 281 462 322 c 128,-1,2
 431 363 431 363 382 381 c 1,3,4
 412 392 412 392 441 409 c 128,-1,5
 470 426 470 426 492 449 c 128,-1,6
 514 472 514 472 527.5 501 c 128,-1,7
 541 530 541 530 541 564 c 0,8,9
 541 600 541 600 526.5 626.5 c 128,-1,10
 512 653 512 653 488.5 672 c 128,-1,11
 465 691 465 691 433.5 700.5 c 128,-1,12
 402 710 402 710 369 710 c 0,13,14
 327 710 327 710 283.5 696.5 c 128,-1,15
 240 683 240 683 204 657.5 c 128,-1,16
 168 632 168 632 145 595 c 128,-1,17
 122 558 122 558 122 510 c 0,18,19
 122 464 122 464 148.5 430.5 c 128,-1,20
 175 397 175 397 213 381 c 1,21,22
 181 371 181 371 147.5 351.5 c 128,-1,23
 114 332 114 332 87 304 c 128,-1,24
 60 276 60 276 42.5 240.5 c 128,-1,25
 25 205 25 205 25 163 c 0,26,27
 25 128 25 128 37.5 97 c 128,-1,28
 50 66 50 66 74 43 c 128,-1,29
 98 20 98 20 133.5 6.5 c 128,-1,30
 169 -7 169 -7 213 -7 c 0,31,32
 266 -7 266 -7 316 9.5 c 128,-1,33
 366 26 366 26 405.5 56.5 c 128,-1,34
 445 87 445 87 469 130 c 128,-1,35
 493 173 493 173 493 224 c 0,0,1
450 223 m 0,36,37
 450 180 450 180 429 144.5 c 128,-1,38
 408 109 408 109 375 83.5 c 128,-1,39
 342 58 342 58 302.5 44 c 128,-1,40
 263 30 263 30 225 30 c 0,41,42
 196 30 196 30 168 39.5 c 128,-1,43
 140 49 140 49 118 67 c 128,-1,44
 96 85 96 85 82.5 110.5 c 128,-1,45
 69 136 69 136 69 169 c 0,46,47
 69 212 69 212 90 247.5 c 128,-1,48
 111 283 111 283 143.5 308.5 c 128,-1,49
 176 334 176 334 215.5 348 c 128,-1,50
 255 362 255 362 293 362 c 0,51,52
 322 362 322 362 350.5 352.5 c 128,-1,53
 379 343 379 343 401 325.5 c 128,-1,54
 423 308 423 308 436.5 282 c 128,-1,55
 450 256 450 256 450 223 c 0,36,37
165 512 m 0,56,57
 165 549 165 549 182 578 c 128,-1,58
 199 607 199 607 227 627.5 c 128,-1,59
 255 648 255 648 289.5 659 c 128,-1,60
 324 670 324 670 359 670 c 0,61,62
 387 670 387 670 412 662.5 c 128,-1,63
 437 655 437 655 456 640.5 c 128,-1,64
 475 626 475 626 486 605 c 128,-1,65
 497 584 497 584 497 557 c 0,66,67
 497 519 497 519 478 489.5 c 128,-1,68
 459 460 459 460 430.5 439.5 c 128,-1,69
 402 419 402 419 367.5 408.5 c 128,-1,70
 333 398 333 398 302 398 c 0,71,72
 277 398 277 398 252.5 405.5 c 128,-1,73
 228 413 228 413 208.5 427.5 c 128,-1,74
 189 442 189 442 177 463.5 c 128,-1,75
 165 485 165 485 165 512 c 0,56,57
EndSplineSet
Substitution2: "'frac' Diagonal Fractions lookup 24 subtable" eight.numr
Substitution2: "'dnom' Denominators lookup 22 subtable" eight.dnom
Substitution2: "'numr' Numerators lookup 21 subtable" eight.numr
Substitution2: "'sups' Superscript lookup 20 subtable" uni2078
Substitution2: "'sinf' Scientific Inferiors lookup 19 subtable" eight.subs
Substitution2: "'subs' Subscript lookup 18 subtable" uni2088
AlternateSubs2: "'aalt' Access All Alternates lookup 1 subtable" uni2088 eight.subs uni2078 eight.numr eight.dnom
EndChar

StartChar: nine
Encoding: 57 57 28
Width: 568
GlyphClass: 1
Flags: W
LayerCount: 2
Fore
SplineSet
213 -7 m 0,0,1
 145 -7 145 -7 100 30.5 c 128,-1,2
 55 68 55 68 45 133 c 1,3,-1
 80 155 l 1,4,5
 87 100 87 100 125.5 66 c 128,-1,6
 164 32 164 32 222 32 c 0,7,8
 272 32 272 32 318 57.5 c 128,-1,9
 364 83 364 83 402.5 128.5 c 128,-1,10
 441 174 441 174 469.5 239 c 128,-1,11
 498 304 498 304 513 383 c 1,12,13
 495 348 495 348 467.5 320.5 c 128,-1,14
 440 293 440 293 407 273.5 c 128,-1,15
 374 254 374 254 337 243.5 c 128,-1,16
 300 233 300 233 263 233 c 0,17,18
 222 233 222 233 187.5 248.5 c 128,-1,19
 153 264 153 264 129 291 c 128,-1,20
 105 318 105 318 91.5 353.5 c 128,-1,21
 78 389 78 389 78 431 c 0,22,23
 78 489 78 489 102.5 541.5 c 128,-1,24
 127 594 127 594 168.5 633 c 128,-1,25
 210 672 210 672 263 695 c 128,-1,26
 316 718 316 718 372 718 c 0,27,28
 415 718 415 718 449.5 703 c 128,-1,29
 484 688 484 688 509 660 c 128,-1,30
 534 632 534 632 547.5 592 c 128,-1,31
 561 552 561 552 561 501 c 0,32,33
 561 403 561 403 535.5 311.5 c 128,-1,34
 510 220 510 220 464 149 c 128,-1,35
 418 78 418 78 354.5 35.5 c 128,-1,36
 291 -7 291 -7 213 -7 c 0,0,1
276 270 m 0,37,38
 322 270 322 270 365.5 290 c 128,-1,39
 409 310 409 310 442.5 343 c 128,-1,40
 476 376 476 376 497 419.5 c 128,-1,41
 518 463 518 463 518 510 c 0,42,43
 518 545 518 545 507 576 c 128,-1,44
 496 607 496 607 475 630 c 128,-1,45
 454 653 454 653 425.5 666 c 128,-1,46
 397 679 397 679 362 679 c 0,47,48
 317 679 317 679 273.5 660 c 128,-1,49
 230 641 230 641 196 607.5 c 128,-1,50
 162 574 162 574 141 531 c 128,-1,51
 120 488 120 488 120 440 c 0,52,53
 120 405 120 405 131.5 374 c 128,-1,54
 143 343 143 343 164 320 c 128,-1,55
 185 297 185 297 213.5 283.5 c 128,-1,56
 242 270 242 270 276 270 c 0,37,38
EndSplineSet
Substitution2: "'frac' Diagonal Fractions lookup 24 subtable" nine.numr
Substitution2: "'dnom' Denominators lookup 22 subtable" nine.dnom
Substitution2: "'numr' Numerators lookup 21 subtable" nine.numr
Substitution2: "'sups' Superscript lookup 20 subtable" uni2079
Substitution2: "'sinf' Scientific Inferiors lookup 19 subtable" nine.subs
Substitution2: "'subs' Subscript lookup 18 subtable" uni2089
AlternateSubs2: "'aalt' Access All Alternates lookup 1 subtable" uni2089 nine.subs uni2079 nine.numr nine.dnom
EndChar

StartChar: less
Encoding: 60 60 31
Width: 543
GlyphClass: 1
Flags: W
LayerCount: 2
Fore
SplineSet
31 245 m 1,0,-1
 449 -5 l 1,1,-1
 449 42 l 1,2,-1
 93 259 l 1,3,-1
 449 476 l 1,4,-1
 449 522 l 1,5,-1
 31 272 l 1,6,-1
 31 245 l 1,0,-1
EndSplineSet
EndChar

StartChar: equal
Encoding: 61 61 32
Width: 462
GlyphClass: 1
Flags: W
LayerCount: 2
Fore
SplineSet
373 214 m 1,0,-1
 373 247 l 1,1,-1
 76 247 l 1,2,-1
 76 214 l 1,3,-1
 373 214 l 1,0,-1
373 305 m 1,4,-1
 373 338 l 1,5,-1
 76 338 l 1,6,-1
 76 305 l 1,7,-1
 373 305 l 1,4,-1
EndSplineSet
EndChar

StartChar: greater
Encoding: 62 62 33
Width: 543
GlyphClass: 1
Flags: W
LayerCount: 2
Fore
SplineSet
494 272 m 1,0,-1
 76 522 l 1,1,-1
 76 476 l 1,2,-1
 432 259 l 1,3,-1
 76 42 l 1,4,-1
 76 -5 l 1,5,-1
 494 245 l 1,6,-1
 494 272 l 1,0,-1
EndSplineSet
EndChar

StartChar: question
Encoding: 63 63 34
Width: 453
GlyphClass: 1
Flags: W
LayerCount: 2
Fore
SplineSet
171 190 m 1,0,1
 179 230 179 230 191 256.5 c 128,-1,2
 203 283 203 283 217 300.5 c 128,-1,3
 231 318 231 318 248 328.5 c 128,-1,4
 265 339 265 339 283 348 c 0,5,6
 311 363 311 363 339.5 377 c 128,-1,7
 368 391 368 391 392.5 410.5 c 128,-1,8
 417 430 417 430 435.5 459 c 128,-1,9
 454 488 454 488 463 530 c 0,10,11
 473 577 473 577 465 612.5 c 128,-1,12
 457 648 457 648 436.5 671.5 c 128,-1,13
 416 695 416 695 385.5 707 c 128,-1,14
 355 719 355 719 320 719 c 0,15,16
 290 719 290 719 257.5 710.5 c 128,-1,17
 225 702 225 702 195 685.5 c 128,-1,18
 165 669 165 669 138.5 645 c 128,-1,19
 112 621 112 621 92 590 c 1,20,-1
 119 572 l 1,21,22
 136 596 136 596 158 616 c 128,-1,23
 180 636 180 636 205 651 c 128,-1,24
 230 666 230 666 257 673.5 c 128,-1,25
 284 681 284 681 312 681 c 0,26,27
 339 681 339 681 363.5 672.5 c 128,-1,28
 388 664 388 664 404.5 645.5 c 128,-1,29
 421 627 421 627 427.5 599.5 c 128,-1,30
 434 572 434 572 426 534 c 0,31,32
 418 494 418 494 398.5 467.5 c 128,-1,33
 379 441 379 441 354.5 423.5 c 128,-1,34
 330 406 330 406 304 393.5 c 128,-1,35
 278 381 278 381 254 369 c 0,36,37
 233 357 233 357 215 343 c 128,-1,38
 197 329 197 329 182 308.5 c 128,-1,39
 167 288 167 288 155 259.5 c 128,-1,40
 143 231 143 231 134 190 c 1,41,-1
 171 190 l 1,0,1
80 35 m 0,42,43
 76 18 76 18 85 5.5 c 128,-1,44
 94 -7 94 -7 111 -7 c 0,45,46
 119 -7 119 -7 127 -3.5 c 128,-1,47
 135 0 135 0 141.5 5.5 c 128,-1,48
 148 11 148 11 153 18.5 c 128,-1,49
 158 26 158 26 159 35 c 0,50,51
 163 52 163 52 154 63.5 c 128,-1,52
 145 75 145 75 128 75 c 0,53,54
 120 75 120 75 112 72 c 128,-1,55
 104 69 104 69 97.5 63.5 c 128,-1,56
 91 58 91 58 86.5 50.5 c 128,-1,57
 82 43 82 43 80 35 c 0,42,43
EndSplineSet
EndChar

StartChar: at
Encoding: 64 64 35
Width: 797
GlyphClass: 1
Flags: W
LayerCount: 2
Fore
SplineSet
550 12 m 0,0,1
 531 12 531 12 522 22 c 128,-1,2
 513 32 513 32 513 53 c 0,3,4
 513 59 513 59 514 70 c 128,-1,5
 515 81 515 81 519 99 c 2,6,-1
 594 450 l 1,7,-1
 562 450 l 1,8,-1
 544 362 l 1,9,10
 528 404 528 404 494.5 428 c 128,-1,11
 461 452 461 452 412 452 c 0,12,13
 365 452 365 452 321.5 430 c 128,-1,14
 278 408 278 408 245 371 c 128,-1,15
 212 334 212 334 192.5 285.5 c 128,-1,16
 173 237 173 237 173 184 c 0,17,18
 173 146 173 146 183.5 113.5 c 128,-1,19
 194 81 194 81 213.5 57.5 c 128,-1,20
 233 34 233 34 260 21 c 128,-1,21
 287 8 287 8 321 8 c 0,22,23
 363 8 363 8 407 28 c 128,-1,24
 451 48 451 48 485 80 c 1,25,26
 483 71 483 71 482.5 62 c 128,-1,27
 482 53 482 53 482 46 c 0,28,29
 482 12 482 12 496.5 -2 c 128,-1,30
 511 -16 511 -16 539 -16 c 0,31,32
 569 -16 569 -16 594.5 -2 c 128,-1,33
 620 12 620 12 642 37 c 128,-1,34
 664 62 664 62 681 94 c 128,-1,35
 698 126 698 126 710 162 c 128,-1,36
 722 198 722 198 728 235.5 c 128,-1,37
 734 273 734 273 734 307 c 0,38,39
 734 370 734 370 713.5 424 c 128,-1,40
 693 478 693 478 656 518 c 128,-1,41
 619 558 619 558 567.5 580.5 c 128,-1,42
 516 603 516 603 454 603 c 0,43,44
 375 603 375 603 298 567.5 c 128,-1,45
 221 532 221 532 161 471 c 128,-1,46
 101 410 101 410 63 329 c 128,-1,47
 25 248 25 248 25 158 c 0,48,49
 25 92 25 92 45.5 37 c 128,-1,50
 66 -18 66 -18 102 -59 c 128,-1,51
 138 -100 138 -100 188.5 -123 c 128,-1,52
 239 -146 239 -146 298 -146 c 0,53,54
 337 -146 337 -146 379.5 -136 c 128,-1,55
 422 -126 422 -126 464 -106 c 1,56,-1
 458 -81 l 1,57,58
 420 -100 420 -100 383 -109.5 c 128,-1,59
 346 -119 346 -119 308 -119 c 0,60,61
 251 -119 251 -119 204 -98 c 128,-1,62
 157 -77 157 -77 123.5 -39.5 c 128,-1,63
 90 -2 90 -2 71.5 49 c 128,-1,64
 53 100 53 100 53 160 c 0,65,66
 53 243 53 243 86.5 318 c 128,-1,67
 120 393 120 393 175.5 450.5 c 128,-1,68
 231 508 231 508 302.5 542 c 128,-1,69
 374 576 374 576 448 576 c 0,70,71
 507 576 507 576 554.5 555 c 128,-1,72
 602 534 602 534 636 497 c 128,-1,73
 670 460 670 460 688 409.5 c 128,-1,74
 706 359 706 359 706 301 c 0,75,76
 706 252 706 252 694 200.5 c 128,-1,77
 682 149 682 149 660.5 107 c 128,-1,78
 639 65 639 65 610.5 38.5 c 128,-1,79
 582 12 582 12 550 12 c 0,0,1
332 38 m 0,80,81
 305 38 305 38 281.5 49 c 128,-1,82
 258 60 258 60 241.5 80.5 c 128,-1,83
 225 101 225 101 215.5 129 c 128,-1,84
 206 157 206 157 206 190 c 0,85,86
 206 237 206 237 223.5 279 c 128,-1,87
 241 321 241 321 269.5 352 c 128,-1,88
 298 383 298 383 334.5 402 c 128,-1,89
 371 421 371 421 409 421 c 0,90,91
 453 421 453 421 486 396.5 c 128,-1,92
 519 372 519 372 533 323 c 1,93,-1
 498 147 l 1,94,95
 489 125 489 125 471.5 105 c 128,-1,96
 454 85 454 85 431 70 c 128,-1,97
 408 55 408 55 382.5 46.5 c 128,-1,98
 357 38 357 38 332 38 c 0,80,81
EndSplineSet
EndChar

StartChar: A
Encoding: 65 65 36
Width: 649
GlyphClass: 1
Flags: W
LayerCount: 2
Fore
SplineSet
-42 0 m 1,0,-1
 5 0 l 1,1,-1
 151 239 l 1,2,-1
 478 239 l 1,3,-1
 523 0 l 1,4,-1
 570 0 l 1,5,-1
 434 710 l 1,6,-1
 397 710 l 1,7,-1
 -42 0 l 1,0,-1
170 275 m 1,8,-1
 404 656 l 1,9,-1
 474 275 l 1,10,-1
 170 275 l 1,8,-1
EndSplineSet
Substitution2: "Single Substitution lookup 46 subtable" ordfeminine
Substitution2: "'aalt' Access All Alternates lookup 0 subtable" ordfeminine
EndChar

StartChar: B
Encoding: 66 66 37
Width: 634
GlyphClass: 1
Flags: W
LayerCount: 2
Fore
SplineSet
29 0 m 1,0,-1
 344 0 l 2,1,2
 386 0 386 0 426 17.5 c 128,-1,3
 466 35 466 35 497 64.5 c 128,-1,4
 528 94 528 94 547.5 134 c 128,-1,5
 567 174 567 174 567 219 c 0,6,7
 567 269 567 269 543.5 309 c 128,-1,8
 520 349 520 349 475 364 c 1,9,10
 504 377 504 377 529 398 c 128,-1,11
 554 419 554 419 572.5 445.5 c 128,-1,12
 591 472 591 472 601.5 502.5 c 128,-1,13
 612 533 612 533 612 565 c 0,14,15
 612 593 612 593 604.5 619 c 128,-1,16
 597 645 597 645 582 665.5 c 128,-1,17
 567 686 567 686 544.5 698 c 128,-1,18
 522 710 522 710 492 710 c 2,19,-1
 180 710 l 1,20,-1
 29 0 l 1,0,-1
80 39 m 1,21,-1
 144 339 l 1,22,-1
 423 339 l 2,23,24
 446 339 446 339 464.5 329 c 128,-1,25
 483 319 483 319 496 302.5 c 128,-1,26
 509 286 509 286 516 264.5 c 128,-1,27
 523 243 523 243 523 218 c 0,28,29
 523 185 523 185 508.5 152.5 c 128,-1,30
 494 120 494 120 470 95 c 128,-1,31
 446 70 446 70 415 54.5 c 128,-1,32
 384 39 384 39 352 39 c 2,33,-1
 80 39 l 1,21,-1
152 377 m 1,34,-1
 215 671 l 1,35,-1
 472 671 l 2,36,37
 495 671 495 671 512.5 661.5 c 128,-1,38
 530 652 530 652 542 636 c 128,-1,39
 554 620 554 620 560.5 599 c 128,-1,40
 567 578 567 578 567 554 c 0,41,42
 567 521 567 521 553.5 489 c 128,-1,43
 540 457 540 457 517.5 432 c 128,-1,44
 495 407 495 407 465.5 392 c 128,-1,45
 436 377 436 377 404 377 c 2,46,-1
 152 377 l 1,34,-1
EndSplineSet
EndChar

StartChar: C
Encoding: 67 67 38
Width: 660
GlyphClass: 1
Flags: W
LayerCount: 2
Fore
SplineSet
305 -6 m 0,0,1
 343 -6 343 -6 384 4.5 c 128,-1,2
 425 15 425 15 463.5 35.5 c 128,-1,3
 502 56 502 56 536.5 87 c 128,-1,4
 571 118 571 118 598 159 c 1,5,-1
 564 176 l 1,6,7
 538 139 538 139 507 112 c 128,-1,8
 476 85 476 85 443 68 c 128,-1,9
 410 51 410 51 377 42.5 c 128,-1,10
 344 34 344 34 313 34 c 0,11,12
 261 34 261 34 220 55 c 128,-1,13
 179 76 179 76 151 111 c 128,-1,14
 123 146 123 146 108 192 c 128,-1,15
 93 238 93 238 93 289 c 0,16,17
 93 356 93 356 118.5 424.5 c 128,-1,18
 144 493 144 493 190 548.5 c 128,-1,19
 236 604 236 604 301 639 c 128,-1,20
 366 674 366 674 444 674 c 0,21,22
 475 674 475 674 504 667 c 128,-1,23
 533 660 533 660 557.5 645 c 128,-1,24
 582 630 582 630 600.5 604 c 128,-1,25
 619 578 619 578 630 541 c 1,26,-1
 668 559 l 1,27,28
 660 593 660 593 642.5 621.5 c 128,-1,29
 625 650 625 650 597.5 670.5 c 128,-1,30
 570 691 570 691 533 702.5 c 128,-1,31
 496 714 496 714 449 714 c 0,32,33
 361 714 361 714 287.5 675.5 c 128,-1,34
 214 637 214 637 161 576 c 128,-1,35
 108 515 108 515 79 439 c 128,-1,36
 50 363 50 363 50 288 c 0,37,38
 50 233 50 233 66.5 180 c 128,-1,39
 83 127 83 127 115.5 86 c 128,-1,40
 148 45 148 45 195.5 19.5 c 128,-1,41
 243 -6 243 -6 305 -6 c 0,0,1
EndSplineSet
EndChar

StartChar: D
Encoding: 68 68 39
Width: 687
GlyphClass: 1
Flags: W
LayerCount: 2
Fore
SplineSet
29 0 m 1,0,-1
 252 0 l 2,1,2
 339 0 339 0 413.5 33.5 c 128,-1,3
 488 67 488 67 542.5 125.5 c 128,-1,4
 597 184 597 184 627.5 264.5 c 128,-1,5
 658 345 658 345 658 439 c 0,6,7
 658 496 658 496 642.5 545.5 c 128,-1,8
 627 595 627 595 596 631.5 c 128,-1,9
 565 668 565 668 516.5 689 c 128,-1,10
 468 710 468 710 403 710 c 2,11,-1
 180 710 l 1,12,-1
 29 0 l 1,0,-1
80 40 m 1,13,-1
 215 670 l 1,14,-1
 394 670 l 2,15,16
 449 670 449 670 490 652 c 128,-1,17
 531 634 531 634 558.5 602.5 c 128,-1,18
 586 571 586 571 600 527 c 128,-1,19
 614 483 614 483 614 431 c 0,20,21
 614 354 614 354 589.5 283 c 128,-1,22
 565 212 565 212 519.5 158 c 128,-1,23
 474 104 474 104 408.5 72 c 128,-1,24
 343 40 343 40 260 40 c 2,25,-1
 80 40 l 1,13,-1
EndSplineSet
EndChar

StartChar: E
Encoding: 69 69 40
Width: 585
GlyphClass: 1
Flags: W
LayerCount: 2
Fore
SplineSet
29 0 m 1,0,-1
 477 0 l 1,1,-1
 485 40 l 1,2,-1
 80 40 l 1,3,-1
 145 344 l 1,4,-1
 491 344 l 1,5,-1
 499 382 l 1,6,-1
 153 382 l 1,7,-1
 215 670 l 1,8,-1
 611 670 l 1,9,-1
 619 710 l 1,10,-1
 180 710 l 1,11,-1
 29 0 l 1,0,-1
EndSplineSet
EndChar

StartChar: F
Encoding: 70 70 41
Width: 580
GlyphClass: 1
Flags: W
LayerCount: 2
Fore
SplineSet
29 0 m 1,0,-1
 72 0 l 1,1,-1
 145 342 l 1,2,-1
 480 342 l 1,3,-1
 488 380 l 1,4,-1
 153 380 l 1,5,-1
 215 670 l 1,6,-1
 609 670 l 1,7,-1
 618 710 l 1,8,-1
 180 710 l 1,9,-1
 29 0 l 1,0,-1
EndSplineSet
EndChar

StartChar: G
Encoding: 71 71 42
Width: 720
GlyphClass: 1
Flags: W
LayerCount: 2
Fore
SplineSet
301 -5 m 0,0,1
 340 -5 340 -5 380.5 3.5 c 128,-1,2
 421 12 421 12 460.5 28 c 128,-1,3
 500 44 500 44 536.5 66.5 c 128,-1,4
 573 89 573 89 605 117 c 1,5,-1
 652 338 l 1,6,-1
 388 338 l 1,7,-1
 379 298 l 1,8,-1
 601 298 l 1,9,-1
 565 132 l 1,10,11
 539 111 539 111 509.5 93 c 128,-1,12
 480 75 480 75 448 62 c 128,-1,13
 416 49 416 49 381 42 c 128,-1,14
 346 35 346 35 309 35 c 0,15,16
 247 35 247 35 202 62 c 128,-1,17
 157 89 157 89 130 133.5 c 128,-1,18
 103 178 103 178 94.5 235.5 c 128,-1,19
 86 293 86 293 99 353 c 256,20,21
 112 413 112 413 144 471 c 128,-1,22
 176 529 176 529 222 574 c 128,-1,23
 268 619 268 619 324.5 647 c 128,-1,24
 381 675 381 675 443 675 c 0,25,26
 482 675 482 675 514 663.5 c 128,-1,27
 546 652 546 652 571 632.5 c 128,-1,28
 596 613 596 613 614 587 c 128,-1,29
 632 561 632 561 643 531 c 1,30,-1
 681 560 l 1,31,32
 655 629 655 629 597.5 672 c 128,-1,33
 540 715 540 715 455 715 c 0,34,35
 386 715 386 715 321 685.5 c 128,-1,36
 256 656 256 656 202.5 606 c 128,-1,37
 149 556 149 556 111 491.5 c 128,-1,38
 73 427 73 427 58 357 c 256,39,40
 43 287 43 287 53.5 222 c 128,-1,41
 64 157 64 157 95.5 106.5 c 128,-1,42
 127 56 127 56 179 25.5 c 128,-1,43
 231 -5 231 -5 301 -5 c 0,0,1
EndSplineSet
Substitution2: "'ss11' Style Set 11 lookup 42 subtable" G.ss11
Substitution2: "'aalt' Access All Alternates lookup 0 subtable" G.ss11
EndChar

StartChar: H
Encoding: 72 72 43
Width: 705
GlyphClass: 1
Flags: W
LayerCount: 2
Fore
SplineSet
29 0 m 1,0,-1
 72 0 l 1,1,-1
 145 343 l 1,2,-1
 578 343 l 1,3,-1
 505 0 l 1,4,-1
 548 0 l 1,5,-1
 699 710 l 1,6,-1
 656 710 l 1,7,-1
 586 383 l 1,8,-1
 153 383 l 1,9,-1
 223 710 l 1,10,-1
 180 710 l 1,11,-1
 29 0 l 1,0,-1
EndSplineSet
EndChar

StartChar: I
Encoding: 73 73 44
Width: 229
GlyphClass: 1
Flags: W
LayerCount: 2
Fore
SplineSet
29 0 m 1,0,-1
 72 0 l 1,1,-1
 223 709 l 1,2,-1
 180 709 l 1,3,-1
 29 0 l 1,0,-1
EndSplineSet
EndChar

StartChar: J
Encoding: 74 74 45
Width: 511
GlyphClass: 2
Flags: W
LayerCount: 2
Fore
SplineSet
35 124 m 1,0,1
 43 105 43 105 55 88.5 c 128,-1,2
 67 72 67 72 83 59.5 c 128,-1,3
 99 47 99 47 118 40 c 128,-1,4
 137 33 137 33 158 33 c 0,5,6
 200 33 200 33 234.5 49 c 128,-1,7
 269 65 269 65 294.5 91.5 c 128,-1,8
 320 118 320 118 337 153 c 128,-1,9
 354 188 354 188 361 227 c 2,10,-1
 456 710 l 1,11,-1
 497 710 l 1,12,-1
 399 210 l 2,13,14
 390 163 390 163 368.5 123.5 c 128,-1,15
 347 84 347 84 315.5 55 c 128,-1,16
 284 26 284 26 242.5 9.5 c 128,-1,17
 201 -7 201 -7 151 -7 c 0,18,19
 125 -7 125 -7 101 1.5 c 128,-1,20
 77 10 77 10 56.5 25 c 128,-1,21
 36 40 36 40 20 60.5 c 128,-1,22
 4 81 4 81 -4 105 c 1,23,-1
 35 124 l 1,0,1
EndSplineSet
EndChar

StartChar: K
Encoding: 75 75 46
Width: 602
GlyphClass: 1
Flags: W
LayerCount: 2
Fore
SplineSet
29 0 m 1,0,-1
 72 0 l 1,1,-1
 119 220 l 1,2,-1
 293 373 l 1,3,-1
 488 0 l 1,4,-1
 537 0 l 1,5,-1
 326 399 l 1,6,-1
 674 710 l 1,7,-1
 622 710 l 1,8,-1
 130 272 l 1,9,-1
 223 709 l 1,10,-1
 180 709 l 1,11,-1
 29 0 l 1,0,-1
EndSplineSet
EndChar

StartChar: L
Encoding: 76 76 47
Width: 554
GlyphClass: 1
Flags: W
LayerCount: 2
Fore
SplineSet
29 0 m 1,0,-1
 478 0 l 1,1,-1
 487 40 l 1,2,-1
 80 40 l 1,3,-1
 223 710 l 1,4,-1
 180 710 l 1,5,-1
 29 0 l 1,0,-1
EndSplineSet
EndChar

StartChar: M
Encoding: 77 77 48
Width: 843
GlyphClass: 1
Flags: W
LayerCount: 2
Fore
SplineSet
29 0 m 1,0,-1
 72 0 l 1,1,-1
 206 627 l 1,2,-1
 373 136 l 1,3,-1
 401 136 l 1,4,-1
 776 627 l 1,5,-1
 643 0 l 1,6,-1
 687 0 l 1,7,-1
 838 710 l 1,8,-1
 796 710 l 1,9,-1
 399 192 l 1,10,-1
 222 710 l 1,11,-1
 180 710 l 1,12,-1
 29 0 l 1,0,-1
EndSplineSet
EndChar

StartChar: N
Encoding: 78 78 49
Width: 742
GlyphClass: 1
Flags: W
LayerCount: 2
Fore
SplineSet
29 0 m 1,0,-1
 72 0 l 1,1,-1
 206 628 l 1,2,-1
 545 0 l 1,3,-1
 585 0 l 1,4,-1
 736 709 l 1,5,-1
 693 709 l 1,6,-1
 558 72 l 1,7,-1
 213 710 l 1,8,-1
 180 710 l 1,9,-1
 29 0 l 1,0,-1
EndSplineSet
EndChar

StartChar: O
Encoding: 79 79 50
Width: 724
GlyphClass: 1
Flags: W
LayerCount: 2
Fore
SplineSet
302 -5 m 0,0,1
 381 -5 381 -5 452.5 30 c 128,-1,2
 524 65 524 65 578.5 124 c 128,-1,3
 633 183 633 183 665.5 260.5 c 128,-1,4
 698 338 698 338 698 423 c 0,5,6
 698 479 698 479 682.5 531.5 c 128,-1,7
 667 584 667 584 636 625 c 128,-1,8
 605 666 605 666 557.5 690.5 c 128,-1,9
 510 715 510 715 445 715 c 0,10,11
 367 715 367 715 295 679.5 c 128,-1,12
 223 644 223 644 168.5 585 c 128,-1,13
 114 526 114 526 81.5 448 c 128,-1,14
 49 370 49 370 49 285 c 0,15,16
 49 229 49 229 64.5 176.5 c 128,-1,17
 80 124 80 124 111 83.5 c 128,-1,18
 142 43 142 43 189.5 19 c 128,-1,19
 237 -5 237 -5 302 -5 c 0,0,1
310 35 m 0,20,21
 254 35 254 35 213 56 c 128,-1,22
 172 77 172 77 145.5 112 c 128,-1,23
 119 147 119 147 106 193 c 128,-1,24
 93 239 93 239 93 289 c 0,25,26
 93 361 93 361 120 430 c 128,-1,27
 147 499 147 499 193.5 553.5 c 128,-1,28
 240 608 240 608 302.5 641 c 128,-1,29
 365 674 365 674 438 674 c 0,30,31
 493 674 493 674 534 653 c 128,-1,32
 575 632 575 632 601.5 597 c 128,-1,33
 628 562 628 562 641 516 c 128,-1,34
 654 470 654 470 654 420 c 0,35,36
 654 349 654 349 627 280 c 128,-1,37
 600 211 600 211 554 156.5 c 128,-1,38
 508 102 508 102 445 68.5 c 128,-1,39
 382 35 382 35 310 35 c 0,20,21
EndSplineSet
Substitution2: "Single Substitution lookup 46 subtable" ordmasculine
Substitution2: "'aalt' Access All Alternates lookup 0 subtable" ordmasculine
EndChar

StartChar: P
Encoding: 80 80 51
Width: 597
GlyphClass: 1
Flags: W
LayerCount: 2
Fore
SplineSet
29 0 m 1,0,-1
 72 0 l 1,1,-1
 129 271 l 1,2,-1
 370 271 l 2,3,4
 418 271 418 271 462 294 c 128,-1,5
 506 317 506 317 538.5 353.5 c 128,-1,6
 571 390 571 390 590.5 436.5 c 128,-1,7
 610 483 610 483 610 530 c 0,8,9
 610 564 610 564 599.5 596.5 c 128,-1,10
 589 629 589 629 569 654 c 128,-1,11
 549 679 549 679 519.5 694.5 c 128,-1,12
 490 710 490 710 452 710 c 2,13,-1
 180 710 l 1,14,-1
 29 0 l 1,0,-1
138 311 m 1,15,-1
 215 670 l 1,16,-1
 446 670 l 2,17,18
 473 670 473 670 495 659 c 128,-1,19
 517 648 517 648 533 628.5 c 128,-1,20
 549 609 549 609 557.5 583.5 c 128,-1,21
 566 558 566 558 566 529 c 0,22,23
 566 490 566 490 551.5 451 c 128,-1,24
 537 412 537 412 511 381 c 128,-1,25
 485 350 485 350 450.5 330.5 c 128,-1,26
 416 311 416 311 376 311 c 2,27,-1
 138 311 l 1,15,-1
EndSplineSet
EndChar

StartChar: Q
Encoding: 81 81 52
Width: 724
GlyphClass: 1
Flags: W
LayerCount: 2
Fore
SplineSet
302 -5 m 0,0,1
 381 -5 381 -5 452.5 30 c 128,-1,2
 524 65 524 65 578.5 124 c 128,-1,3
 633 183 633 183 665.5 260.5 c 128,-1,4
 698 338 698 338 698 423 c 0,5,6
 698 479 698 479 682.5 531.5 c 128,-1,7
 667 584 667 584 636 625 c 128,-1,8
 605 666 605 666 557.5 690.5 c 128,-1,9
 510 715 510 715 445 715 c 0,10,11
 367 715 367 715 295 679.5 c 128,-1,12
 223 644 223 644 168.5 585 c 128,-1,13
 114 526 114 526 81.5 448 c 128,-1,14
 49 370 49 370 49 285 c 0,15,16
 49 229 49 229 64.5 176.5 c 128,-1,17
 80 124 80 124 111 83.5 c 128,-1,18
 142 43 142 43 189.5 19 c 128,-1,19
 237 -5 237 -5 302 -5 c 0,0,1
310 35 m 0,20,21
 254 35 254 35 213 56 c 128,-1,22
 172 77 172 77 145.5 112 c 128,-1,23
 119 147 119 147 106 193 c 128,-1,24
 93 239 93 239 93 289 c 0,25,26
 93 361 93 361 120 430 c 128,-1,27
 147 499 147 499 193.5 553.5 c 128,-1,28
 240 608 240 608 302.5 641 c 128,-1,29
 365 674 365 674 438 674 c 0,30,31
 493 674 493 674 534 653 c 128,-1,32
 575 632 575 632 601.5 597 c 128,-1,33
 628 562 628 562 641 516 c 128,-1,34
 654 470 654 470 654 420 c 0,35,36
 654 349 654 349 627 280 c 128,-1,37
 600 211 600 211 554 156.5 c 128,-1,38
 508 102 508 102 445 68.5 c 128,-1,39
 382 35 382 35 310 35 c 0,20,21
612 -8 m 1,40,-1
 644 19 l 1,41,-1
 414 296 l 1,42,-1
 382 269 l 1,43,-1
 612 -8 l 1,40,-1
EndSplineSet
EndChar

StartChar: R
Encoding: 82 82 53
Width: 622
GlyphClass: 1
Flags: W
LayerCount: 2
Fore
SplineSet
72 0 m 1,0,-1
 129 271 l 1,1,-1
 354 271 l 1,2,-1
 461 0 l 1,3,-1
 511 0 l 1,4,-1
 402 277 l 1,5,6
 445 282 445 282 483.5 305.5 c 128,-1,7
 522 329 522 329 550.5 364 c 128,-1,8
 579 399 579 399 596 442 c 128,-1,9
 613 485 613 485 613 529 c 0,10,11
 613 564 613 564 602.5 596.5 c 128,-1,12
 592 629 592 629 572.5 654 c 128,-1,13
 553 679 553 679 524.5 694.5 c 128,-1,14
 496 710 496 710 460 710 c 2,15,-1
 180 710 l 1,16,-1
 29 0 l 1,17,-1
 72 0 l 1,0,-1
138 311 m 1,18,-1
 215 670 l 1,19,-1
 449 670 l 2,20,21
 476 670 476 670 498 658 c 128,-1,22
 520 646 520 646 535.5 626 c 128,-1,23
 551 606 551 606 560 579.5 c 128,-1,24
 569 553 569 553 569 524 c 0,25,26
 569 486 569 486 554 448 c 128,-1,27
 539 410 539 410 513 379.5 c 128,-1,28
 487 349 487 349 453 330 c 128,-1,29
 419 311 419 311 379 311 c 2,30,-1
 138 311 l 1,18,-1
EndSplineSet
EndChar

StartChar: S
Encoding: 83 83 54
Width: 582
GlyphClass: 1
Flags: W
LayerCount: 2
Fore
SplineSet
243 -6 m 0,0,1
 303 -6 303 -6 354 7.5 c 128,-1,2
 405 21 405 21 443 47.5 c 128,-1,3
 481 74 481 74 502.5 115 c 128,-1,4
 524 156 524 156 524 210 c 0,5,6
 524 249 524 249 511 275 c 128,-1,7
 498 301 498 301 472.5 319 c 128,-1,8
 447 337 447 337 409 349.5 c 128,-1,9
 371 362 371 362 321 375 c 0,10,11
 278 386 278 386 245.5 395.5 c 128,-1,12
 213 405 213 405 191.5 418.5 c 128,-1,13
 170 432 170 432 160 450.5 c 128,-1,14
 150 469 150 469 150 498 c 0,15,16
 150 535 150 535 164.5 567 c 128,-1,17
 179 599 179 599 207.5 623 c 128,-1,18
 236 647 236 647 278 661.5 c 128,-1,19
 320 676 320 676 377 676 c 0,20,21
 407 676 407 676 432 671 c 128,-1,22
 457 666 457 666 478.5 656 c 128,-1,23
 500 646 500 646 517.5 631.5 c 128,-1,24
 535 617 535 617 548 598 c 1,25,-1
 578 631 l 1,26,27
 562 652 562 652 541.5 667.5 c 128,-1,28
 521 683 521 683 497 693.5 c 128,-1,29
 473 704 473 704 444.5 709.5 c 128,-1,30
 416 715 416 715 382 715 c 0,31,32
 321 715 321 715 270 698.5 c 128,-1,33
 219 682 219 682 181.5 652.5 c 128,-1,34
 144 623 144 623 123.5 581 c 128,-1,35
 103 539 103 539 103 487 c 0,36,37
 103 450 103 450 115.5 426.5 c 128,-1,38
 128 403 128 403 152 386.5 c 128,-1,39
 176 370 176 370 211.5 359 c 128,-1,40
 247 348 247 348 293 337 c 0,41,42
 338 325 338 325 372 314 c 128,-1,43
 406 303 406 303 429.5 288 c 128,-1,44
 453 273 453 273 464.5 252 c 128,-1,45
 476 231 476 231 476 200 c 0,46,47
 476 160 476 160 460 129.5 c 128,-1,48
 444 99 444 99 415 77.5 c 128,-1,49
 386 56 386 56 344.5 44.5 c 128,-1,50
 303 33 303 33 252 33 c 0,51,52
 211 33 211 33 177.5 40.5 c 128,-1,53
 144 48 144 48 116 61.5 c 128,-1,54
 88 75 88 75 65.5 94 c 128,-1,55
 43 113 43 113 26 135 c 1,56,-1
 -5 101 l 1,57,58
 19 74 19 74 45.5 54 c 128,-1,59
 72 34 72 34 102.5 20.5 c 128,-1,60
 133 7 133 7 167.5 0.5 c 128,-1,61
 202 -6 202 -6 243 -6 c 0,0,1
EndSplineSet
EndChar

StartChar: T
Encoding: 84 84 55
Width: 578
GlyphClass: 1
Flags: W
LayerCount: 2
Fore
SplineSet
200 0 m 1,0,-1
 244 0 l 1,1,-1
 386 670 l 1,2,-1
 635 670 l 1,3,-1
 644 710 l 1,4,-1
 102 710 l 1,5,-1
 94 670 l 1,6,-1
 343 670 l 1,7,-1
 200 0 l 1,0,-1
EndSplineSet
EndChar

StartChar: U
Encoding: 85 85 56
Width: 724
GlyphClass: 1
Flags: W
LayerCount: 2
Fore
SplineSet
298 -5 m 0,0,1
 376 -5 376 -5 435.5 24 c 128,-1,2
 495 53 495 53 538.5 102.5 c 128,-1,3
 582 152 582 152 610.5 217 c 128,-1,4
 639 282 639 282 654 354 c 2,5,-1
 729 710 l 1,6,-1
 686 710 l 1,7,-1
 610 354 l 2,8,9
 598 296 598 296 574.5 239 c 128,-1,10
 551 182 551 182 514 136.5 c 128,-1,11
 477 91 477 91 425 63 c 128,-1,12
 373 35 373 35 303 35 c 0,13,14
 252 35 252 35 217.5 50.5 c 128,-1,15
 183 66 183 66 162 93 c 128,-1,16
 141 120 141 120 132 156.5 c 128,-1,17
 123 193 123 193 123 234 c 0,18,19
 123 264 123 264 126.5 293.5 c 128,-1,20
 130 323 130 323 137 354 c 2,21,-1
 212 710 l 1,22,-1
 169 710 l 1,23,-1
 94 354 l 2,24,25
 87 321 87 321 83 289.5 c 128,-1,26
 79 258 79 258 79 227 c 0,27,28
 79 180 79 180 90.5 137.5 c 128,-1,29
 102 95 102 95 127.5 63 c 128,-1,30
 153 31 153 31 194.5 13 c 128,-1,31
 236 -5 236 -5 298 -5 c 0,0,1
EndSplineSet
EndChar

StartChar: V
Encoding: 86 86 57
Width: 646
GlyphClass: 1
Flags: W
LayerCount: 2
Fore
SplineSet
235 0 m 1,0,-1
 276 0 l 1,1,-1
 713 710 l 1,2,-1
 667 710 l 1,3,-1
 267 54 l 1,4,-1
 145 710 l 1,5,-1
 99 710 l 1,6,-1
 235 0 l 1,0,-1
EndSplineSet
EndChar

StartChar: W
Encoding: 87 87 58
Width: 989
GlyphClass: 1
Flags: W
LayerCount: 2
Fore
SplineSet
169 0 m 1,0,-1
 215 0 l 1,1,-1
 558 640 l 1,2,-1
 636 0 l 1,3,-1
 682 0 l 1,4,-1
 1050 710 l 1,5,-1
 1001 710 l 1,6,-1
 669 61 l 1,7,-1
 596 710 l 1,8,-1
 549 710 l 1,9,-1
 208 61 l 1,10,-1
 151 710 l 1,11,-1
 104 710 l 1,12,-1
 169 0 l 1,0,-1
EndSplineSet
Substitution2: "'ss09' Style Set 9 lookup 40 subtable" W.ss09
Substitution2: "'aalt' Access All Alternates lookup 0 subtable" W.ss09
EndChar

StartChar: X
Encoding: 88 88 59
Width: 595
GlyphClass: 1
Flags: W
LayerCount: 2
Fore
SplineSet
-49 0 m 1,0,-1
 2 0 l 1,1,-1
 302 318 l 1,2,-1
 466 0 l 1,3,-1
 516 0 l 1,4,-1
 333 350 l 1,5,-1
 675 710 l 1,6,-1
 625 710 l 1,7,-1
 315 382 l 1,8,-1
 145 710 l 1,9,-1
 94 710 l 1,10,-1
 284 350 l 1,11,-1
 -49 0 l 1,0,-1
EndSplineSet
EndChar

StartChar: Y
Encoding: 89 89 60
Width: 600
GlyphClass: 1
Flags: W
LayerCount: 2
Fore
SplineSet
209 0 m 1,0,-1
 253 0 l 1,1,-1
 310 270 l 1,2,-1
 672 710 l 1,3,-1
 624 710 l 1,4,-1
 298 312 l 1,5,-1
 143 710 l 1,6,-1
 94 710 l 1,7,-1
 267 272 l 1,8,-1
 209 0 l 1,0,-1
EndSplineSet
EndChar

StartChar: Z
Encoding: 90 90 61
Width: 591
GlyphClass: 1
Flags: W
LayerCount: 2
Fore
SplineSet
-38 0 m 1,0,-1
 497 0 l 1,1,-1
 505 40 l 1,2,-1
 25 40 l 1,3,-1
 642 673 l 1,4,-1
 651 710 l 1,5,-1
 119 710 l 1,6,-1
 110 670 l 1,7,-1
 590 670 l 1,8,-1
 -30 37 l 1,9,-1
 -38 0 l 1,0,-1
EndSplineSet
EndChar

StartChar: bracketleft
Encoding: 91 91 62
Width: 232
GlyphClass: 1
Flags: W
LayerCount: 2
Fore
SplineSet
110 -40 m 1,0,-1
 118 -3 l 1,1,-1
 67 -3 l 1,2,-1
 217 703 l 1,3,-1
 267 703 l 1,4,-1
 275 740 l 1,5,-1
 185 740 l 1,6,-1
 19 -40 l 1,7,-1
 110 -40 l 1,0,-1
EndSplineSet
EndChar

StartChar: backslash
Encoding: 92 92 63
Width: 505
GlyphClass: 1
Flags: W
LayerCount: 2
Fore
SplineSet
105 710 m 1,0,-1
 368 0 l 1,1,-1
 418 0 l 1,2,-1
 156 710 l 1,3,-1
 105 710 l 1,0,-1
EndSplineSet
EndChar

StartChar: bracketright
Encoding: 93 93 64
Width: 232
GlyphClass: 1
Flags: W
LayerCount: 2
Fore
SplineSet
69 -40 m 1,0,-1
 234 740 l 1,1,-1
 144 740 l 1,2,-1
 136 703 l 1,3,-1
 186 703 l 1,4,-1
 36 -3 l 1,5,-1
 -15 -3 l 1,6,-1
 -22 -40 l 1,7,-1
 69 -40 l 1,0,-1
EndSplineSet
EndChar

StartChar: asciicircum
Encoding: 94 94 65
Width: 522
GlyphClass: 1
Flags: W
LayerCount: 2
Fore
SplineSet
92 303 m 1,0,-1
 270 664 l 1,1,-1
 445 303 l 1,2,-1
 485 303 l 1,3,-1
 288 710 l 1,4,-1
 252 710 l 1,5,-1
 54 303 l 1,6,-1
 92 303 l 1,0,-1
EndSplineSet
EndChar

StartChar: underscore
Encoding: 95 95 66
Width: 503
GlyphClass: 1
Flags: W
LayerCount: 2
Fore
SplineSet
361 -40 m 1,0,-1
 369 0 l 1,1,-1
 1 0 l 1,2,-1
 -7 -40 l 1,3,-1
 361 -40 l 1,0,-1
EndSplineSet
EndChar

StartChar: a
Encoding: 97 97 68
Width: 587
GlyphClass: 1
Flags: W
LayerCount: 2
Fore
SplineSet
212 -10 m 0,0,1
 274 -10 274 -10 330.5 24 c 128,-1,2
 387 58 387 58 428 112 c 1,3,-1
 404 0 l 1,4,-1
 446 0 l 1,5,-1
 556 517 l 1,6,-1
 514 517 l 1,7,-1
 490 404 l 1,8,9
 473 458 473 458 430.5 493 c 128,-1,10
 388 528 388 528 323 528 c 0,11,12
 268 528 268 528 215 501.5 c 128,-1,13
 162 475 162 475 120.5 431 c 128,-1,14
 79 387 79 387 53 328.5 c 128,-1,15
 27 270 27 270 27 207 c 0,16,17
 27 165 27 165 39.5 125.5 c 128,-1,18
 52 86 52 86 75.5 55.5 c 128,-1,19
 99 25 99 25 133.5 7.5 c 128,-1,20
 168 -10 168 -10 212 -10 c 0,0,1
227 29 m 0,21,22
 191 29 191 29 162 43.5 c 128,-1,23
 133 58 133 58 113 83.5 c 128,-1,24
 93 109 93 109 82.5 142.5 c 128,-1,25
 72 176 72 176 72 213 c 0,26,27
 72 261 72 261 92 310.5 c 128,-1,28
 112 360 112 360 146.5 400 c 128,-1,29
 181 440 181 440 227 465 c 128,-1,30
 273 490 273 490 324 490 c 0,31,32
 355 490 355 490 381 478.5 c 128,-1,33
 407 467 407 467 427 447.5 c 128,-1,34
 447 428 447 428 459.5 401.5 c 128,-1,35
 472 375 472 375 477 344 c 1,36,-1
 440 172 l 1,37,38
 423 142 423 142 400 116 c 128,-1,39
 377 90 377 90 349.5 70.5 c 128,-1,40
 322 51 322 51 291 40 c 128,-1,41
 260 29 260 29 227 29 c 0,21,22
EndSplineSet
Substitution2: "Single Substitution lookup 46 subtable" ordfeminine
Substitution2: "'ss02' Style Set 2 lookup 33 subtable" a.ss02
Substitution2: "'ss01' Style Set 1 lookup 32 subtable" a.ss01
Substitution2: "'salt' Stylistic Alternatives lookup 31 subtable" a.ss01
AlternateSubs2: "'aalt' Access All Alternates lookup 1 subtable" ordfeminine a.ss01 a.ss02
EndChar

StartChar: b
Encoding: 98 98 69
Width: 584
GlyphClass: 1
Flags: W
LayerCount: 2
Fore
SplineSet
242 -10 m 0,0,1
 298 -10 298 -10 351.5 17 c 128,-1,2
 405 44 405 44 446.5 89 c 128,-1,3
 488 134 488 134 513.5 192.5 c 128,-1,4
 539 251 539 251 539 315 c 0,5,6
 539 355 539 355 528 393.5 c 128,-1,7
 517 432 517 432 495 461.5 c 128,-1,8
 473 491 473 491 439.5 509.5 c 128,-1,9
 406 528 406 528 361 528 c 0,10,11
 299 528 299 528 244 494 c 128,-1,12
 189 460 189 460 142 405 c 1,13,-1
 211 730 l 1,14,-1
 168 730 l 1,15,-1
 13 0 l 1,16,-1
 52 0 l 1,17,-1
 75 105 l 1,18,19
 83 81 83 81 98.5 60.5 c 128,-1,20
 114 40 114 40 135 24 c 128,-1,21
 156 8 156 8 182.5 -1 c 128,-1,22
 209 -10 209 -10 242 -10 c 0,0,1
242 29 m 0,23,24
 213 29 213 29 186.5 38 c 128,-1,25
 160 47 160 47 139.5 63.5 c 128,-1,26
 119 80 119 80 106 103.5 c 128,-1,27
 93 127 93 127 89 155 c 1,28,-1
 131 355 l 1,29,30
 152 382 152 382 176 406.5 c 128,-1,31
 200 431 200 431 226.5 449.5 c 128,-1,32
 253 468 253 468 282 479 c 128,-1,33
 311 490 311 490 343 490 c 0,34,35
 379 490 379 490 407.5 474.5 c 128,-1,36
 436 459 436 459 455 434 c 128,-1,37
 474 409 474 409 484 376.5 c 128,-1,38
 494 344 494 344 494 309 c 0,39,40
 494 256 494 256 473 205.5 c 128,-1,41
 452 155 452 155 417 116 c 128,-1,42
 382 77 382 77 336 53 c 128,-1,43
 290 29 290 29 242 29 c 0,23,24
EndSplineSet
EndChar

StartChar: c
Encoding: 99 99 70
Width: 520
GlyphClass: 1
Flags: W
LayerCount: 2
Fore
SplineSet
222 -10 m 0,0,1
 255 -10 255 -10 288.5 -0.5 c 128,-1,2
 322 9 322 9 352 26 c 128,-1,3
 382 43 382 43 406.5 66 c 128,-1,4
 431 89 431 89 446 116 c 1,5,-1
 406 128 l 1,6,7
 397 109 397 109 377 90.5 c 128,-1,8
 357 72 357 72 332.5 58.5 c 128,-1,9
 308 45 308 45 280.5 37 c 128,-1,10
 253 29 253 29 226 29 c 0,11,12
 192 29 192 29 163.5 43.5 c 128,-1,13
 135 58 135 58 114.5 83 c 128,-1,14
 94 108 94 108 83 142.5 c 128,-1,15
 72 177 72 177 72 217 c 0,16,17
 72 272 72 272 93.5 322 c 128,-1,18
 115 372 115 372 151.5 409 c 128,-1,19
 188 446 188 446 234.5 468 c 128,-1,20
 281 490 281 490 331 490 c 0,21,22
 378 490 378 490 411.5 465 c 128,-1,23
 445 440 445 440 458 395 c 1,24,-1
 503 409 l 1,25,26
 488 465 488 465 444.5 496.5 c 128,-1,27
 401 528 401 528 334 528 c 0,28,29
 273 528 273 528 217.5 502.5 c 128,-1,30
 162 477 162 477 119.5 433.5 c 128,-1,31
 77 390 77 390 52.5 332.5 c 128,-1,32
 28 275 28 275 28 210 c 0,33,34
 28 164 28 164 41.5 124 c 128,-1,35
 55 84 55 84 80.5 54 c 128,-1,36
 106 24 106 24 141.5 7 c 128,-1,37
 177 -10 177 -10 222 -10 c 0,0,1
EndSplineSet
EndChar

StartChar: d
Encoding: 100 100 71
Width: 585
GlyphClass: 1
Flags: W
LayerCount: 2
Fore
SplineSet
215 -10 m 0,0,1
 242 -10 242 -10 270.5 -2 c 128,-1,2
 299 6 299 6 326 21 c 128,-1,3
 353 36 353 36 378 57 c 128,-1,4
 403 78 403 78 423 103 c 1,5,-1
 401 0 l 1,6,-1
 444 0 l 1,7,-1
 599 730 l 1,8,-1
 556 730 l 1,9,-1
 487 405 l 1,10,11
 476 430 476 430 460.5 452.5 c 128,-1,12
 445 475 445 475 424.5 491.5 c 128,-1,13
 404 508 404 508 377.5 518 c 128,-1,14
 351 528 351 528 319 528 c 0,15,16
 262 528 262 528 209.5 501 c 128,-1,17
 157 474 157 474 117 429.5 c 128,-1,18
 77 385 77 385 52.5 328 c 128,-1,19
 28 271 28 271 28 210 c 0,20,21
 28 166 28 166 40.5 126.5 c 128,-1,22
 53 87 53 87 77 56.5 c 128,-1,23
 101 26 101 26 136 8 c 128,-1,24
 171 -10 171 -10 215 -10 c 0,0,1
230 29 m 0,25,26
 194 29 194 29 165 44 c 128,-1,27
 136 59 136 59 115 84 c 128,-1,28
 94 109 94 109 83 143.5 c 128,-1,29
 72 178 72 178 72 216 c 0,30,31
 72 264 72 264 91.5 313 c 128,-1,32
 111 362 111 362 145 401 c 128,-1,33
 179 440 179 440 224 465 c 128,-1,34
 269 490 269 490 319 490 c 0,35,36
 347 490 347 490 373.5 478.5 c 128,-1,37
 400 467 400 467 421.5 448 c 128,-1,38
 443 429 443 429 457.5 403.5 c 128,-1,39
 472 378 472 378 475 348 c 1,40,-1
 438 174 l 2,41,42
 430 144 430 144 406.5 117.5 c 128,-1,43
 383 91 383 91 352.5 71.5 c 128,-1,44
 322 52 322 52 289.5 40.5 c 128,-1,45
 257 29 257 29 230 29 c 0,25,26
EndSplineSet
Substitution2: "'ss03' Style Set 3 lookup 34 subtable" d.ss03
Substitution2: "'aalt' Access All Alternates lookup 0 subtable" d.ss03
EndChar

StartChar: e
Encoding: 101 101 72
Width: 527
GlyphClass: 1
Flags: W
LayerCount: 2
Fore
SplineSet
223 -10 m 0,0,1
 258 -10 258 -10 291.5 -0.5 c 128,-1,2
 325 9 325 9 355.5 26.5 c 128,-1,3
 386 44 386 44 411.5 68 c 128,-1,4
 437 92 437 92 454 122 c 1,5,-1
 418 133 l 1,6,7
 404 108 404 108 383 88 c 128,-1,8
 362 68 362 68 337 54.5 c 128,-1,9
 312 41 312 41 285 33 c 128,-1,10
 258 25 258 25 232 25 c 0,11,12
 192 25 192 25 162 40 c 128,-1,13
 132 55 132 55 112 80.5 c 128,-1,14
 92 106 92 106 82 139.5 c 128,-1,15
 72 173 72 173 72 211 c 0,16,17
 72 262 72 262 90.5 312 c 128,-1,18
 109 362 109 362 143 402 c 128,-1,19
 177 442 177 442 225 467.5 c 128,-1,20
 273 493 273 493 330 493 c 0,21,22
 352 493 352 493 374 487 c 128,-1,23
 396 481 396 481 414.5 468.5 c 128,-1,24
 433 456 433 456 444 436.5 c 128,-1,25
 455 417 455 417 455 391 c 0,26,27
 455 366 455 366 443 344.5 c 128,-1,28
 431 323 431 323 404.5 307.5 c 128,-1,29
 378 292 378 292 334.5 283.5 c 128,-1,30
 291 275 291 275 228 275 c 0,31,32
 195 275 195 275 158.5 276.5 c 128,-1,33
 122 278 122 278 77 281 c 1,34,-1
 55 249 l 1,35,36
 106 245 106 245 147 243.5 c 128,-1,37
 188 242 188 242 225 242 c 0,38,39
 363 242 363 242 429 279.5 c 128,-1,40
 495 317 495 317 495 390 c 0,41,42
 495 424 495 424 481 450 c 128,-1,43
 467 476 467 476 444.5 493.5 c 128,-1,44
 422 511 422 511 393.5 519.5 c 128,-1,45
 365 528 365 528 335 528 c 0,46,47
 270 528 270 528 213.5 501 c 128,-1,48
 157 474 157 474 116 429.5 c 128,-1,49
 75 385 75 385 51.5 328 c 128,-1,50
 28 271 28 271 28 210 c 0,51,52
 28 165 28 165 41.5 125 c 128,-1,53
 55 85 55 85 79.5 55 c 128,-1,54
 104 25 104 25 140 7.5 c 128,-1,55
 176 -10 176 -10 223 -10 c 0,0,1
EndSplineSet
EndChar

StartChar: f
Encoding: 102 102 73
Width: 306
GlyphClass: 1
Flags: W
LayerCount: 2
Fore
SplineSet
-13 -213 m 1,0,-1
 30 -213 l 1,1,-1
 177 484 l 1,2,-1
 319 484 l 1,3,-1
 327 520 l 1,4,-1
 186 520 l 1,5,-1
 189 539 l 2,6,7
 205 618 205 618 241 660 c 128,-1,8
 277 702 277 702 326 702 c 0,9,10
 347 702 347 702 365.5 695 c 128,-1,11
 384 688 384 688 394 677 c 1,12,-1
 418 707 l 1,13,14
 404 722 404 722 379.5 731 c 128,-1,15
 355 740 355 740 328 740 c 0,16,17
 295 740 295 740 266.5 726.5 c 128,-1,18
 238 713 238 713 214.5 687 c 128,-1,19
 191 661 191 661 173 623 c 128,-1,20
 155 585 155 585 146 538 c 2,21,-1
 143 520 l 1,22,-1
 73 520 l 1,23,-1
 65 484 l 1,24,-1
 135 484 l 1,25,-1
 -13 -213 l 1,0,-1
EndSplineSet
EndChar

StartChar: g
Encoding: 103 103 74
Width: 584
GlyphClass: 1
Flags: W
LayerCount: 2
Fore
SplineSet
165 -223 m 0,0,1
 211 -223 211 -223 255.5 -210 c 128,-1,2
 300 -197 300 -197 337.5 -170.5 c 128,-1,3
 375 -144 375 -144 401.5 -104.5 c 128,-1,4
 428 -65 428 -65 440 -13 c 2,5,-1
 553 520 l 1,6,-1
 514 520 l 1,7,-1
 490 405 l 1,8,9
 478 431 478 431 462 453.5 c 128,-1,10
 446 476 446 476 425.5 492.5 c 128,-1,11
 405 509 405 509 379 518.5 c 128,-1,12
 353 528 353 528 320 528 c 0,13,14
 262 528 262 528 209 501 c 128,-1,15
 156 474 156 474 115.5 429 c 128,-1,16
 75 384 75 384 51 326.5 c 128,-1,17
 27 269 27 269 27 210 c 0,18,19
 27 167 27 167 39.5 127.5 c 128,-1,20
 52 88 52 88 75.5 58 c 128,-1,21
 99 28 99 28 133.5 9.5 c 128,-1,22
 168 -9 168 -9 211 -9 c 0,23,24
 238 -9 238 -9 267.5 -0.5 c 128,-1,25
 297 8 297 8 324.5 23 c 128,-1,26
 352 38 352 38 377 58.5 c 128,-1,27
 402 79 402 79 422 105 c 1,28,-1
 397 -13 l 2,29,30
 387 -56 387 -56 365.5 -88.5 c 128,-1,31
 344 -121 344 -121 314 -143 c 128,-1,32
 284 -165 284 -165 247.5 -176 c 128,-1,33
 211 -187 211 -187 173 -187 c 0,34,35
 115 -187 115 -187 69.5 -162.5 c 128,-1,36
 24 -138 24 -138 6 -83 c 1,37,-1
 -27 -102 l 1,38,39
 -18 -130 -18 -130 -3 -152 c 128,-1,40
 12 -174 12 -174 35 -190 c 128,-1,41
 58 -206 58 -206 90 -214.5 c 128,-1,42
 122 -223 122 -223 165 -223 c 0,0,1
229 29 m 0,43,44
 193 29 193 29 164 44 c 128,-1,45
 135 59 135 59 114 84.5 c 128,-1,46
 93 110 93 110 82 144 c 128,-1,47
 71 178 71 178 71 216 c 0,48,49
 71 262 71 262 90 310.5 c 128,-1,50
 109 359 109 359 142.5 399 c 128,-1,51
 176 439 176 439 221 464.5 c 128,-1,52
 266 490 266 490 318 490 c 0,53,54
 348 490 348 490 374 479 c 128,-1,55
 400 468 400 468 421 449.5 c 128,-1,56
 442 431 442 431 456 405 c 128,-1,57
 470 379 470 379 474 348 c 1,58,-1
 437 174 l 2,59,60
 428 148 428 148 406.5 122 c 128,-1,61
 385 96 385 96 356 75.5 c 128,-1,62
 327 55 327 55 294 42 c 128,-1,63
 261 29 261 29 229 29 c 0,43,44
EndSplineSet
EndChar

StartChar: h
Encoding: 104 104 75
Width: 549
GlyphClass: 1
Flags: W
LayerCount: 2
Fore
SplineSet
13 0 m 1,0,-1
 56 0 l 1,1,-1
 125 324 l 1,2,3
 141 359 141 359 167 389 c 128,-1,4
 193 419 193 419 223 441 c 128,-1,5
 253 463 253 463 286 476 c 128,-1,6
 319 489 319 489 349 489 c 0,7,8
 396 489 396 489 419.5 460.5 c 128,-1,9
 443 432 443 432 443 376 c 0,10,11
 443 358 443 358 440 336.5 c 128,-1,12
 437 315 437 315 432 290 c 2,13,-1
 371 0 l 1,14,-1
 414 0 l 1,15,-1
 476 297 l 2,16,17
 482 323 482 323 485 347.5 c 128,-1,18
 488 372 488 372 488 392 c 0,19,20
 488 425 488 425 480.5 450.5 c 128,-1,21
 473 476 473 476 458.5 493 c 128,-1,22
 444 510 444 510 421.5 519 c 128,-1,23
 399 528 399 528 369 528 c 0,24,25
 338 528 338 528 306.5 518.5 c 128,-1,26
 275 509 275 509 245 491.5 c 128,-1,27
 215 474 215 474 188 449 c 128,-1,28
 161 424 161 424 139 393 c 1,29,-1
 211 730 l 1,30,-1
 168 730 l 1,31,-1
 13 0 l 1,0,-1
EndSplineSet
EndChar

StartChar: k
Encoding: 107 107 78
Width: 528
GlyphClass: 1
Flags: W
LayerCount: 2
Fore
SplineSet
376 0 m 1,0,-1
 423 0 l 1,1,-1
 305 234 l 1,2,3
 403 259 403 259 457.5 310 c 128,-1,4
 512 361 512 361 512 426 c 0,5,6
 512 475 512 475 481.5 503 c 128,-1,7
 451 531 451 531 393 531 c 0,8,9
 356 531 356 531 320 518 c 128,-1,10
 284 505 284 505 249.5 480.5 c 128,-1,11
 215 456 215 456 182 419.5 c 128,-1,12
 149 383 149 383 119 338 c 1,13,-1
 101 263 l 1,14,15
 134 319 134 319 169.5 362 c 128,-1,16
 205 405 205 405 241 434.5 c 128,-1,17
 277 464 277 464 313 479 c 128,-1,18
 349 494 349 494 383 494 c 0,19,20
 424 494 424 494 447 475.5 c 128,-1,21
 470 457 470 457 470 420 c 0,22,23
 470 364 470 364 414.5 320.5 c 128,-1,24
 359 277 359 277 252 255 c 1,25,-1
 376 0 l 1,0,-1
13 0 m 1,26,-1
 56 0 l 1,27,-1
 211 730 l 1,28,-1
 168 730 l 1,29,-1
 13 0 l 1,26,-1
EndSplineSet
EndChar

StartChar: l
Encoding: 108 108 79
Width: 243
GlyphClass: 1
Flags: W
LayerCount: 2
Fore
SplineSet
101 -6 m 0,0,1
 118 -6 118 -6 142 -1.5 c 128,-1,2
 166 3 166 3 183 9 c 1,3,-1
 182 44 l 1,4,5
 168 39 168 39 153 36.5 c 128,-1,6
 138 34 138 34 127 34 c 0,7,8
 103 34 103 34 90.5 45.5 c 128,-1,9
 78 57 78 57 78 79 c 0,10,11
 78 84 78 84 78.5 87.5 c 128,-1,12
 79 91 79 91 80 96 c 2,13,-1
 214 730 l 1,14,-1
 172 730 l 1,15,-1
 35 86 l 2,16,17
 33 79 33 79 32.5 73 c 128,-1,18
 32 67 32 67 32 61 c 0,19,20
 32 30 32 30 50.5 12 c 128,-1,21
 69 -6 69 -6 101 -6 c 0,0,1
EndSplineSet
Substitution2: "'ss05' Style Set 5 lookup 36 subtable" l.ss05
Substitution2: "'aalt' Access All Alternates lookup 0 subtable" l.ss05
EndChar

StartChar: m
Encoding: 109 109 80
Width: 872
GlyphClass: 1
Flags: W
LayerCount: 2
Fore
SplineSet
13 0 m 1,0,-1
 56 0 l 1,1,-1
 125 324 l 1,2,3
 142 361 142 361 166 391 c 128,-1,4
 190 421 190 421 218 443 c 128,-1,5
 246 465 246 465 276.5 477 c 128,-1,6
 307 489 307 489 338 489 c 0,7,8
 383 489 383 489 404.5 463.5 c 128,-1,9
 426 438 426 438 426 384 c 0,10,11
 426 365 426 365 423.5 341.5 c 128,-1,12
 421 318 421 318 415 290 c 2,13,-1
 353 0 l 1,14,-1
 396 0 l 1,15,-1
 464 323 l 1,16,17
 482 359 482 359 505.5 389.5 c 128,-1,18
 529 420 529 420 556.5 442.5 c 128,-1,19
 584 465 584 465 615 477 c 128,-1,20
 646 489 646 489 677 489 c 0,21,22
 722 489 722 489 744 463 c 128,-1,23
 766 437 766 437 766 382 c 0,24,25
 766 362 766 362 763.5 339 c 128,-1,26
 761 316 761 316 755 290 c 2,27,-1
 694 0 l 1,28,-1
 736 0 l 1,29,-1
 799 297 l 2,30,31
 806 326 806 326 809 351.5 c 128,-1,32
 812 377 812 377 812 399 c 0,33,34
 812 430 812 430 805 454 c 128,-1,35
 798 478 798 478 784 495 c 128,-1,36
 770 512 770 512 749 520 c 128,-1,37
 728 528 728 528 698 528 c 0,38,39
 666 528 666 528 634.5 519 c 128,-1,40
 603 510 603 510 574 491 c 128,-1,41
 545 472 545 472 519 444.5 c 128,-1,42
 493 417 493 417 472 381 c 1,43,44
 474 416 474 416 467 443.5 c 128,-1,45
 460 471 460 471 445 490 c 128,-1,46
 430 509 430 509 407 518.5 c 128,-1,47
 384 528 384 528 354 528 c 0,48,49
 295 528 295 528 238 492.5 c 128,-1,50
 181 457 181 457 137 393 c 1,51,-1
 163 520 l 1,52,-1
 123 520 l 1,53,-1
 13 0 l 1,0,-1
EndSplineSet
EndChar

StartChar: n
Encoding: 110 110 81
Width: 549
GlyphClass: 1
Flags: W
LayerCount: 2
Fore
SplineSet
13 0 m 1,0,-1
 56 0 l 1,1,-1
 125 324 l 1,2,3
 142 359 142 359 168.5 389.5 c 128,-1,4
 195 420 195 420 226.5 442 c 128,-1,5
 258 464 258 464 292.5 476.5 c 128,-1,6
 327 489 327 489 358 489 c 0,7,8
 402 489 402 489 423 464 c 128,-1,9
 444 439 444 439 444 386 c 0,10,11
 444 366 444 366 441.5 342.5 c 128,-1,12
 439 319 439 319 432 290 c 2,13,-1
 371 0 l 1,14,-1
 414 0 l 1,15,-1
 476 297 l 2,16,17
 483 327 483 327 486.5 353.5 c 128,-1,18
 490 380 490 380 490 403 c 0,19,20
 490 434 490 434 483 457.5 c 128,-1,21
 476 481 476 481 462.5 496.5 c 128,-1,22
 449 512 449 512 428.5 520 c 128,-1,23
 408 528 408 528 378 528 c 0,24,25
 345 528 345 528 311.5 518.5 c 128,-1,26
 278 509 278 509 246 491 c 128,-1,27
 214 473 214 473 186 448.5 c 128,-1,28
 158 424 158 424 137 393 c 1,29,-1
 163 520 l 1,30,-1
 123 520 l 1,31,-1
 13 0 l 1,0,-1
EndSplineSet
EndChar

StartChar: o
Encoding: 111 111 82
Width: 567
GlyphClass: 1
Flags: W
LayerCount: 2
Fore
SplineSet
222 -10 m 0,0,1
 282 -10 282 -10 336.5 15 c 128,-1,2
 391 40 391 40 432 83.5 c 128,-1,3
 473 127 473 127 497.5 185.5 c 128,-1,4
 522 244 522 244 522 310 c 0,5,6
 522 355 522 355 509.5 395 c 128,-1,7
 497 435 497 435 472.5 464.5 c 128,-1,8
 448 494 448 494 412 511 c 128,-1,9
 376 528 376 528 327 528 c 0,10,11
 268 528 268 528 214 503 c 128,-1,12
 160 478 160 478 118.5 434.5 c 128,-1,13
 77 391 77 391 52 332.5 c 128,-1,14
 27 274 27 274 27 207 c 0,15,16
 27 162 27 162 39 123 c 128,-1,17
 51 84 51 84 75.5 54 c 128,-1,18
 100 24 100 24 136.5 7 c 128,-1,19
 173 -10 173 -10 222 -10 c 0,0,1
229 29 m 0,20,21
 190 29 190 29 160 43 c 128,-1,22
 130 57 130 57 110.5 82 c 128,-1,23
 91 107 91 107 81 140.5 c 128,-1,24
 71 174 71 174 71 213 c 0,25,26
 71 271 71 271 92 321.5 c 128,-1,27
 113 372 113 372 148 409.5 c 128,-1,28
 183 447 183 447 227.5 468.5 c 128,-1,29
 272 490 272 490 319 490 c 0,30,31
 359 490 359 490 388.5 475 c 128,-1,32
 418 460 418 460 438 435 c 128,-1,33
 458 410 458 410 468 376 c 128,-1,34
 478 342 478 342 478 303 c 0,35,36
 478 245 478 245 457 195 c 128,-1,37
 436 145 436 145 401.5 108 c 128,-1,38
 367 71 367 71 322 50 c 128,-1,39
 277 29 277 29 229 29 c 0,20,21
EndSplineSet
Substitution2: "Single Substitution lookup 46 subtable" ordmasculine
Substitution2: "'aalt' Access All Alternates lookup 0 subtable" ordmasculine
EndChar

StartChar: p
Encoding: 112 112 83
Width: 585
GlyphClass: 1
Flags: W
LayerCount: 2
Fore
SplineSet
-32 -213 m 1,0,-1
 11 -213 l 1,1,-1
 80 114 l 1,2,3
 90 88 90 88 105.5 65.5 c 128,-1,4
 121 43 121 43 142 26.5 c 128,-1,5
 163 10 163 10 189.5 0 c 128,-1,6
 216 -10 216 -10 248 -10 c 0,7,8
 308 -10 308 -10 360.5 17.5 c 128,-1,9
 413 45 413 45 453 89.5 c 128,-1,10
 493 134 493 134 516 191 c 128,-1,11
 539 248 539 248 539 308 c 0,12,13
 539 351 539 351 526.5 391 c 128,-1,14
 514 431 514 431 490 461.5 c 128,-1,15
 466 492 466 492 431.5 510 c 128,-1,16
 397 528 397 528 353 528 c 0,17,18
 325 528 325 528 296 520 c 128,-1,19
 267 512 267 512 239 496.5 c 128,-1,20
 211 481 211 481 186 460 c 128,-1,21
 161 439 161 439 140 414 c 1,22,-1
 163 520 l 1,23,-1
 124 520 l 1,24,-1
 -32 -213 l 1,0,-1
247 29 m 0,25,26
 217 29 217 29 191 40 c 128,-1,27
 165 51 165 51 145.5 70 c 128,-1,28
 126 89 126 89 112 115 c 128,-1,29
 98 141 98 141 92 170 c 1,30,-1
 129 345 l 2,31,32
 138 373 138 373 162 399.5 c 128,-1,33
 186 426 186 426 216 446 c 128,-1,34
 246 466 246 466 278.5 478 c 128,-1,35
 311 490 311 490 337 490 c 0,36,37
 373 490 373 490 402 474.5 c 128,-1,38
 431 459 431 459 452 433.5 c 128,-1,39
 473 408 473 408 484 374 c 128,-1,40
 495 340 495 340 495 302 c 0,41,42
 495 254 495 254 475.5 205 c 128,-1,43
 456 156 456 156 422 117 c 128,-1,44
 388 78 388 78 343 53.5 c 128,-1,45
 298 29 298 29 247 29 c 0,25,26
EndSplineSet
EndChar

StartChar: q
Encoding: 113 113 84
Width: 584
GlyphClass: 1
Flags: W
LayerCount: 2
Fore
SplineSet
355 -213 m 1,0,-1
 398 -213 l 1,1,-1
 553 520 l 1,2,-1
 514 520 l 1,3,-1
 491 414 l 1,4,5
 482 438 482 438 466.5 459 c 128,-1,6
 451 480 451 480 429.5 495.5 c 128,-1,7
 408 511 408 511 382.5 519.5 c 128,-1,8
 357 528 357 528 328 528 c 0,9,10
 271 528 271 528 217 501.5 c 128,-1,11
 163 475 163 475 120.5 430 c 128,-1,12
 78 385 78 385 52.5 326.5 c 128,-1,13
 27 268 27 268 27 204 c 0,14,15
 27 162 27 162 38.5 123 c 128,-1,16
 50 84 50 84 72 54.5 c 128,-1,17
 94 25 94 25 127 7.5 c 128,-1,18
 160 -10 160 -10 203 -10 c 0,19,20
 261 -10 261 -10 316.5 21.5 c 128,-1,21
 372 53 372 53 424 114 c 1,22,-1
 355 -213 l 1,0,-1
221 29 m 0,23,24
 186 29 186 29 158 43.5 c 128,-1,25
 130 58 130 58 110.5 83 c 128,-1,26
 91 108 91 108 81 141 c 128,-1,27
 71 174 71 174 71 211 c 0,28,29
 71 262 71 262 92 312 c 128,-1,30
 113 362 113 362 148.5 401.5 c 128,-1,31
 184 441 184 441 230 465.5 c 128,-1,32
 276 490 276 490 326 490 c 0,33,34
 358 490 358 490 384.5 478.5 c 128,-1,35
 411 467 411 467 430.5 448 c 128,-1,36
 450 429 450 429 462 404 c 128,-1,37
 474 379 474 379 476 353 c 1,38,-1
 435 167 l 1,39,40
 416 139 416 139 392 114 c 128,-1,41
 368 89 368 89 341 70 c 128,-1,42
 314 51 314 51 283.5 40 c 128,-1,43
 253 29 253 29 221 29 c 0,23,24
EndSplineSet
Substitution2: "'ss06' Style Set 6 lookup 37 subtable" q.ss06
Substitution2: "'aalt' Access All Alternates lookup 0 subtable" q.ss06
EndChar

StartChar: r
Encoding: 114 114 85
Width: 329
GlyphClass: 1
Flags: W
LayerCount: 2
Fore
SplineSet
13 0 m 1,0,-1
 56 0 l 1,1,-1
 125 326 l 1,2,3
 160 397 160 397 218.5 437.5 c 128,-1,4
 277 478 277 478 345 481 c 1,5,-1
 353 520 l 1,6,7
 348 520 348 520 343 520 c 128,-1,8
 338 520 338 520 332 520 c 0,9,10
 280 516 280 516 228.5 482.5 c 128,-1,11
 177 449 177 449 137 390 c 1,12,-1
 164 520 l 1,13,-1
 123 520 l 1,14,-1
 13 0 l 1,0,-1
EndSplineSet
EndChar

StartChar: s
Encoding: 115 115 86
Width: 458
GlyphClass: 1
Flags: W
LayerCount: 2
Fore
SplineSet
166 -10 m 0,0,1
 215 -10 215 -10 256 2 c 128,-1,2
 297 14 297 14 326.5 36 c 128,-1,3
 356 58 356 58 372.5 90 c 128,-1,4
 389 122 389 122 389 162 c 0,5,6
 389 190 389 190 377.5 208.5 c 128,-1,7
 366 227 366 227 345 240.5 c 128,-1,8
 324 254 324 254 293 264 c 128,-1,9
 262 274 262 274 224 284 c 0,10,11
 195 292 195 292 173.5 299 c 128,-1,12
 152 306 152 306 138 314.5 c 128,-1,13
 124 323 124 323 117.5 335 c 128,-1,14
 111 347 111 347 111 365 c 0,15,16
 111 398 111 398 125.5 422.5 c 128,-1,17
 140 447 140 447 163.5 462.5 c 128,-1,18
 187 478 187 478 216.5 485.5 c 128,-1,19
 246 493 246 493 276 493 c 0,20,21
 322 493 322 493 357 478 c 128,-1,22
 392 463 392 463 408 432 c 1,23,-1
 438 455 l 1,24,25
 422 487 422 487 382 507.5 c 128,-1,26
 342 528 342 528 283 528 c 0,27,28
 239 528 239 528 200 517 c 128,-1,29
 161 506 161 506 131.5 484 c 128,-1,30
 102 462 102 462 85 429.5 c 128,-1,31
 68 397 68 397 68 354 c 0,32,33
 68 330 68 330 77 313.5 c 128,-1,34
 86 297 86 297 103.5 286 c 128,-1,35
 121 275 121 275 147 266.5 c 128,-1,36
 173 258 173 258 207 249 c 0,37,38
 240 240 240 240 266 231.5 c 128,-1,39
 292 223 292 223 309.5 213 c 128,-1,40
 327 203 327 203 336 189 c 128,-1,41
 345 175 345 175 345 154 c 0,42,43
 345 125 345 125 332 101 c 128,-1,44
 319 77 319 77 295.5 60.5 c 128,-1,45
 272 44 272 44 240.5 35 c 128,-1,46
 209 26 209 26 172 26 c 0,47,48
 121 26 121 26 82.5 44 c 128,-1,49
 44 62 44 62 12 100 c 1,50,-1
 -16 71 l 1,51,52
 14 30 14 30 60.5 10 c 128,-1,53
 107 -10 107 -10 166 -10 c 0,0,1
EndSplineSet
EndChar

StartChar: t
Encoding: 116 116 87
Width: 300
GlyphClass: 1
Flags: W
LayerCount: 2
Fore
SplineSet
48 63 m 0,0,1
 48 31 48 31 70.5 12.5 c 128,-1,2
 93 -6 93 -6 127 -6 c 0,3,4
 147 -6 147 -6 164.5 -2 c 128,-1,5
 182 2 182 2 196.5 7 c 128,-1,6
 211 12 211 12 221 17.5 c 128,-1,7
 231 23 231 23 234 25 c 2,8,-1
 228 59 l 1,9,10
 226 57 226 57 218 53 c 128,-1,11
 210 49 210 49 199 45 c 128,-1,12
 188 41 188 41 174 38 c 128,-1,13
 160 35 160 35 145 35 c 0,14,15
 124 35 124 35 109 46.5 c 128,-1,16
 94 58 94 58 94 82 c 0,17,18
 94 88 94 88 95.5 97.5 c 128,-1,19
 97 107 97 107 102 127 c 2,20,-1
 178 484 l 1,21,-1
 294 484 l 1,22,-1
 302 520 l 1,23,-1
 186 520 l 1,24,-1
 224 699 l 1,25,-1
 181 699 l 1,26,-1
 143 520 l 1,27,-1
 73 520 l 1,28,-1
 65 484 l 1,29,-1
 135 484 l 1,30,-1
 50 84 l 2,31,32
 49 78 49 78 48.5 73 c 128,-1,33
 48 68 48 68 48 63 c 0,0,1
EndSplineSet
Substitution2: "'ss07' Style Set 7 lookup 38 subtable" t.ss07
Substitution2: "'aalt' Access All Alternates lookup 0 subtable" t.ss07
EndChar

StartChar: u
Encoding: 117 117 88
Width: 556
GlyphClass: 1
Flags: W
LayerCount: 2
Fore
SplineSet
168 -10 m 0,0,1
 199 -10 199 -10 231 -0.5 c 128,-1,2
 263 9 263 9 294 26.5 c 128,-1,3
 325 44 325 44 352 69 c 128,-1,4
 379 94 379 94 400 124 c 1,5,-1
 374 0 l 1,6,-1
 415 0 l 1,7,-1
 526 520 l 1,8,-1
 484 520 l 1,9,-1
 413 191 l 1,10,11
 397 159 397 159 372 129.5 c 128,-1,12
 347 100 347 100 317 77.5 c 128,-1,13
 287 55 287 55 253.5 42 c 128,-1,14
 220 29 220 29 186 29 c 0,15,16
 130 29 130 29 108.5 59 c 128,-1,17
 87 89 87 89 87 137 c 0,18,19
 87 158 87 158 90 180.5 c 128,-1,20
 93 203 93 203 98 227 c 2,21,-1
 161 520 l 1,22,-1
 118 520 l 1,23,-1
 55 222 l 2,24,25
 49 197 49 197 45.5 172 c 128,-1,26
 42 147 42 147 42 123 c 0,27,28
 42 95 42 95 48.5 70.5 c 128,-1,29
 55 46 55 46 69 28 c 128,-1,30
 83 10 83 10 107.5 0 c 128,-1,31
 132 -10 132 -10 168 -10 c 0,0,1
EndSplineSet
Substitution2: "'ss08' Style Set 8 lookup 39 subtable" u.ss08
Substitution2: "'aalt' Access All Alternates lookup 0 subtable" u.ss08
EndChar

StartChar: v
Encoding: 118 118 89
Width: 470
GlyphClass: 1
Flags: W
LayerCount: 2
Fore
SplineSet
144 0 m 1,0,-1
 195 0 l 1,1,-1
 480 520 l 1,2,-1
 432 520 l 1,3,-1
 177 44 l 1,4,-1
 106 520 l 1,5,-1
 61 520 l 1,6,-1
 144 0 l 1,0,-1
EndSplineSet
EndChar

StartChar: w
Encoding: 119 119 90
Width: 772
GlyphClass: 1
Flags: W
LayerCount: 2
Fore
SplineSet
67 520 m 1,0,-1
 132 0 l 1,1,-1
 176 0 l 1,2,-1
 417 458 l 1,3,-1
 462 0 l 1,4,-1
 506 0 l 1,5,-1
 792 520 l 1,6,-1
 747 520 l 1,7,-1
 495 56 l 1,8,-1
 451 520 l 1,9,-1
 408 520 l 1,10,-1
 167 56 l 1,11,-1
 113 520 l 1,12,-1
 67 520 l 1,0,-1
EndSplineSet
Substitution2: "'ss09' Style Set 9 lookup 40 subtable" w.ss09
Substitution2: "'aalt' Access All Alternates lookup 0 subtable" w.ss09
EndChar

StartChar: x
Encoding: 120 120 91
Width: 468
GlyphClass: 1
Flags: W
LayerCount: 2
Fore
SplineSet
-47 0 m 1,0,-1
 2 0 l 1,1,-1
 209 220 l 1,2,-1
 219 231 l 1,3,-1
 224 218 l 1,4,-1
 339 0 l 1,5,-1
 387 0 l 1,6,-1
 250 259 l 1,7,-1
 499 520 l 1,8,-1
 450 520 l 1,9,-1
 240 297 l 1,10,-1
 231 287 l 1,11,-1
 226 300 l 1,12,-1
 111 520 l 1,13,-1
 63 520 l 1,14,-1
 200 259 l 1,15,-1
 -47 0 l 1,0,-1
EndSplineSet
EndChar

StartChar: y
Encoding: 121 121 92
Width: 497
GlyphClass: 1
Flags: W
LayerCount: 2
Fore
SplineSet
166 0 m 1,0,1
 151 -24 151 -24 135.5 -50 c 128,-1,2
 120 -76 120 -76 103.5 -103.5 c 128,-1,3
 87 -131 87 -131 70.5 -158.5 c 128,-1,4
 54 -186 54 -186 38 -213 c 1,5,-1
 83 -213 l 1,6,-1
 529 520 l 1,7,-1
 487 520 l 1,8,-1
 198 43 l 1,9,-1
 99 520 l 1,10,-1
 55 520 l 1,11,-1
 166 0 l 1,0,1
EndSplineSet
Substitution2: "'ss10' Style Set 10 lookup 41 subtable" y.ss10
Substitution2: "'aalt' Access All Alternates lookup 0 subtable" y.ss10
EndChar

StartChar: z
Encoding: 122 122 93
Width: 461
GlyphClass: 1
Flags: W
LayerCount: 2
Fore
SplineSet
-36 0 m 1,0,-1
 364 0 l 1,1,-1
 372 35 l 1,2,-1
 22 35 l 1,3,-1
 470 488 l 1,4,-1
 477 520 l 1,5,-1
 81 520 l 1,6,-1
 74 485 l 1,7,-1
 420 485 l 1,8,-1
 -29 32 l 1,9,-1
 -36 0 l 1,0,-1
EndSplineSet
EndChar

StartChar: braceleft
Encoding: 123 123 94
Width: 233
GlyphClass: 1
Flags: W
LayerCount: 2
Fore
SplineSet
270 703 m 1,0,-1
 278 740 l 1,1,-1
 207 740 l 2,2,3
 202 740 202 740 192.5 735 c 128,-1,4
 183 730 183 730 179 710 c 2,5,-1
 119 427 l 2,6,7
 118 423 118 423 115 414.5 c 128,-1,8
 112 406 112 406 106.5 398 c 128,-1,9
 101 390 101 390 93.5 384 c 128,-1,10
 86 378 86 378 76 378 c 1,11,-1
 69 344 l 1,12,13
 81 342 81 342 86.5 332 c 128,-1,14
 92 322 92 322 92 309 c 0,15,16
 92 304 92 304 92 300.5 c 128,-1,17
 92 297 92 297 91 293 c 2,18,-1
 28 -1 l 2,19,20
 27 -4 27 -4 27 -7 c 128,-1,21
 27 -10 27 -10 27 -12 c 0,22,23
 27 -23 27 -23 32 -27 c 128,-1,24
 37 -31 37 -31 43 -31 c 2,25,-1
 114 -31 l 1,26,-1
 122 6 l 1,27,-1
 69 6 l 1,28,-1
 132 301 l 2,29,30
 132 304 132 304 133 309 c 128,-1,31
 134 314 134 314 134 321 c 0,32,33
 134 331 134 331 131.5 341.5 c 128,-1,34
 129 352 129 352 122 360 c 1,35,36
 140 374 140 374 147.5 392.5 c 128,-1,37
 155 411 155 411 157 419 c 2,38,-1
 218 703 l 1,39,-1
 270 703 l 1,0,-1
EndSplineSet
EndChar

StartChar: bar
Encoding: 124 124 95
Width: 270
GlyphClass: 1
Flags: W
LayerCount: 2
Fore
SplineSet
159 -130 m 1,0,-1
 159 775 l 1,1,-1
 121 775 l 1,2,-1
 121 -130 l 1,3,-1
 159 -130 l 1,0,-1
EndSplineSet
EndChar

StartChar: braceright
Encoding: 125 125 96
Width: 233
GlyphClass: 1
Flags: W
LayerCount: 2
Fore
SplineSet
187 703 m 1,0,-1
 126 419 l 2,1,2
 125 416 125 416 124.5 411 c 128,-1,3
 124 406 124 406 124 399 c 0,4,5
 124 389 124 389 126.5 379 c 128,-1,6
 129 369 129 369 136 360 c 1,7,8
 119 346 119 346 111 327.5 c 128,-1,9
 103 309 103 309 101 301 c 2,10,-1
 38 6 l 1,11,-1
 -14 6 l 1,12,-1
 -22 -31 l 1,13,-1
 48 -31 l 2,14,15
 56 -31 56 -31 64.5 -24.5 c 128,-1,16
 73 -18 73 -18 77 -1 c 2,17,-1
 139 293 l 2,18,19
 143 310 143 310 154 325.5 c 128,-1,20
 165 341 165 341 183 344 c 1,21,-1
 190 378 l 1,22,23
 176 378 176 378 171 389 c 128,-1,24
 166 400 166 400 166 412 c 0,25,26
 166 416 166 416 166.5 420.5 c 128,-1,27
 167 425 167 425 168 427 c 2,28,-1
 228 710 l 2,29,30
 229 712 229 712 229 714.5 c 128,-1,31
 229 717 229 717 229 719 c 0,32,33
 229 733 229 733 222.5 736.5 c 128,-1,34
 216 740 216 740 212 740 c 2,35,-1
 142 740 l 1,36,-1
 135 703 l 1,37,-1
 187 703 l 1,0,-1
EndSplineSet
EndChar

StartChar: asciitilde
Encoding: 126 126 97
Width: 466
GlyphClass: 1
Flags: W
LayerCount: 2
Fore
SplineSet
54 246 m 1,0,-1
 84 246 l 1,1,2
 84 247 84 247 88.5 256.5 c 128,-1,3
 93 266 93 266 101.5 277 c 128,-1,4
 110 288 110 288 122.5 297 c 128,-1,5
 135 306 135 306 151 306 c 0,6,7
 168 306 168 306 184.5 296.5 c 128,-1,8
 201 287 201 287 218.5 276 c 128,-1,9
 236 265 236 265 255.5 255.5 c 128,-1,10
 275 246 275 246 299 246 c 0,11,12
 328 246 328 246 348 259 c 128,-1,13
 368 272 368 272 380.5 287.5 c 128,-1,14
 393 303 393 303 399.5 316.5 c 128,-1,15
 406 330 406 330 406 331 c 1,16,-1
 376 331 l 1,17,18
 376 329 376 329 371.5 320.5 c 128,-1,19
 367 312 367 312 357.5 302.5 c 128,-1,20
 348 293 348 293 335 285.5 c 128,-1,21
 322 278 322 278 303 278 c 0,22,23
 283 278 283 278 265.5 287.5 c 128,-1,24
 248 297 248 297 230.5 308 c 128,-1,25
 213 319 213 319 194.5 328.5 c 128,-1,26
 176 338 176 338 155 338 c 0,27,28
 130 338 130 338 111 325 c 128,-1,29
 92 312 92 312 79.5 295.5 c 128,-1,30
 67 279 67 279 60.5 264.5 c 128,-1,31
 54 250 54 250 54 246 c 1,0,-1
EndSplineSet
EndChar

StartChar: exclamdown
Encoding: 161 161 99
Width: 235
GlyphClass: 1
Flags: W
LayerCount: 2
Fore
SplineSet
228 482 m 0,0,1
 229 491 229 491 227.5 499 c 128,-1,2
 226 507 226 507 221 513 c 128,-1,3
 216 519 216 519 209 522.5 c 128,-1,4
 202 526 202 526 193 526 c 256,5,6
 184 526 184 526 175 522.5 c 128,-1,7
 166 519 166 519 159 513 c 128,-1,8
 152 507 152 507 147 499.5 c 128,-1,9
 142 492 142 492 140 482 c 0,10,11
 139 473 139 473 140.5 465.5 c 128,-1,12
 142 458 142 458 146.5 452.5 c 128,-1,13
 151 447 151 447 158 443.5 c 128,-1,14
 165 440 165 440 174 440 c 256,15,16
 183 440 183 440 191.5 443.5 c 128,-1,17
 200 447 200 447 207.5 452.5 c 128,-1,18
 215 458 215 458 220 465.5 c 128,-1,19
 225 473 225 473 228 482 c 0,0,1
128 306 m 1,20,-1
 78 86 l 1,21,-1
 18 -198 l 1,22,-1
 60 -198 l 1,23,-1
 120 86 l 1,24,-1
 164 306 l 1,25,-1
 128 306 l 1,20,-1
EndSplineSet
EndChar

StartChar: cent
Encoding: 162 162 100
Width: 531
GlyphClass: 1
Flags: W
LayerCount: 2
Fore
SplineSet
203 -120 m 1,0,-1
 226 -10 l 1,1,2
 253 -10 253 -10 284.5 -2 c 128,-1,3
 316 6 316 6 346.5 22 c 128,-1,4
 377 38 377 38 404 61.5 c 128,-1,5
 431 85 431 85 448 116 c 1,6,-1
 409 128 l 1,7,8
 399 106 399 106 378 88 c 128,-1,9
 357 70 357 70 332 57.5 c 128,-1,10
 307 45 307 45 281.5 37.5 c 128,-1,11
 256 30 256 30 235 29 c 1,12,-1
 332 489 l 1,13,14
 379 487 379 487 412.5 464.5 c 128,-1,15
 446 442 446 442 460 395 c 1,16,-1
 504 409 l 1,17,18
 490 461 490 461 451.5 493.5 c 128,-1,19
 413 526 413 526 341 528 c 1,20,-1
 365 645 l 1,21,-1
 338 645 l 1,22,-1
 313 528 l 1,23,24
 254 524 254 524 202.5 495 c 128,-1,25
 151 466 151 466 113 421.5 c 128,-1,26
 75 377 75 377 52.5 322 c 128,-1,27
 30 267 30 267 30 210 c 0,28,29
 30 170 30 170 41 132 c 128,-1,30
 52 94 52 94 74 64 c 128,-1,31
 96 34 96 34 127.5 14 c 128,-1,32
 159 -6 159 -6 199 -9 c 1,33,-1
 175 -120 l 1,34,-1
 203 -120 l 1,0,-1
74 215 m 0,35,36
 74 259 74 259 91.5 306 c 128,-1,37
 109 353 109 353 139.5 392 c 128,-1,38
 170 431 170 431 212.5 457.5 c 128,-1,39
 255 484 255 484 304 488 c 1,40,-1
 208 31 l 1,41,42
 177 35 177 35 152 51 c 128,-1,43
 127 67 127 67 109.5 92 c 128,-1,44
 92 117 92 117 83 149 c 128,-1,45
 74 181 74 181 74 215 c 0,35,36
EndSplineSet
EndChar

StartChar: sterling
Encoding: 163 163 101
Width: 461
GlyphClass: 1
Flags: W
LayerCount: 2
Fore
SplineSet
58 333 m 1,0,-1
 364 333 l 1,1,-1
 372 369 l 1,2,-1
 66 369 l 1,3,-1
 58 333 l 1,0,-1
4 -7 m 1,4,5
 28 -1 28 -1 55 3 c 128,-1,6
 82 7 82 7 103 7 c 0,7,8
 125 7 125 7 143 3.5 c 128,-1,9
 161 0 161 0 178 -4 c 128,-1,10
 195 -8 195 -8 212.5 -11.5 c 128,-1,11
 230 -15 230 -15 251 -15 c 0,12,13
 277 -15 277 -15 303.5 -9 c 128,-1,14
 330 -3 330 -3 358 9 c 1,15,-1
 355 44 l 1,16,17
 325 33 325 33 303 28.5 c 128,-1,18
 281 24 281 24 261 24 c 0,19,20
 244 24 244 24 228.5 27 c 128,-1,21
 213 30 213 30 197.5 33.5 c 128,-1,22
 182 37 182 37 165.5 40 c 128,-1,23
 149 43 149 43 128 43 c 0,24,25
 111 43 111 43 93 41 c 128,-1,26
 75 39 75 39 58 35 c 1,27,28
 109 83 109 83 140 117.5 c 128,-1,29
 171 152 171 152 187.5 181 c 128,-1,30
 204 210 204 210 209 236.5 c 128,-1,31
 214 263 214 263 214 293 c 0,32,33
 214 327 214 327 206.5 357 c 128,-1,34
 199 387 199 387 191 414 c 128,-1,35
 183 441 183 441 175.5 467.5 c 128,-1,36
 168 494 168 494 168 521 c 0,37,38
 168 553 168 553 181.5 581 c 128,-1,39
 195 609 195 609 216 631 c 128,-1,40
 237 653 237 653 264.5 665 c 128,-1,41
 292 677 292 677 321 677 c 0,42,43
 361 677 361 677 393 652 c 128,-1,44
 425 627 425 627 439 584 c 1,45,-1
 471 610 l 1,46,47
 455 658 455 658 417.5 686.5 c 128,-1,48
 380 715 380 715 330 715 c 0,49,50
 292 715 292 715 255.5 699 c 128,-1,51
 219 683 219 683 190.5 656 c 128,-1,52
 162 629 162 629 144.5 593 c 128,-1,53
 127 557 127 557 127 517 c 0,54,55
 127 489 127 489 134.5 462 c 128,-1,56
 142 435 142 435 150.5 407.5 c 128,-1,57
 159 380 159 380 166.5 350.5 c 128,-1,58
 174 321 174 321 174 288 c 0,59,60
 174 256 174 256 168 230.5 c 128,-1,61
 162 205 162 205 143 176 c 128,-1,62
 124 147 124 147 89.5 111.5 c 128,-1,63
 55 76 55 76 -2 25 c 1,64,-1
 4 -7 l 1,4,5
EndSplineSet
EndChar

StartChar: currency
Encoding: 164 164 102
Width: 556
GlyphClass: 1
Flags: W
LayerCount: 2
Fore
SplineSet
99 542 m 1,0,-1
 75 519 l 1,1,-1
 144 450 l 1,2,3
 125 426 125 426 115 397 c 128,-1,4
 105 368 105 368 105 336 c 0,5,6
 105 303 105 303 115.5 274 c 128,-1,7
 126 245 126 245 146 221 c 1,8,-1
 75 151 l 1,9,-1
 97 130 l 1,10,-1
 167 198 l 1,11,12
 190 178 190 178 219 167 c 128,-1,13
 248 156 248 156 283 156 c 0,14,15
 317 156 317 156 346.5 167.5 c 128,-1,16
 376 179 376 179 400 200 c 1,17,-1
 472 130 l 1,18,-1
 494 151 l 1,19,-1
 421 222 l 1,20,21
 440 246 440 246 450.5 275 c 128,-1,22
 461 304 461 304 461 336 c 0,23,24
 461 367 461 367 451 396 c 128,-1,25
 441 425 441 425 423 448 c 1,26,-1
 494 519 l 1,27,-1
 471 542 l 1,28,-1
 400 472 l 1,29,30
 377 493 377 493 347 505 c 128,-1,31
 317 517 317 517 283 517 c 256,32,33
 249 517 249 517 219.5 505.5 c 128,-1,34
 190 494 190 494 167 473 c 1,35,-1
 99 542 l 1,0,-1
143 335 m 256,36,37
 143 366 143 366 154.5 393 c 128,-1,38
 166 420 166 420 185 440.5 c 128,-1,39
 204 461 204 461 229 472.5 c 128,-1,40
 254 484 254 484 283 484 c 256,41,42
 312 484 312 484 337.5 472.5 c 128,-1,43
 363 461 363 461 382 441 c 128,-1,44
 401 421 401 421 412 394 c 128,-1,45
 423 367 423 367 423 337 c 0,46,47
 423 306 423 306 412 279 c 128,-1,48
 401 252 401 252 382 232 c 128,-1,49
 363 212 363 212 337.5 200 c 128,-1,50
 312 188 312 188 283 188 c 256,51,52
 254 188 254 188 229 199.5 c 128,-1,53
 204 211 204 211 185 231 c 128,-1,54
 166 251 166 251 154.5 277.5 c 128,-1,55
 143 304 143 304 143 335 c 256,36,37
EndSplineSet
EndChar

StartChar: yen
Encoding: 165 165 103
Width: 638
GlyphClass: 1
Flags: W
LayerCount: 2
Fore
SplineSet
689 710 m 1,0,-1
 641 710 l 1,1,-1
 315 312 l 1,2,-1
 160 710 l 1,3,-1
 112 710 l 1,4,-1
 255 353 l 1,5,-1
 170 353 l 1,6,-1
 162 320 l 1,7,-1
 267 320 l 1,8,-1
 285 272 l 1,9,-1
 279 244 l 1,10,-1
 146 244 l 1,11,-1
 139 211 l 1,12,-1
 272 211 l 1,13,-1
 227 0 l 1,14,-1
 270 0 l 1,15,-1
 316 211 l 1,16,-1
 450 211 l 1,17,-1
 457 244 l 1,18,-1
 323 244 l 1,19,-1
 328 270 l 1,20,-1
 369 320 l 1,21,-1
 473 320 l 1,22,-1
 480 353 l 1,23,-1
 395 353 l 1,24,-1
 689 710 l 1,0,-1
EndSplineSet
EndChar

StartChar: brokenbar
Encoding: 166 166 104
Width: 264
GlyphClass: 1
Flags: W
LayerCount: 2
Fore
SplineSet
118 281 m 1,0,-1
 118 -130 l 1,1,-1
 156 -130 l 1,2,-1
 156 281 l 1,3,-1
 118 281 l 1,0,-1
118 775 m 1,4,-1
 118 364 l 1,5,-1
 156 364 l 1,6,-1
 156 775 l 1,7,-1
 118 775 l 1,4,-1
EndSplineSet
EndChar

StartChar: section
Encoding: 167 167 105
Width: 478
GlyphClass: 1
Flags: W
LayerCount: 2
Fore
SplineSet
361 188 m 1,0,1
 372 198 372 198 382.5 211.5 c 128,-1,2
 393 225 393 225 400.5 241 c 128,-1,3
 408 257 408 257 412.5 275 c 128,-1,4
 417 293 417 293 417 311 c 0,5,6
 417 344 417 344 403.5 367.5 c 128,-1,7
 390 391 390 391 368 405.5 c 128,-1,8
 346 420 346 420 318 427 c 128,-1,9
 290 434 290 434 260 434 c 0,10,11
 206 434 206 434 173 454.5 c 128,-1,12
 140 475 140 475 140 525 c 0,13,14
 140 560 140 560 156 588 c 128,-1,15
 172 616 172 616 196.5 635.5 c 128,-1,16
 221 655 221 655 251 665 c 128,-1,17
 281 675 281 675 309 675 c 0,18,19
 327 675 327 675 345.5 672.5 c 128,-1,20
 364 670 364 670 380.5 663 c 128,-1,21
 397 656 397 656 409.5 644.5 c 128,-1,22
 422 633 422 633 427 614 c 1,23,-1
 465 630 l 1,24,25
 457 648 457 648 445.5 663.5 c 128,-1,26
 434 679 434 679 416.5 690.5 c 128,-1,27
 399 702 399 702 374.5 708.5 c 128,-1,28
 350 715 350 715 316 715 c 0,29,30
 280 715 280 715 241 701.5 c 128,-1,31
 202 688 202 688 170 662.5 c 128,-1,32
 138 637 138 637 117 600.5 c 128,-1,33
 96 564 96 564 96 519 c 0,34,35
 96 490 96 490 104.5 466.5 c 128,-1,36
 113 443 113 443 128 431 c 1,37,38
 119 422 119 422 109.5 409 c 128,-1,39
 100 396 100 396 92.5 380.5 c 128,-1,40
 85 365 85 365 80.5 347.5 c 128,-1,41
 76 330 76 330 76 311 c 0,42,43
 76 280 76 280 88 256.5 c 128,-1,44
 100 233 100 233 120 217.5 c 128,-1,45
 140 202 140 202 168 194 c 128,-1,46
 196 186 196 186 229 185 c 0,47,48
 250 184 250 184 270.5 180.5 c 128,-1,49
 291 177 291 177 307.5 168 c 128,-1,50
 324 159 324 159 334.5 143.5 c 128,-1,51
 345 128 345 128 345 103 c 0,52,53
 345 68 345 68 329 40 c 128,-1,54
 313 12 313 12 287.5 -7 c 128,-1,55
 262 -26 262 -26 232 -36.5 c 128,-1,56
 202 -47 202 -47 173 -47 c 0,57,58
 129 -47 129 -47 96.5 -29.5 c 128,-1,59
 64 -12 64 -12 35 25 c 1,60,-1
 0 -2 l 1,61,62
 12 -18 12 -18 27.5 -33.5 c 128,-1,63
 43 -49 43 -49 62.5 -61 c 128,-1,64
 82 -73 82 -73 108 -80.5 c 128,-1,65
 134 -88 134 -88 165 -88 c 0,66,67
 200 -88 200 -88 239.5 -75.5 c 128,-1,68
 279 -63 279 -63 313 -37.5 c 128,-1,69
 347 -12 347 -12 369 26 c 128,-1,70
 391 64 391 64 391 115 c 0,71,72
 391 139 391 139 383.5 158 c 128,-1,73
 376 177 376 177 361 188 c 1,0,1
118 311 m 0,74,75
 118 343 118 343 132 370.5 c 128,-1,76
 146 398 146 398 165 413 c 1,77,78
 182 405 182 405 205 400.5 c 128,-1,79
 228 396 228 396 253 396 c 0,80,81
 274 396 274 396 295.5 391.5 c 128,-1,82
 317 387 317 387 335 376.5 c 128,-1,83
 353 366 353 366 364 348 c 128,-1,84
 375 330 375 330 375 304 c 0,85,86
 375 275 375 275 360 246.5 c 128,-1,87
 345 218 345 218 324 202 c 1,88,89
 301 212 301 212 266 214.5 c 128,-1,90
 231 217 231 217 198 224.5 c 128,-1,91
 165 232 165 232 141.5 250.5 c 128,-1,92
 118 269 118 269 118 311 c 0,74,75
EndSplineSet
EndChar

StartChar: copyright
Encoding: 169 169 107
Width: 840
GlyphClass: 1
Flags: W
LayerCount: 2
Fore
SplineSet
431 -7 m 0,0,1
 509 -7 509 -7 576 20.5 c 128,-1,2
 643 48 643 48 691.5 96.5 c 128,-1,3
 740 145 740 145 768 211 c 128,-1,4
 796 277 796 277 796 355 c 0,5,6
 796 432 796 432 768 498 c 128,-1,7
 740 564 740 564 691.5 612 c 128,-1,8
 643 660 643 660 576 687.5 c 128,-1,9
 509 715 509 715 431 715 c 0,10,11
 352 715 352 715 285.5 687.5 c 128,-1,12
 219 660 219 660 170.5 612 c 128,-1,13
 122 564 122 564 94.5 498 c 128,-1,14
 67 432 67 432 67 355 c 0,15,16
 67 277 67 277 94.5 211 c 128,-1,17
 122 145 122 145 170.5 96.5 c 128,-1,18
 219 48 219 48 285.5 20.5 c 128,-1,19
 352 -7 352 -7 431 -7 c 0,0,1
431 19 m 0,20,21
 358 19 358 19 296.5 44.5 c 128,-1,22
 235 70 235 70 190 115 c 128,-1,23
 145 160 145 160 119.5 221 c 128,-1,24
 94 282 94 282 94 354 c 256,25,26
 94 426 94 426 119.5 487 c 128,-1,27
 145 548 145 548 190.5 593.5 c 128,-1,28
 236 639 236 639 297.5 664 c 128,-1,29
 359 689 359 689 431 689 c 0,30,31
 504 689 504 689 565.5 664 c 128,-1,32
 627 639 627 639 672 593.5 c 128,-1,33
 717 548 717 548 742.5 486.5 c 128,-1,34
 768 425 768 425 768 352 c 0,35,36
 768 278 768 278 742 217 c 128,-1,37
 716 156 716 156 670.5 111.5 c 128,-1,38
 625 67 625 67 564 43 c 128,-1,39
 503 19 503 19 431 19 c 0,20,21
438 125 m 0,40,41
 474 125 474 125 505.5 136.5 c 128,-1,42
 537 148 537 148 560.5 164.5 c 128,-1,43
 584 181 584 181 599.5 200.5 c 128,-1,44
 615 220 615 220 620 236 c 1,45,-1
 579 248 l 1,46,47
 570 228 570 228 554 212.5 c 128,-1,48
 538 197 538 197 518.5 186.5 c 128,-1,49
 499 176 499 176 477 170 c 128,-1,50
 455 164 455 164 434 164 c 0,51,52
 405 164 405 164 373 176.5 c 128,-1,53
 341 189 341 189 315 213.5 c 128,-1,54
 289 238 289 238 272.5 273.5 c 128,-1,55
 256 309 256 309 256 355 c 0,56,57
 256 389 256 389 266.5 423.5 c 128,-1,58
 277 458 277 458 298.5 486 c 128,-1,59
 320 514 320 514 353 531.5 c 128,-1,60
 386 549 386 549 431 549 c 0,61,62
 447 549 447 549 466.5 546 c 128,-1,63
 486 543 486 543 505.5 534 c 128,-1,64
 525 525 525 525 542 509.5 c 128,-1,65
 559 494 559 494 570 469 c 1,66,-1
 611 483 l 1,67,68
 590 535 590 535 541 561 c 128,-1,69
 492 587 492 587 431 587 c 0,70,71
 375 587 375 587 333.5 566.5 c 128,-1,72
 292 546 292 546 265.5 512.5 c 128,-1,73
 239 479 239 479 225.5 437.5 c 128,-1,74
 212 396 212 396 212 355 c 0,75,76
 212 302 212 302 232 259 c 128,-1,77
 252 216 252 216 283.5 186 c 128,-1,78
 315 156 315 156 355.5 140.5 c 128,-1,79
 396 125 396 125 438 125 c 0,40,41
EndSplineSet
EndChar

StartChar: ordfeminine
Encoding: 170 170 108
Width: 409
GlyphClass: 1
Flags: W
LayerCount: 2
Fore
SplineSet
169 349 m 0,0,1
 210 349 210 349 250 365.5 c 128,-1,2
 290 382 290 382 320 414 c 1,3,-1
 310 354 l 1,4,-1
 347 354 l 1,5,6
 347 355 347 355 348.5 364 c 128,-1,7
 350 373 350 373 352 384 c 128,-1,8
 354 395 354 395 356 403.5 c 128,-1,9
 358 412 358 412 358 414 c 2,10,-1
 391 571 l 2,11,12
 393 581 393 581 394 590.5 c 128,-1,13
 395 600 395 600 395 610 c 0,14,15
 395 658 395 658 366 684 c 128,-1,16
 337 710 337 710 283 710 c 0,17,18
 252 710 252 710 217.5 698.5 c 128,-1,19
 183 687 183 687 145 664 c 1,20,-1
 155 635 l 1,21,22
 189 655 189 655 218 665.5 c 128,-1,23
 247 676 247 676 273 676 c 0,24,25
 311 676 311 676 331.5 656.5 c 128,-1,26
 352 637 352 637 352 602 c 0,27,28
 352 596 352 596 351.5 589.5 c 128,-1,29
 351 583 351 583 349 576 c 2,30,-1
 343 544 l 1,31,32
 323 553 323 553 297 557.5 c 128,-1,33
 271 562 271 562 244 562 c 0,34,35
 209 562 209 562 178.5 553 c 128,-1,36
 148 544 148 544 125.5 527.5 c 128,-1,37
 103 511 103 511 90 488.5 c 128,-1,38
 77 466 77 466 77 438 c 0,39,40
 77 400 77 400 102 374.5 c 128,-1,41
 127 349 127 349 169 349 c 0,0,1
187 384 m 0,42,43
 156 384 156 384 138 401.5 c 128,-1,44
 120 419 120 419 120 447 c 0,45,46
 120 486 120 486 155.5 509.5 c 128,-1,47
 191 533 191 533 244 533 c 0,48,49
 269 533 269 533 292.5 529 c 128,-1,50
 316 525 316 525 336 515 c 1,51,-1
 324 458 l 2,52,53
 320 443 320 443 306.5 429.5 c 128,-1,54
 293 416 293 416 273.5 405.5 c 128,-1,55
 254 395 254 395 230.5 389.5 c 128,-1,56
 207 384 207 384 187 384 c 0,42,43
EndSplineSet
EndChar

StartChar: guillemotleft
Encoding: 171 171 109
Width: 523
GlyphClass: 1
Flags: W
LayerCount: 2
Fore
SplineSet
30 245 m 1,0,-1
 224 73 l 1,1,-1
 233 113 l 1,2,-1
 69 259 l 1,3,-1
 295 406 l 1,4,-1
 303 445 l 1,5,-1
 36 272 l 1,6,-1
 30 245 l 1,0,-1
217 245 m 1,7,-1
 411 73 l 1,8,-1
 419 113 l 1,9,-1
 256 259 l 1,10,-1
 482 406 l 1,11,-1
 490 445 l 1,12,-1
 222 272 l 1,13,-1
 217 245 l 1,7,-1
EndSplineSet
EndChar

StartChar: logicalnot
Encoding: 172 172 110
Width: 550
GlyphClass: 1
Flags: W
LayerCount: 2
Fore
SplineSet
90 350 m 1,0,-1
 82 310 l 1,1,-1
 444 310 l 1,2,-1
 406 133 l 1,3,-1
 445 133 l 1,4,-1
 491 350 l 1,5,-1
 90 350 l 1,0,-1
EndSplineSet
EndChar

StartChar: uni00AD
Encoding: 173 173 111
Width: 533
GlyphClass: 1
Flags: W
LayerCount: 2
Fore
SplineSet
456 252 m 1,0,-1
 465 292 l 1,1,-1
 64 292 l 1,2,-1
 55 252 l 1,3,-1
 456 252 l 1,0,-1
EndSplineSet
EndChar

StartChar: registered
Encoding: 174 174 112
Width: 840
GlyphClass: 1
Flags: W
LayerCount: 2
Fore
SplineSet
431 -7 m 256,0,1
 510 -7 510 -7 576.5 20.5 c 128,-1,2
 643 48 643 48 691.5 96.5 c 128,-1,3
 740 145 740 145 768 211 c 128,-1,4
 796 277 796 277 796 355 c 0,5,6
 796 432 796 432 768 498 c 128,-1,7
 740 564 740 564 691.5 612 c 128,-1,8
 643 660 643 660 576 687.5 c 128,-1,9
 509 715 509 715 431 715 c 0,10,11
 352 715 352 715 286 687.5 c 128,-1,12
 220 660 220 660 171 612 c 128,-1,13
 122 564 122 564 94.5 498 c 128,-1,14
 67 432 67 432 67 355 c 0,15,16
 67 277 67 277 94.5 211 c 128,-1,17
 122 145 122 145 170.5 96.5 c 128,-1,18
 219 48 219 48 285.5 20.5 c 128,-1,19
 352 -7 352 -7 431 -7 c 256,0,1
431 19 m 256,20,21
 359 19 359 19 297 44.5 c 128,-1,22
 235 70 235 70 190 115 c 128,-1,23
 145 160 145 160 120 221.5 c 128,-1,24
 95 283 95 283 95 355 c 0,25,26
 95 426 95 426 120 487 c 128,-1,27
 145 548 145 548 190 593 c 128,-1,28
 235 638 235 638 297 663.5 c 128,-1,29
 359 689 359 689 431 689 c 0,30,31
 504 689 504 689 565.5 663.5 c 128,-1,32
 627 638 627 638 672 593 c 128,-1,33
 717 548 717 548 742.5 487 c 128,-1,34
 768 426 768 426 768 355 c 0,35,36
 768 280 768 280 742 218 c 128,-1,37
 716 156 716 156 670.5 111.5 c 128,-1,38
 625 67 625 67 564 43 c 128,-1,39
 503 19 503 19 431 19 c 256,20,21
283 124 m 1,40,-1
 318 124 l 1,41,-1
 318 299 l 1,42,-1
 456 299 l 1,43,-1
 567 124 l 1,44,-1
 608 124 l 1,45,-1
 493 303 l 1,46,47
 518 306 518 306 538.5 318 c 128,-1,48
 559 330 559 330 573.5 348.5 c 128,-1,49
 588 367 588 367 596 391 c 128,-1,50
 604 415 604 415 604 440 c 0,51,52
 604 466 604 466 594.5 491.5 c 128,-1,53
 585 517 585 517 567.5 537 c 128,-1,54
 550 557 550 557 525.5 569.5 c 128,-1,55
 501 582 501 582 472 582 c 2,56,-1
 283 582 l 1,57,-1
 283 124 l 1,40,-1
318 332 m 1,58,-1
 318 548 l 1,59,-1
 470 548 l 2,60,61
 492 548 492 548 510 539.5 c 128,-1,62
 528 531 528 531 541.5 516.5 c 128,-1,63
 555 502 555 502 562 482.5 c 128,-1,64
 569 463 569 463 569 440 c 0,65,66
 569 418 569 418 563 398.5 c 128,-1,67
 557 379 557 379 545 364 c 128,-1,68
 533 349 533 349 515.5 340.5 c 128,-1,69
 498 332 498 332 474 332 c 2,70,-1
 318 332 l 1,58,-1
EndSplineSet
EndChar

StartChar: degree
Encoding: 176 176 114
Width: 252
GlyphClass: 1
Flags: W
LayerCount: 2
Fore
SplineSet
181 573 m 0,0,1
 198 573 198 573 214.5 580 c 128,-1,2
 231 587 231 587 244 599.5 c 128,-1,3
 257 612 257 612 264.5 628 c 128,-1,4
 272 644 272 644 272 662 c 0,5,6
 272 688 272 688 255.5 706 c 128,-1,7
 239 724 239 724 213 724 c 0,8,9
 195 724 195 724 178.5 716 c 128,-1,10
 162 708 162 708 149.5 695 c 128,-1,11
 137 682 137 682 129.5 665.5 c 128,-1,12
 122 649 122 649 122 632 c 0,13,14
 122 606 122 606 138.5 589.5 c 128,-1,15
 155 573 155 573 181 573 c 0,0,1
187 602 m 0,16,17
 171 602 171 602 162 612.5 c 128,-1,18
 153 623 153 623 153 640 c 0,19,20
 153 662 153 662 169.5 677.5 c 128,-1,21
 186 693 186 693 207 693 c 0,22,23
 223 693 223 693 232.5 684 c 128,-1,24
 242 675 242 675 242 657 c 0,25,26
 242 634 242 634 224 618 c 128,-1,27
 206 602 206 602 187 602 c 0,16,17
EndSplineSet
EndChar

StartChar: plusminus
Encoding: 177 177 115
Width: 484
GlyphClass: 1
Flags: W
LayerCount: 2
Fore
SplineSet
383 74 m 1,0,-1
 383 111 l 1,1,-1
 73 111 l 1,2,-1
 73 74 l 1,3,-1
 383 74 l 1,0,-1
248 378 m 1,4,-1
 248 523 l 1,5,-1
 208 523 l 1,6,-1
 208 378 l 1,7,-1
 73 378 l 1,8,-1
 73 341 l 1,9,-1
 208 341 l 1,10,-1
 208 195 l 1,11,-1
 248 195 l 1,12,-1
 248 341 l 1,13,-1
 383 341 l 1,14,-1
 383 378 l 1,15,-1
 248 378 l 1,4,-1
EndSplineSet
EndChar

StartChar: twosuperior
Encoding: 178 178 116
Width: 364
GlyphClass: 1
Flags: W
LayerCount: 2
Fore
SplineSet
347 415 m 1,0,-1
 354 446 l 1,1,-1
 115 446 l 1,2,3
 118 460 118 460 124.5 477.5 c 128,-1,4
 131 495 131 495 145.5 512 c 128,-1,5
 160 529 160 529 184 545 c 128,-1,6
 208 561 208 561 245 573 c 0,7,8
 275 583 275 583 304 594 c 128,-1,9
 333 605 333 605 356.5 621.5 c 128,-1,10
 380 638 380 638 394.5 661.5 c 128,-1,11
 409 685 409 685 409 719 c 0,12,13
 409 757 409 757 383 784 c 128,-1,14
 357 811 357 811 299 811 c 0,15,16
 264 811 264 811 235.5 801.5 c 128,-1,17
 207 792 207 792 186 780.5 c 128,-1,18
 165 769 165 769 152.5 758 c 128,-1,19
 140 747 140 747 137 744 c 1,20,-1
 155 720 l 1,21,22
 163 728 163 728 176.5 738.5 c 128,-1,23
 190 749 190 749 207.5 758.5 c 128,-1,24
 225 768 225 768 246.5 774 c 128,-1,25
 268 780 268 780 293 780 c 0,26,27
 338 780 338 780 357 760 c 128,-1,28
 376 740 376 740 376 713 c 0,29,30
 376 684 376 684 361 665 c 128,-1,31
 346 646 346 646 323.5 633.5 c 128,-1,32
 301 621 301 621 273 612 c 128,-1,33
 245 603 245 603 219 593 c 0,34,35
 188 582 188 582 162.5 567 c 128,-1,36
 137 552 137 552 117.5 531 c 128,-1,37
 98 510 98 510 84.5 481.5 c 128,-1,38
 71 453 71 453 63 415 c 1,39,-1
 347 415 l 1,0,-1
EndSplineSet
EndChar

StartChar: threesuperior
Encoding: 179 179 117
Width: 368
GlyphClass: 1
Flags: W
LayerCount: 2
Fore
SplineSet
204 410 m 0,0,1
 237 410 237 410 268 419 c 128,-1,2
 299 428 299 428 323 444 c 128,-1,3
 347 460 347 460 361.5 482.5 c 128,-1,4
 376 505 376 505 376 532 c 0,5,6
 376 563 376 563 355.5 586 c 128,-1,7
 335 609 335 609 298 616 c 1,8,9
 351 627 351 627 377.5 653 c 128,-1,10
 404 679 404 679 404 718 c 0,11,12
 404 758 404 758 371.5 784.5 c 128,-1,13
 339 811 339 811 283 811 c 0,14,15
 261 811 261 811 239.5 806.5 c 128,-1,16
 218 802 218 802 198.5 793.5 c 128,-1,17
 179 785 179 785 163 773 c 128,-1,18
 147 761 147 761 137 746 c 1,19,-1
 154 724 l 1,20,21
 172 749 172 749 205 765.5 c 128,-1,22
 238 782 238 782 277 782 c 0,23,24
 318 782 318 782 344 763 c 128,-1,25
 370 744 370 744 370 713 c 0,26,27
 370 692 370 692 360 676.5 c 128,-1,28
 350 661 350 661 331.5 650.5 c 128,-1,29
 313 640 313 640 286 634.5 c 128,-1,30
 259 629 259 629 225 629 c 2,31,-1
 203 629 l 1,32,-1
 197 601 l 1,33,-1
 219 601 l 2,34,35
 277 601 277 601 310.5 582 c 128,-1,36
 344 563 344 563 344 530 c 0,37,38
 344 511 344 511 333 494.5 c 128,-1,39
 322 478 322 478 303.5 465.5 c 128,-1,40
 285 453 285 453 261 446 c 128,-1,41
 237 439 237 439 210 439 c 0,42,43
 185 439 185 439 164.5 445 c 128,-1,44
 144 451 144 451 131 461.5 c 128,-1,45
 118 472 118 472 110.5 486.5 c 128,-1,46
 103 501 103 501 103 518 c 1,47,-1
 79 503 l 1,48,49
 80 461 80 461 112 435.5 c 128,-1,50
 144 410 144 410 204 410 c 0,0,1
EndSplineSet
EndChar

StartChar: uni00B5
Encoding: 181 181 119
Width: 589
GlyphClass: 1
Flags: W
LayerCount: 2
Fore
SplineSet
-23 -212 m 1,0,-1
 19 -212 l 1,1,-1
 81 85 l 1,2,3
 87 40 87 40 113 15 c 128,-1,4
 139 -10 139 -10 188 -10 c 0,5,6
 220 -10 220 -10 252 0 c 128,-1,7
 284 10 284 10 314 28 c 128,-1,8
 344 46 344 46 371 70.5 c 128,-1,9
 398 95 398 95 419 125 c 1,10,-1
 403 0 l 1,11,-1
 432 0 l 1,12,-1
 541 520 l 1,13,-1
 498 520 l 1,14,-1
 428 191 l 1,15,16
 410 155 410 155 383.5 125 c 128,-1,17
 357 95 357 95 326.5 74 c 128,-1,18
 296 53 296 53 263 41 c 128,-1,19
 230 29 230 29 198 29 c 0,20,21
 149 29 149 29 125.5 56.5 c 128,-1,22
 102 84 102 84 102 140 c 0,23,24
 102 158 102 158 104.5 180 c 128,-1,25
 107 202 107 202 113 227 c 2,26,-1
 175 520 l 1,27,-1
 132 520 l 1,28,-1
 -23 -212 l 1,0,-1
EndSplineSet
EndChar

StartChar: paragraph
Encoding: 182 182 120
Width: 559
GlyphClass: 1
Flags: W
LayerCount: 2
Fore
SplineSet
64 426 m 0,0,1
 64 383 64 383 78.5 349 c 128,-1,2
 93 315 93 315 120 291 c 128,-1,3
 147 267 147 267 186.5 254 c 128,-1,4
 226 241 226 241 277 240 c 1,5,-1
 209 -80 l 1,6,-1
 247 -80 l 1,7,-1
 316 240 l 1,8,-1
 394 240 l 1,9,-1
 325 -80 l 1,10,-1
 364 -80 l 1,11,-1
 525 674 l 1,12,-1
 591 674 l 1,13,-1
 599 710 l 1,14,-1
 388 710 l 2,15,16
 315 710 315 710 254.5 689.5 c 128,-1,17
 194 669 194 669 152 631.5 c 128,-1,18
 110 594 110 594 87 542 c 128,-1,19
 64 490 64 490 64 426 c 0,0,1
103 435 m 0,20,21
 103 487 103 487 121 531 c 128,-1,22
 139 575 139 575 173 606.5 c 128,-1,23
 207 638 207 638 256.5 656 c 128,-1,24
 306 674 306 674 369 674 c 1,25,-1
 284 276 l 1,26,27
 247 278 247 278 213.5 288 c 128,-1,28
 180 298 180 298 155.5 317.5 c 128,-1,29
 131 337 131 337 117 366 c 128,-1,30
 103 395 103 395 103 435 c 0,20,21
401 276 m 1,31,-1
 323 276 l 1,32,-1
 408 674 l 1,33,-1
 486 674 l 1,34,-1
 401 276 l 1,31,-1
EndSplineSet
EndChar

StartChar: onesuperior
Encoding: 185 185 123
Width: 250
GlyphClass: 1
Flags: W
LayerCount: 2
Fore
SplineSet
188 446 m 1,0,-1
 266 811 l 1,1,-1
 234 811 l 2,2,3
 233 810 233 810 222.5 801.5 c 128,-1,4
 212 793 212 793 197 783 c 128,-1,5
 182 773 182 773 164 764.5 c 128,-1,6
 146 756 146 756 131 756 c 1,7,-1
 125 725 l 1,8,9
 137 725 137 725 151.5 730.5 c 128,-1,10
 166 736 166 736 180.5 743 c 128,-1,11
 195 750 195 750 207.5 758.5 c 128,-1,12
 220 767 220 767 226 773 c 1,13,-1
 157 446 l 1,14,-1
 79 446 l 1,15,-1
 72 415 l 1,16,-1
 254 415 l 1,17,-1
 261 446 l 1,18,-1
 188 446 l 1,0,-1
EndSplineSet
EndChar

StartChar: ordmasculine
Encoding: 186 186 124
Width: 431
GlyphClass: 1
Flags: W
LayerCount: 2
Fore
SplineSet
223 349 m 0,0,1
 265 349 265 349 304 366.5 c 128,-1,2
 343 384 343 384 372 414 c 128,-1,3
 401 444 401 444 418.5 482.5 c 128,-1,4
 436 521 436 521 436 562 c 0,5,6
 436 593 436 593 426.5 620 c 128,-1,7
 417 647 417 647 399 667 c 128,-1,8
 381 687 381 687 356 698.5 c 128,-1,9
 331 710 331 710 300 710 c 0,10,11
 258 710 258 710 220 692 c 128,-1,12
 182 674 182 674 152.5 644.5 c 128,-1,13
 123 615 123 615 106 576.5 c 128,-1,14
 89 538 89 538 89 495 c 0,15,16
 89 465 89 465 98 438.5 c 128,-1,17
 107 412 107 412 124.5 392 c 128,-1,18
 142 372 142 372 167 360.5 c 128,-1,19
 192 349 192 349 223 349 c 0,0,1
230 382 m 0,20,21
 207 382 207 382 188 391 c 128,-1,22
 169 400 169 400 155.5 416 c 128,-1,23
 142 432 142 432 134.5 453.5 c 128,-1,24
 127 475 127 475 127 500 c 0,25,26
 127 535 127 535 141.5 567 c 128,-1,27
 156 599 156 599 179.5 623 c 128,-1,28
 203 647 203 647 232.5 661.5 c 128,-1,29
 262 676 262 676 293 676 c 0,30,31
 316 676 316 676 335.5 666.5 c 128,-1,32
 355 657 355 657 368.5 641.5 c 128,-1,33
 382 626 382 626 389.5 604 c 128,-1,34
 397 582 397 582 397 557 c 0,35,36
 397 522 397 522 382.5 490 c 128,-1,37
 368 458 368 458 344.5 434 c 128,-1,38
 321 410 321 410 291.5 396 c 128,-1,39
 262 382 262 382 230 382 c 0,20,21
EndSplineSet
EndChar

StartChar: guillemotright
Encoding: 187 187 125
Width: 523
GlyphClass: 1
Flags: W
LayerCount: 2
Fore
SplineSet
475 272 m 1,0,-1
 281 445 l 1,1,-1
 273 406 l 1,2,-1
 436 259 l 1,3,-1
 210 113 l 1,4,-1
 202 73 l 1,5,-1
 469 245 l 1,6,-1
 475 272 l 1,0,-1
288 272 m 1,7,-1
 94 445 l 1,8,-1
 86 406 l 1,9,-1
 250 259 l 1,10,-1
 24 113 l 1,11,-1
 15 73 l 1,12,-1
 283 245 l 1,13,-1
 288 272 l 1,7,-1
EndSplineSet
EndChar

StartChar: onehalf
Encoding: 189 189 127
Width: 746
GlyphClass: 1
Flags: W
LayerCount: 2
Fore
SplineSet
171 366 m 1,0,-1
 249 731 l 1,1,-1
 217 731 l 2,2,3
 216 730 216 730 205.5 721.5 c 128,-1,4
 195 713 195 713 180 703 c 128,-1,5
 165 693 165 693 147 684.5 c 128,-1,6
 129 676 129 676 114 676 c 1,7,-1
 108 645 l 1,8,9
 120 645 120 645 134.5 650.5 c 128,-1,10
 149 656 149 656 163.5 663 c 128,-1,11
 178 670 178 670 190.5 678.5 c 128,-1,12
 203 687 203 687 209 693 c 1,13,-1
 140 366 l 1,14,-1
 62 366 l 1,15,-1
 55 335 l 1,16,-1
 237 335 l 1,17,-1
 244 366 l 1,18,-1
 171 366 l 1,0,-1
2 -2 m 1,19,-1
 323 331 l 1,20,-1
 676 692 l 1,21,-1
 656 712 l 1,22,-1
 306 349 l 1,23,-1
 -18 18 l 1,24,-1
 2 -2 l 1,19,-1
642 0 m 1,25,-1
 648 31 l 1,26,-1
 412 31 l 1,27,28
 415 45 415 45 421.5 62 c 128,-1,29
 428 79 428 79 442.5 96 c 128,-1,30
 457 113 457 113 480.5 129.5 c 128,-1,31
 504 146 504 146 541 158 c 0,32,33
 570 168 570 168 599 179 c 128,-1,34
 628 190 628 190 651 206.5 c 128,-1,35
 674 223 674 223 688.5 246.5 c 128,-1,36
 703 270 703 270 703 303 c 0,37,38
 703 342 703 342 677 369 c 128,-1,39
 651 396 651 396 594 396 c 0,40,41
 560 396 560 396 532 386.5 c 128,-1,42
 504 377 504 377 483 365.5 c 128,-1,43
 462 354 462 354 450 343 c 128,-1,44
 438 332 438 332 434 328 c 1,45,-1
 452 304 l 1,46,47
 460 313 460 313 473.5 323.5 c 128,-1,48
 487 334 487 334 504 343.5 c 128,-1,49
 521 353 521 353 542.5 359 c 128,-1,50
 564 365 564 365 589 365 c 0,51,52
 633 365 633 365 651.5 345 c 128,-1,53
 670 325 670 325 670 297 c 256,54,55
 670 269 670 269 655.5 250 c 128,-1,56
 641 231 641 231 618.5 218.5 c 128,-1,57
 596 206 596 206 568.5 196.5 c 128,-1,58
 541 187 541 187 516 178 c 0,59,60
 485 167 485 167 460 152 c 128,-1,61
 435 137 435 137 415.5 116 c 128,-1,62
 396 95 396 95 382.5 66.5 c 128,-1,63
 369 38 369 38 361 0 c 1,64,-1
 642 0 l 1,25,-1
EndSplineSet
EndChar

StartChar: questiondown
Encoding: 191 191 129
Width: 449
GlyphClass: 1
Flags: W
LayerCount: 2
Fore
SplineSet
260 316 m 1,0,1
 251 276 251 276 239 249.5 c 128,-1,2
 227 223 227 223 213 205.5 c 128,-1,3
 199 188 199 188 182.5 177.5 c 128,-1,4
 166 167 166 167 148 158 c 0,5,6
 119 143 119 143 90.5 129 c 128,-1,7
 62 115 62 115 38 95.5 c 128,-1,8
 14 76 14 76 -5 47 c 128,-1,9
 -24 18 -24 18 -33 -24 c 0,10,11
 -43 -71 -43 -71 -35 -106.5 c 128,-1,12
 -27 -142 -27 -142 -6.5 -165.5 c 128,-1,13
 14 -189 14 -189 44.5 -201 c 128,-1,14
 75 -213 75 -213 110 -213 c 0,15,16
 141 -213 141 -213 173 -204.5 c 128,-1,17
 205 -196 205 -196 235 -179.5 c 128,-1,18
 265 -163 265 -163 292 -139 c 128,-1,19
 319 -115 319 -115 338 -84 c 1,20,-1
 311 -66 l 1,21,22
 295 -90 295 -90 273 -110 c 128,-1,23
 251 -130 251 -130 226 -145 c 128,-1,24
 201 -160 201 -160 173.5 -167.5 c 128,-1,25
 146 -175 146 -175 119 -175 c 0,26,27
 91 -175 91 -175 66.5 -166.5 c 128,-1,28
 42 -158 42 -158 25.5 -139.5 c 128,-1,29
 9 -121 9 -121 2.5 -93.5 c 128,-1,30
 -4 -66 -4 -66 4 -28 c 0,31,32
 13 12 13 12 32 38.5 c 128,-1,33
 51 65 51 65 75.5 82.5 c 128,-1,34
 100 100 100 100 126.5 112.5 c 128,-1,35
 153 125 153 125 176 137 c 0,36,37
 198 149 198 149 216 163 c 128,-1,38
 234 177 234 177 249 197.5 c 128,-1,39
 264 218 264 218 276 246.5 c 128,-1,40
 288 275 288 275 297 316 c 1,41,-1
 260 316 l 1,0,1
351 471 m 0,42,43
 354 488 354 488 345 500.5 c 128,-1,44
 336 513 336 513 319 513 c 0,45,46
 311 513 311 513 303 509.5 c 128,-1,47
 295 506 295 506 288.5 500.5 c 128,-1,48
 282 495 282 495 277.5 487.5 c 128,-1,49
 273 480 273 480 271 471 c 0,50,51
 267 454 267 454 276 442.5 c 128,-1,52
 285 431 285 431 302 431 c 0,53,54
 310 431 310 431 318 434 c 128,-1,55
 326 437 326 437 333 442.5 c 128,-1,56
 340 448 340 448 344.5 455.5 c 128,-1,57
 349 463 349 463 351 471 c 0,42,43
EndSplineSet
EndChar

StartChar: AE
Encoding: 198 198 136
Width: 922
GlyphClass: 1
Flags: W
LayerCount: 2
Fore
SplineSet
-83 0 m 1,0,-1
 -33 0 l 1,1,-1
 163 239 l 1,2,-1
 419 239 l 1,3,-1
 368 0 l 1,4,-1
 813 0 l 1,5,-1
 821 40 l 1,6,-1
 420 40 l 1,7,-1
 484 343 l 1,8,-1
 826 343 l 1,9,-1
 835 383 l 1,10,-1
 493 383 l 1,11,-1
 553 670 l 1,12,-1
 947 670 l 1,13,-1
 956 710 l 1,14,-1
 507 710 l 1,15,-1
 -83 0 l 1,0,-1
193 279 m 1,16,-1
 505 654 l 1,17,-1
 425 279 l 1,18,-1
 193 279 l 1,16,-1
EndSplineSet
EndChar

StartChar: Idieresis
Encoding: 207 207 145
Width: 229
GlyphClass: 1
Flags: W
LayerCount: 2
Fore
SplineSet
29 0 m 1,0,-1
 72 0 l 1,1,-1
 223 709 l 1,2,-1
 180 709 l 1,3,-1
 29 0 l 1,0,-1
182 874 m 256,4,5
 178 857 178 857 186 845 c 128,-1,6
 194 833 194 833 210 833 c 256,7,8
 226 833 226 833 239 845 c 128,-1,9
 252 857 252 857 256 874 c 256,10,11
 260 891 260 891 252 903 c 128,-1,12
 244 915 244 915 228 915 c 256,13,14
 212 915 212 915 199 903 c 128,-1,15
 186 891 186 891 182 874 c 256,4,5
210 874 m 256,16,17
 206 857 206 857 214.5 845 c 128,-1,18
 223 833 223 833 239 833 c 256,19,20
 255 833 255 833 267.5 845 c 128,-1,21
 280 857 280 857 284 874 c 256,22,23
 288 891 288 891 280 903 c 128,-1,24
 272 915 272 915 256 915 c 256,25,26
 240 915 240 915 227 903 c 128,-1,27
 214 891 214 891 210 874 c 256,16,17
EndSplineSet
EndChar

StartChar: Eth
Encoding: 208 208 146
Width: 694
GlyphClass: 1
Flags: W
LayerCount: 2
Fore
SplineSet
45 339 m 1,0,-1
 323 339 l 1,1,-1
 330 375 l 1,2,-1
 53 375 l 1,3,-1
 45 339 l 1,0,-1
36 0 m 1,4,-1
 259 0 l 2,5,6
 346 0 346 0 420.5 33.5 c 128,-1,7
 495 67 495 67 549.5 125.5 c 128,-1,8
 604 184 604 184 634.5 264.5 c 128,-1,9
 665 345 665 345 665 439 c 0,10,11
 665 496 665 496 649.5 545.5 c 128,-1,12
 634 595 634 595 603 631.5 c 128,-1,13
 572 668 572 668 523.5 689 c 128,-1,14
 475 710 475 710 410 710 c 2,15,-1
 187 710 l 1,16,-1
 36 0 l 1,4,-1
87 40 m 1,17,-1
 222 670 l 1,18,-1
 401 670 l 2,19,20
 456 670 456 670 497 652 c 128,-1,21
 538 634 538 634 565.5 602.5 c 128,-1,22
 593 571 593 571 607 527 c 128,-1,23
 621 483 621 483 621 431 c 0,24,25
 621 354 621 354 596.5 283 c 128,-1,26
 572 212 572 212 526.5 158 c 128,-1,27
 481 104 481 104 415.5 72 c 128,-1,28
 350 40 350 40 267 40 c 2,29,-1
 87 40 l 1,17,-1
EndSplineSet
EndChar

StartChar: multiply
Encoding: 215 215 153
Width: 464
GlyphClass: 1
Flags: W
LayerCount: 2
Fore
SplineSet
252 271 m 1,0,-1
 380 400 l 1,1,-1
 353 428 l 1,2,-1
 224 300 l 1,3,-1
 96 427 l 1,4,-1
 68 400 l 1,5,-1
 195 271 l 1,6,-1
 68 143 l 1,7,-1
 95 115 l 1,8,-1
 224 243 l 1,9,-1
 353 115 l 1,10,-1
 381 142 l 1,11,-1
 252 271 l 1,0,-1
EndSplineSet
EndChar

StartChar: Thorn
Encoding: 222 222 160
Width: 576
GlyphClass: 1
Flags: W
LayerCount: 2
Fore
SplineSet
29 0 m 1,0,-1
 72 0 l 1,1,-1
 98 125 l 1,2,-1
 320 125 l 2,3,4
 369 125 369 125 412.5 148 c 128,-1,5
 456 171 456 171 489 207.5 c 128,-1,6
 522 244 522 244 541.5 290.5 c 128,-1,7
 561 337 561 337 561 384 c 0,8,9
 561 418 561 418 550.5 451 c 128,-1,10
 540 484 540 484 520.5 509 c 128,-1,11
 501 534 501 534 472.5 549 c 128,-1,12
 444 564 444 564 407 564 c 2,13,-1
 192 564 l 1,14,-1
 223 710 l 1,15,-1
 180 710 l 1,16,-1
 29 0 l 1,0,-1
107 165 m 1,17,-1
 184 524 l 1,18,-1
 397 524 l 2,19,20
 424 524 424 524 446.5 512.5 c 128,-1,21
 469 501 469 501 484.5 481 c 128,-1,22
 500 461 500 461 508.5 434.5 c 128,-1,23
 517 408 517 408 517 379 c 0,24,25
 517 341 517 341 502.5 303 c 128,-1,26
 488 265 488 265 462 234.5 c 128,-1,27
 436 204 436 204 401.5 184.5 c 128,-1,28
 367 165 367 165 327 165 c 2,29,-1
 107 165 l 1,17,-1
EndSplineSet
EndChar

StartChar: germandbls
Encoding: 223 223 161
Width: 526
GlyphClass: 1
Flags: W
LayerCount: 2
Fore
SplineSet
159 -6 m 1,0,1
 230 -3 230 -3 287 15 c 128,-1,2
 344 33 344 33 384.5 65 c 128,-1,3
 425 97 425 97 446.5 143 c 128,-1,4
 468 189 468 189 468 246 c 0,5,6
 468 306 468 306 438 348 c 128,-1,7
 408 390 408 390 348 403 c 1,8,9
 376 410 376 410 401.5 427 c 128,-1,10
 427 444 427 444 447 468 c 128,-1,11
 467 492 467 492 479.5 522 c 128,-1,12
 492 552 492 552 492 582 c 0,13,14
 492 640 492 640 452.5 677 c 128,-1,15
 413 714 413 714 348 714 c 0,16,17
 307 714 307 714 270.5 699.5 c 128,-1,18
 234 685 234 685 204 658.5 c 128,-1,19
 174 632 174 632 152.5 594.5 c 128,-1,20
 131 557 131 557 122 512 c 2,21,-1
 13 0 l 1,22,-1
 54 0 l 1,23,-1
 162 507 l 2,24,25
 170 544 170 544 186 574.5 c 128,-1,26
 202 605 202 605 224.5 628 c 128,-1,27
 247 651 247 651 276 663 c 128,-1,28
 305 675 305 675 338 675 c 0,29,30
 387 675 387 675 417.5 646.5 c 128,-1,31
 448 618 448 618 448 571 c 0,32,33
 448 539 448 539 435.5 512 c 128,-1,34
 423 485 423 485 400.5 465 c 128,-1,35
 378 445 378 445 349 433 c 128,-1,36
 320 421 320 421 288 421 c 2,37,-1
 272 421 l 1,38,-1
 263 381 l 1,39,-1
 280 381 l 2,40,41
 314 381 314 381 340.5 371 c 128,-1,42
 367 361 367 361 385.5 343 c 128,-1,43
 404 325 404 325 414 299.5 c 128,-1,44
 424 274 424 274 424 242 c 0,45,46
 424 193 424 193 406 154.5 c 128,-1,47
 388 116 388 116 354.5 89.5 c 128,-1,48
 321 63 321 63 273.5 49 c 128,-1,49
 226 35 226 35 167 34 c 1,50,-1
 159 -6 l 1,0,1
EndSplineSet
EndChar

StartChar: ae
Encoding: 230 230 168
Width: 933
GlyphClass: 1
Flags: W
LayerCount: 2
Fore
SplineSet
212 -10 m 0,0,1
 274 -10 274 -10 330.5 24 c 128,-1,2
 387 58 387 58 428 112 c 1,3,-1
 404 0 l 1,4,-1
 446 0 l 1,5,-1
 471 118 l 1,6,-1
 484 263 l 1,7,-1
 530 393 l 1,8,-1
 556 517 l 1,9,-1
 514 517 l 1,10,-1
 490 404 l 1,11,12
 473 458 473 458 430.5 493 c 128,-1,13
 388 528 388 528 323 528 c 0,14,15
 268 528 268 528 215 501.5 c 128,-1,16
 162 475 162 475 120.5 431 c 128,-1,17
 79 387 79 387 53 328.5 c 128,-1,18
 27 270 27 270 27 207 c 0,19,20
 27 165 27 165 39.5 125.5 c 128,-1,21
 52 86 52 86 75.5 55.5 c 128,-1,22
 99 25 99 25 133.5 7.5 c 128,-1,23
 168 -10 168 -10 212 -10 c 0,0,1
227 29 m 0,24,25
 191 29 191 29 162 43.5 c 128,-1,26
 133 58 133 58 113 83.5 c 128,-1,27
 93 109 93 109 82.5 142.5 c 128,-1,28
 72 176 72 176 72 213 c 0,29,30
 72 261 72 261 92 310.5 c 128,-1,31
 112 360 112 360 146.5 400 c 128,-1,32
 181 440 181 440 227 465 c 128,-1,33
 273 490 273 490 324 490 c 0,34,35
 355 490 355 490 381 478.5 c 128,-1,36
 407 467 407 467 427 447.5 c 128,-1,37
 447 428 447 428 459.5 401.5 c 128,-1,38
 472 375 472 375 477 344 c 1,39,-1
 440 172 l 1,40,41
 423 142 423 142 400 116 c 128,-1,42
 377 90 377 90 349.5 70.5 c 128,-1,43
 322 51 322 51 291 40 c 128,-1,44
 260 29 260 29 227 29 c 0,24,25
628 -10 m 0,45,46
 663 -10 663 -10 697 -0.5 c 128,-1,47
 731 9 731 9 761.5 26.5 c 128,-1,48
 792 44 792 44 817 68 c 128,-1,49
 842 92 842 92 860 122 c 1,50,-1
 823 133 l 1,51,52
 809 108 809 108 788 88 c 128,-1,53
 767 68 767 68 742 54.5 c 128,-1,54
 717 41 717 41 690 33 c 128,-1,55
 663 25 663 25 638 25 c 0,56,57
 598 25 598 25 571 40 c 128,-1,58
 544 55 544 55 528 80.5 c 128,-1,59
 512 106 512 106 505 139.5 c 128,-1,60
 498 173 498 173 498 211 c 0,61,62
 498 262 498 262 513.5 312 c 128,-1,63
 529 362 529 362 559 402 c 128,-1,64
 589 442 589 442 633.5 467.5 c 128,-1,65
 678 493 678 493 735 493 c 0,66,67
 758 493 758 493 780 487 c 128,-1,68
 802 481 802 481 820 468.5 c 128,-1,69
 838 456 838 456 849 436.5 c 128,-1,70
 860 417 860 417 860 391 c 0,71,72
 860 366 860 366 848.5 344.5 c 128,-1,73
 837 323 837 323 810 307.5 c 128,-1,74
 783 292 783 292 740 283.5 c 128,-1,75
 697 275 697 275 634 275 c 0,76,77
 600 275 600 275 566.5 276.5 c 128,-1,78
 533 278 533 278 502 281 c 1,79,-1
 484 249 l 1,80,81
 521 245 521 245 557.5 243.5 c 128,-1,82
 594 242 594 242 631 242 c 0,83,84
 768 242 768 242 834.5 279.5 c 128,-1,85
 901 317 901 317 901 390 c 0,86,87
 901 424 901 424 887 450 c 128,-1,88
 873 476 873 476 850.5 493.5 c 128,-1,89
 828 511 828 511 799.5 519.5 c 128,-1,90
 771 528 771 528 741 528 c 0,91,92
 675 528 675 528 623 501 c 128,-1,93
 571 474 571 474 535 429.5 c 128,-1,94
 499 385 499 385 480 328 c 128,-1,95
 461 271 461 271 461 210 c 0,96,97
 461 165 461 165 469.5 125 c 128,-1,98
 478 85 478 85 498.5 55 c 128,-1,99
 519 25 519 25 550.5 7.5 c 128,-1,100
 582 -10 582 -10 628 -10 c 0,45,46
EndSplineSet
EndChar

StartChar: idieresis
Encoding: 239 239 177
Width: 202
GlyphClass: 1
Flags: W
LayerCount: 2
Fore
SplineSet
86 684 m 0,0,1
 82 667 82 667 90.5 655 c 128,-1,2
 99 643 99 643 115 643 c 0,3,4
 130 643 130 643 143.5 655 c 128,-1,5
 157 667 157 667 161 684 c 256,6,7
 165 701 165 701 156.5 713 c 128,-1,8
 148 725 148 725 132 725 c 256,9,10
 116 725 116 725 102.5 713 c 128,-1,11
 89 701 89 701 86 684 c 0,0,1
205 684 m 0,12,13
 201 667 201 667 209.5 655 c 128,-1,14
 218 643 218 643 234 643 c 0,15,16
 249 643 249 643 262.5 655 c 128,-1,17
 276 667 276 667 280 684 c 256,18,19
 284 701 284 701 275.5 713 c 128,-1,20
 267 725 267 725 251 725 c 256,21,22
 235 725 235 725 221.5 713 c 128,-1,23
 208 701 208 701 205 684 c 0,12,13
13 0 m 1,24,-1
 56 0 l 1,25,-1
 166 520 l 1,26,-1
 123 520 l 1,27,-1
 13 0 l 1,24,-1
EndSplineSet
EndChar

StartChar: eth
Encoding: 240 240 178
Width: 573
GlyphClass: 1
Flags: W
LayerCount: 2
Fore
SplineSet
532 370 m 0,0,1
 532 414 532 414 523.5 461.5 c 128,-1,2
 515 509 515 509 493 556 c 128,-1,3
 471 603 471 603 435.5 647 c 128,-1,4
 400 691 400 691 347 730 c 1,5,-1
 287 730 l 1,6,7
 346 689 346 689 384.5 648 c 128,-1,8
 423 607 423 607 446 566 c 128,-1,9
 469 525 469 525 479.5 484.5 c 128,-1,10
 490 444 490 444 491 404 c 0,11,12
 492 388 492 388 492 373 c 128,-1,13
 492 358 492 358 490 343 c 1,14,15
 478 401 478 401 431 437.5 c 128,-1,16
 384 474 384 474 315 474 c 0,17,18
 261 474 261 474 208.5 451 c 128,-1,19
 156 428 156 428 115 389 c 128,-1,20
 74 350 74 350 49 298.5 c 128,-1,21
 24 247 24 247 24 190 c 0,22,23
 24 149 24 149 38 112.5 c 128,-1,24
 52 76 52 76 77.5 49 c 128,-1,25
 103 22 103 22 138.5 6 c 128,-1,26
 174 -10 174 -10 217 -10 c 0,27,28
 274 -10 274 -10 330.5 16.5 c 128,-1,29
 387 43 387 43 432 92 c 128,-1,30
 477 141 477 141 504.5 211.5 c 128,-1,31
 532 282 532 282 532 370 c 0,0,1
68 195 m 0,32,33
 68 243 68 243 89 287 c 128,-1,34
 110 331 110 331 144.5 364.5 c 128,-1,35
 179 398 179 398 223.5 417.5 c 128,-1,36
 268 437 268 437 314 437 c 0,37,38
 349 437 349 437 378.5 424.5 c 128,-1,39
 408 412 408 412 429 390 c 128,-1,40
 450 368 450 368 462 339 c 128,-1,41
 474 310 474 310 474 276 c 0,42,43
 474 229 474 229 452.5 184 c 128,-1,44
 431 139 431 139 396 105 c 128,-1,45
 361 71 361 71 316 50 c 128,-1,46
 271 29 271 29 225 29 c 0,47,48
 190 29 190 29 161 41.5 c 128,-1,49
 132 54 132 54 111.5 77 c 128,-1,50
 91 100 91 100 79.5 130.5 c 128,-1,51
 68 161 68 161 68 195 c 0,32,33
533 713 m 1,52,-1
 419 646 l 1,53,-1
 406 641 l 1,54,-1
 274 564 l 1,55,-1
 285 542 l 1,56,-1
 420 621 l 1,57,-1
 433 627 l 1,58,-1
 544 691 l 1,59,-1
 533 713 l 1,52,-1
EndSplineSet
EndChar

StartChar: divide
Encoding: 247 247 185
Width: 542
GlyphClass: 1
Flags: W
LayerCount: 2
Fore
SplineSet
473 258 m 1,0,-1
 473 295 l 1,1,-1
 70 295 l 1,2,-1
 70 258 l 1,3,-1
 473 258 l 1,0,-1
228 119 m 256,4,5
 228 102 228 102 240 90 c 128,-1,6
 252 78 252 78 269 78 c 256,7,8
 286 78 286 78 298.5 90 c 128,-1,9
 311 102 311 102 311 119 c 256,10,11
 311 136 311 136 298.5 148 c 128,-1,12
 286 160 286 160 269 160 c 256,13,14
 252 160 252 160 240 148 c 128,-1,15
 228 136 228 136 228 119 c 256,4,5
228 434 m 0,16,17
 228 418 228 418 240.5 405.5 c 128,-1,18
 253 393 253 393 270 393 c 256,19,20
 287 393 287 393 299 405.5 c 128,-1,21
 311 418 311 418 311 434 c 0,22,23
 311 451 311 451 299 463 c 128,-1,24
 287 475 287 475 270 475 c 256,25,26
 253 475 253 475 240.5 463 c 128,-1,27
 228 451 228 451 228 434 c 0,16,17
EndSplineSet
EndChar

StartChar: oslash
Encoding: 248 248 186
Width: 567
GlyphClass: 1
Flags: W
LayerCount: 2
Fore
SplineSet
218 -10 m 0,0,1
 277 -10 277 -10 331.5 16.5 c 128,-1,2
 386 43 386 43 428.5 87.5 c 128,-1,3
 471 132 471 132 496.5 189.5 c 128,-1,4
 522 247 522 247 522 309 c 0,5,6
 522 354 522 354 508.5 394 c 128,-1,7
 495 434 495 434 470 464 c 128,-1,8
 445 494 445 494 410 511 c 128,-1,9
 375 528 375 528 332 528 c 0,10,11
 274 528 274 528 219 502 c 128,-1,12
 164 476 164 476 121.5 431 c 128,-1,13
 79 386 79 386 53 328 c 128,-1,14
 27 270 27 270 27 207 c 0,15,16
 27 162 27 162 40.5 122.5 c 128,-1,17
 54 83 54 83 78.5 53.5 c 128,-1,18
 103 24 103 24 138.5 7 c 128,-1,19
 174 -10 174 -10 218 -10 c 0,0,1
225 29 m 0,20,21
 191 29 191 29 162.5 43 c 128,-1,22
 134 57 134 57 113.5 82 c 128,-1,23
 93 107 93 107 82 140.5 c 128,-1,24
 71 174 71 174 71 212 c 0,25,26
 71 267 71 267 93 317 c 128,-1,27
 115 367 115 367 151 405.5 c 128,-1,28
 187 444 187 444 232.5 467 c 128,-1,29
 278 490 278 490 324 490 c 0,30,31
 358 490 358 490 386.5 475 c 128,-1,32
 415 460 415 460 435 435 c 128,-1,33
 455 410 455 410 466.5 376.5 c 128,-1,34
 478 343 478 343 478 304 c 0,35,36
 478 249 478 249 456 199 c 128,-1,37
 434 149 434 149 398 111.5 c 128,-1,38
 362 74 362 74 316.5 51.5 c 128,-1,39
 271 29 271 29 225 29 c 0,20,21
41 -1 m 1,40,-1
 75 -1 l 1,41,-1
 117 47 l 1,42,-1
 100 65 l 1,43,-1
 41 -1 l 1,40,-1
119 49 m 1,44,-1
 451 455 l 1,45,-1
 431 471 l 1,46,-1
 103 67 l 1,47,-1
 119 49 l 1,44,-1
453 456 m 1,48,-1
 510 521 l 1,49,-1
 475 521 l 1,50,-1
 433 473 l 1,51,-1
 453 456 l 1,48,-1
EndSplineSet
EndChar

StartChar: thorn
Encoding: 254 254 192
Width: 577
GlyphClass: 1
Flags: W
LayerCount: 2
Fore
SplineSet
11 -213 m 1,0,-1
 80 114 l 1,1,2
 90 88 90 88 105.5 65.5 c 128,-1,3
 121 43 121 43 142 26.5 c 128,-1,4
 163 10 163 10 189.5 0 c 128,-1,5
 216 -10 216 -10 248 -10 c 0,6,7
 308 -10 308 -10 360.5 17.5 c 128,-1,8
 413 45 413 45 453 89.5 c 128,-1,9
 493 134 493 134 516 191 c 128,-1,10
 539 248 539 248 539 308 c 0,11,12
 539 351 539 351 526.5 391 c 128,-1,13
 514 431 514 431 490 461.5 c 128,-1,14
 466 492 466 492 431.5 510 c 128,-1,15
 397 528 397 528 353 528 c 0,16,17
 326 528 326 528 297.5 520.5 c 128,-1,18
 269 513 269 513 241.5 498 c 128,-1,19
 214 483 214 483 189.5 463 c 128,-1,20
 165 443 165 443 145 419 c 1,21,-1
 207 710 l 1,22,-1
 164 710 l 1,23,-1
 -32 -213 l 1,24,-1
 11 -213 l 1,0,-1
247 29 m 0,25,26
 217 29 217 29 191 40 c 128,-1,27
 165 51 165 51 145.5 70 c 128,-1,28
 126 89 126 89 112 115 c 128,-1,29
 98 141 98 141 92 170 c 1,30,-1
 129 345 l 2,31,32
 138 373 138 373 162 399.5 c 128,-1,33
 186 426 186 426 216 446 c 128,-1,34
 246 466 246 466 278.5 478 c 128,-1,35
 311 490 311 490 337 490 c 0,36,37
 373 490 373 490 402 474.5 c 128,-1,38
 431 459 431 459 452 433.5 c 128,-1,39
 473 408 473 408 484 374 c 128,-1,40
 495 340 495 340 495 302 c 0,41,42
 495 254 495 254 475.5 205 c 128,-1,43
 456 156 456 156 422 117 c 128,-1,44
 388 78 388 78 343 53.5 c 128,-1,45
 298 29 298 29 247 29 c 0,25,26
EndSplineSet
EndChar

StartChar: Dcroat
Encoding: 272 272 210
Width: 694
GlyphClass: 1
Flags: W
LayerCount: 2
Fore
SplineSet
45 339 m 1,0,-1
 323 339 l 1,1,-1
 330 375 l 1,2,-1
 53 375 l 1,3,-1
 45 339 l 1,0,-1
36 0 m 1,4,-1
 259 0 l 2,5,6
 346 0 346 0 420.5 33.5 c 128,-1,7
 495 67 495 67 549.5 125.5 c 128,-1,8
 604 184 604 184 634.5 264.5 c 128,-1,9
 665 345 665 345 665 439 c 0,10,11
 665 496 665 496 649.5 545.5 c 128,-1,12
 634 595 634 595 603 631.5 c 128,-1,13
 572 668 572 668 523.5 689 c 128,-1,14
 475 710 475 710 410 710 c 2,15,-1
 187 710 l 1,16,-1
 36 0 l 1,4,-1
87 40 m 1,17,-1
 222 670 l 1,18,-1
 401 670 l 2,19,20
 456 670 456 670 497 652 c 128,-1,21
 538 634 538 634 565.5 602.5 c 128,-1,22
 593 571 593 571 607 527 c 128,-1,23
 621 483 621 483 621 431 c 0,24,25
 621 354 621 354 596.5 283 c 128,-1,26
 572 212 572 212 526.5 158 c 128,-1,27
 481 104 481 104 415.5 72 c 128,-1,28
 350 40 350 40 267 40 c 2,29,-1
 87 40 l 1,17,-1
EndSplineSet
EndChar

StartChar: dcroat
Encoding: 273 273 211
Width: 588
GlyphClass: 1
Flags: W
LayerCount: 2
Fore
SplineSet
424 622 m 1,0,-1
 650 622 l 1,1,-1
 656 654 l 1,2,-1
 431 654 l 1,3,-1
 424 622 l 1,0,-1
215 -10 m 0,4,5
 242 -10 242 -10 270.5 -2 c 128,-1,6
 299 6 299 6 326 21 c 128,-1,7
 353 36 353 36 378 57 c 128,-1,8
 403 78 403 78 423 103 c 1,9,-1
 401 0 l 1,10,-1
 444 0 l 1,11,-1
 599 730 l 1,12,-1
 556 730 l 1,13,-1
 487 405 l 1,14,15
 476 430 476 430 460.5 452.5 c 128,-1,16
 445 475 445 475 424.5 491.5 c 128,-1,17
 404 508 404 508 377.5 518 c 128,-1,18
 351 528 351 528 319 528 c 0,19,20
 262 528 262 528 209.5 501 c 128,-1,21
 157 474 157 474 117 429.5 c 128,-1,22
 77 385 77 385 52.5 328 c 128,-1,23
 28 271 28 271 28 210 c 0,24,25
 28 166 28 166 40.5 126.5 c 128,-1,26
 53 87 53 87 77 56.5 c 128,-1,27
 101 26 101 26 136 8 c 128,-1,28
 171 -10 171 -10 215 -10 c 0,4,5
230 29 m 0,29,30
 194 29 194 29 165 44 c 128,-1,31
 136 59 136 59 115 84 c 128,-1,32
 94 109 94 109 83 143.5 c 128,-1,33
 72 178 72 178 72 216 c 0,34,35
 72 264 72 264 91.5 313 c 128,-1,36
 111 362 111 362 145 401 c 128,-1,37
 179 440 179 440 224 465 c 128,-1,38
 269 490 269 490 319 490 c 0,39,40
 347 490 347 490 373.5 478.5 c 128,-1,41
 400 467 400 467 421.5 448 c 128,-1,42
 443 429 443 429 457.5 403.5 c 128,-1,43
 472 378 472 378 475 348 c 1,44,-1
 438 174 l 2,45,46
 430 144 430 144 406.5 117.5 c 128,-1,47
 383 91 383 91 352.5 71.5 c 128,-1,48
 322 52 322 52 289.5 40.5 c 128,-1,49
 257 29 257 29 230 29 c 0,29,30
EndSplineSet
EndChar

StartChar: hcircumflex
Encoding: 293 293 231
Width: 549
GlyphClass: 1
Flags: W
LayerCount: 2
Fore
SplineSet
13 0 m 1,0,-1
 56 0 l 1,1,-1
 125 324 l 1,2,3
 141 359 141 359 167 389 c 128,-1,4
 193 419 193 419 223 441 c 128,-1,5
 253 463 253 463 286 476 c 128,-1,6
 319 489 319 489 349 489 c 0,7,8
 396 489 396 489 419.5 460.5 c 128,-1,9
 443 432 443 432 443 376 c 0,10,11
 443 358 443 358 440 336.5 c 128,-1,12
 437 315 437 315 432 290 c 2,13,-1
 371 0 l 1,14,-1
 414 0 l 1,15,-1
 476 297 l 2,16,17
 482 323 482 323 485 347.5 c 128,-1,18
 488 372 488 372 488 392 c 0,19,20
 488 425 488 425 480.5 450.5 c 128,-1,21
 473 476 473 476 458.5 493 c 128,-1,22
 444 510 444 510 421.5 519 c 128,-1,23
 399 528 399 528 369 528 c 0,24,25
 338 528 338 528 306.5 518.5 c 128,-1,26
 275 509 275 509 245 491.5 c 128,-1,27
 215 474 215 474 188 449 c 128,-1,28
 161 424 161 424 139 393 c 1,29,-1
 211 730 l 1,30,-1
 168 730 l 1,31,-1
 13 0 l 1,0,-1
428 919 m 1,32,-1
 378 919 l 1,33,-1
 266 796 l 1,34,-1
 294 796 l 1,35,-1
 428 919 l 1,32,-1
385 919 m 1,36,-1
 469 796 l 1,37,-1
 497 796 l 1,38,-1
 435 919 l 1,39,-1
 385 919 l 1,36,-1
EndSplineSet
EndChar

StartChar: Hbar
Encoding: 294 294 232
Width: 714
GlyphClass: 1
Flags: W
LayerCount: 2
Fore
SplineSet
103 552 m 1,0,-1
 718 552 l 1,1,-1
 724 581 l 1,2,-1
 110 581 l 1,3,-1
 103 552 l 1,0,-1
33 0 m 1,4,-1
 77 0 l 1,5,-1
 150 343 l 1,6,-1
 583 343 l 1,7,-1
 510 0 l 1,8,-1
 553 0 l 1,9,-1
 704 710 l 1,10,-1
 661 710 l 1,11,-1
 591 383 l 1,12,-1
 158 383 l 1,13,-1
 228 710 l 1,14,-1
 184 710 l 1,15,-1
 33 0 l 1,4,-1
EndSplineSet
EndChar

StartChar: hbar
Encoding: 295 295 233
Width: 549
GlyphClass: 1
Flags: W
LayerCount: 2
Fore
SplineSet
76 622 m 1,0,-1
 300 622 l 1,1,-1
 307 654 l 1,2,-1
 82 654 l 1,3,-1
 76 622 l 1,0,-1
13 0 m 1,4,-1
 56 0 l 1,5,-1
 125 324 l 1,6,7
 141 359 141 359 167 389 c 128,-1,8
 193 419 193 419 223 441 c 128,-1,9
 253 463 253 463 286 476 c 128,-1,10
 319 489 319 489 349 489 c 0,11,12
 396 489 396 489 419.5 460.5 c 128,-1,13
 443 432 443 432 443 376 c 0,14,15
 443 358 443 358 440 336.5 c 128,-1,16
 437 315 437 315 432 290 c 2,17,-1
 371 0 l 1,18,-1
 414 0 l 1,19,-1
 476 297 l 2,20,21
 482 323 482 323 485 347.5 c 128,-1,22
 488 372 488 372 488 392 c 0,23,24
 488 425 488 425 480.5 450.5 c 128,-1,25
 473 476 473 476 458.5 493 c 128,-1,26
 444 510 444 510 421.5 519 c 128,-1,27
 399 528 399 528 369 528 c 0,28,29
 338 528 338 528 306.5 518.5 c 128,-1,30
 275 509 275 509 245 491.5 c 128,-1,31
 215 474 215 474 188 449 c 128,-1,32
 161 424 161 424 139 393 c 1,33,-1
 211 730 l 1,34,-1
 168 730 l 1,35,-1
 13 0 l 1,4,-1
EndSplineSet
EndChar

StartChar: dotlessi
Encoding: 305 305 243
Width: 197
GlyphClass: 1
Flags: W
LayerCount: 2
Fore
SplineSet
13 0 m 1,0,-1
 56 0 l 1,1,-1
 166 520 l 1,2,-1
 123 520 l 1,3,-1
 13 0 l 1,0,-1
EndSplineSet
EndChar

StartChar: kgreenlandic
Encoding: 312 312 248
Width: 495
GlyphClass: 1
Flags: W
LayerCount: 2
Fore
SplineSet
13 0 m 1,0,-1
 56 0 l 1,1,-1
 91 166 l 1,2,-1
 235 283 l 1,3,-1
 371 0 l 1,4,-1
 419 0 l 1,5,-1
 270 309 l 1,6,-1
 522 518 l 1,7,-1
 472 518 l 1,8,-1
 101 214 l 1,9,-1
 166 520 l 1,10,-1
 123 520 l 1,11,-1
 13 0 l 1,0,-1
EndSplineSet
EndChar

StartChar: Lslash
Encoding: 321 321 257
Width: 562
GlyphClass: 1
Flags: W
LayerCount: 2
Fore
SplineSet
27 225 m 1,0,-1
 365 495 l 1,1,-1
 353 522 l 1,2,-1
 15 252 l 1,3,-1
 27 225 l 1,0,-1
29 0 m 1,4,-1
 478 0 l 1,5,-1
 487 40 l 1,6,-1
 80 40 l 1,7,-1
 223 710 l 1,8,-1
 180 710 l 1,9,-1
 29 0 l 1,4,-1
EndSplineSet
EndChar

StartChar: lslash
Encoding: 322 322 258
Width: 259
GlyphClass: 1
Flags: W
LayerCount: 2
Fore
SplineSet
31 297 m 1,0,-1
 285 494 l 1,1,-1
 272 519 l 1,2,-1
 19 323 l 1,3,-1
 31 297 l 1,0,-1
118 -6 m 0,4,5
 135 -6 135 -6 158.5 -1.5 c 128,-1,6
 182 3 182 3 199 9 c 1,7,-1
 198 44 l 1,8,9
 184 39 184 39 169.5 36.5 c 128,-1,10
 155 34 155 34 144 34 c 0,11,12
 120 34 120 34 107 45.5 c 128,-1,13
 94 57 94 57 94 79 c 0,14,15
 94 85 94 85 95 90 c 128,-1,16
 96 95 96 95 98 103 c 2,17,-1
 231 730 l 1,18,-1
 188 730 l 1,19,-1
 51 86 l 2,20,21
 49 79 49 79 49 72.5 c 128,-1,22
 49 66 49 66 49 60 c 0,23,24
 49 29 49 29 66.5 11.5 c 128,-1,25
 84 -6 84 -6 118 -6 c 0,4,5
EndSplineSet
EndChar

StartChar: Eng
Encoding: 330 330 265
Width: 740
GlyphClass: 1
Flags: W
LayerCount: 2
Fore
SplineSet
408 -175 m 0,0,1
 434 -175 434 -175 460.5 -164.5 c 128,-1,2
 487 -154 487 -154 510.5 -134.5 c 128,-1,3
 534 -115 534 -115 552 -88.5 c 128,-1,4
 570 -62 570 -62 576 -31 c 2,5,-1
 733 709 l 1,6,-1
 690 709 l 1,7,-1
 554 73 l 1,8,-1
 213 710 l 1,9,-1
 180 710 l 1,10,-1
 29 0 l 1,11,-1
 72 0 l 1,12,-1
 206 627 l 1,13,-1
 541 2 l 1,14,-1
 533 -32 l 2,15,16
 529 -54 529 -54 516.5 -73 c 128,-1,17
 504 -92 504 -92 487 -106 c 128,-1,18
 470 -120 470 -120 450.5 -128 c 128,-1,19
 431 -136 431 -136 413 -136 c 0,20,21
 394 -136 394 -136 375.5 -131 c 128,-1,22
 357 -126 357 -126 344 -111 c 1,23,-1
 315 -139 l 1,24,25
 331 -159 331 -159 355 -167 c 128,-1,26
 379 -175 379 -175 408 -175 c 0,0,1
EndSplineSet
EndChar

StartChar: eng
Encoding: 331 331 266
Width: 549
GlyphClass: 1
Flags: W
LayerCount: 2
Fore
SplineSet
240 -175 m 0,0,1
 265 -175 265 -175 291.5 -164.5 c 128,-1,2
 318 -154 318 -154 341.5 -134.5 c 128,-1,3
 365 -115 365 -115 382.5 -88 c 128,-1,4
 400 -61 400 -61 407 -30 c 2,5,-1
 476 297 l 2,6,7
 483 327 483 327 486.5 353.5 c 128,-1,8
 490 380 490 380 490 403 c 0,9,10
 490 434 490 434 483 457.5 c 128,-1,11
 476 481 476 481 462.5 496.5 c 128,-1,12
 449 512 449 512 428.5 520 c 128,-1,13
 408 528 408 528 378 528 c 0,14,15
 345 528 345 528 311.5 518.5 c 128,-1,16
 278 509 278 509 246 491 c 128,-1,17
 214 473 214 473 186 448.5 c 128,-1,18
 158 424 158 424 137 393 c 1,19,-1
 163 520 l 1,20,-1
 123 520 l 1,21,-1
 13 0 l 1,22,-1
 56 0 l 1,23,-1
 125 324 l 1,24,25
 142 359 142 359 168.5 389.5 c 128,-1,26
 195 420 195 420 226.5 442 c 128,-1,27
 258 464 258 464 292.5 476.5 c 128,-1,28
 327 489 327 489 358 489 c 0,29,30
 402 489 402 489 423 464 c 128,-1,31
 444 439 444 439 444 386 c 0,32,33
 444 366 444 366 441.5 342.5 c 128,-1,34
 439 319 439 319 432 290 c 2,35,-1
 364 -32 l 2,36,37
 359 -54 359 -54 346.5 -73 c 128,-1,38
 334 -92 334 -92 317 -106 c 128,-1,39
 300 -120 300 -120 281 -128 c 128,-1,40
 262 -136 262 -136 244 -136 c 0,41,42
 225 -136 225 -136 206.5 -131 c 128,-1,43
 188 -126 188 -126 175 -111 c 1,44,-1
 146 -139 l 1,45,46
 161 -159 161 -159 185.5 -167 c 128,-1,47
 210 -175 210 -175 240 -175 c 0,0,1
EndSplineSet
EndChar

StartChar: OE
Encoding: 338 338 273
Width: 1125
GlyphClass: 1
Flags: W
LayerCount: 2
Fore
SplineSet
299 -5 m 0,0,1
 346 -5 346 -5 391 11.5 c 128,-1,2
 436 28 436 28 477.5 57 c 128,-1,3
 519 86 519 86 554 125 c 128,-1,4
 589 164 589 164 615 208 c 1,5,-1
 570 0 l 1,6,-1
 1016 0 l 1,7,-1
 1024 40 l 1,8,-1
 623 40 l 1,9,-1
 687 343 l 1,10,-1
 1029 343 l 1,11,-1
 1038 383 l 1,12,-1
 696 383 l 1,13,-1
 756 670 l 1,14,-1
 1150 670 l 1,15,-1
 1159 710 l 1,16,-1
 721 710 l 1,17,-1
 677 501 l 1,18,19
 671 545 671 545 653 584 c 128,-1,20
 635 623 635 623 606.5 652 c 128,-1,21
 578 681 578 681 539 698 c 128,-1,22
 500 715 500 715 451 715 c 0,23,24
 374 715 374 715 301.5 679 c 128,-1,25
 229 643 229 643 173 583 c 128,-1,26
 117 523 117 523 83 446 c 128,-1,27
 49 369 49 369 49 288 c 0,28,29
 49 231 49 231 65.5 178 c 128,-1,30
 82 125 82 125 114 84.5 c 128,-1,31
 146 44 146 44 192.5 19.5 c 128,-1,32
 239 -5 239 -5 299 -5 c 0,0,1
306 35 m 0,33,34
 256 35 256 35 216.5 56 c 128,-1,35
 177 77 177 77 149.5 112 c 128,-1,36
 122 147 122 147 107.5 194 c 128,-1,37
 93 241 93 241 93 292 c 0,38,39
 93 361 93 361 121 429.5 c 128,-1,40
 149 498 149 498 197 552 c 128,-1,41
 245 606 245 606 308.5 640.5 c 128,-1,42
 372 675 372 675 442 675 c 0,43,44
 492 675 492 675 531 654 c 128,-1,45
 570 633 570 633 597 597.5 c 128,-1,46
 624 562 624 562 638.5 515.5 c 128,-1,47
 653 469 653 469 653 417 c 0,48,49
 653 349 653 349 625 281 c 128,-1,50
 597 213 597 213 550 158.5 c 128,-1,51
 503 104 503 104 440 69.5 c 128,-1,52
 377 35 377 35 306 35 c 0,33,34
EndSplineSet
EndChar

StartChar: Tbar
Encoding: 358 358 293
Width: 616
GlyphClass: 1
Flags: W
LayerCount: 2
Fore
SplineSet
83 386 m 1,0,-1
 565 386 l 1,1,-1
 571 415 l 1,2,-1
 89 415 l 1,3,-1
 83 386 l 1,0,-1
221 0 m 1,4,-1
 264 0 l 1,5,-1
 406 670 l 1,6,-1
 655 670 l 1,7,-1
 664 710 l 1,8,-1
 122 710 l 1,9,-1
 114 670 l 1,10,-1
 363 670 l 1,11,-1
 221 0 l 1,4,-1
EndSplineSet
EndChar

StartChar: tbar
Encoding: 359 359 294
Width: 301
GlyphClass: 1
Flags: W
LayerCount: 2
Fore
SplineSet
25 310 m 1,0,-1
 253 310 l 1,1,-1
 260 342 l 1,2,-1
 31 342 l 1,3,-1
 25 310 l 1,0,-1
48 63 m 0,4,5
 48 31 48 31 70.5 12.5 c 128,-1,6
 93 -6 93 -6 127 -6 c 0,7,8
 147 -6 147 -6 164.5 -2 c 128,-1,9
 182 2 182 2 196.5 7 c 128,-1,10
 211 12 211 12 221 17.5 c 128,-1,11
 231 23 231 23 234 25 c 2,12,-1
 228 59 l 1,13,14
 226 57 226 57 218 53 c 128,-1,15
 210 49 210 49 199 45 c 128,-1,16
 188 41 188 41 174 38 c 128,-1,17
 160 35 160 35 145 35 c 0,18,19
 124 35 124 35 109 46.5 c 128,-1,20
 94 58 94 58 94 82 c 0,21,22
 94 88 94 88 95.5 97.5 c 128,-1,23
 97 107 97 107 102 127 c 2,24,-1
 178 484 l 1,25,-1
 294 484 l 1,26,-1
 302 520 l 1,27,-1
 186 520 l 1,28,-1
 224 699 l 1,29,-1
 181 699 l 1,30,-1
 143 520 l 1,31,-1
 73 520 l 1,32,-1
 65 484 l 1,33,-1
 135 484 l 1,34,-1
 50 84 l 2,35,36
 49 78 49 78 48.5 73 c 128,-1,37
 48 68 48 68 48 63 c 0,4,5
EndSplineSet
EndChar

StartChar: uni018F
Encoding: 399 399 318
Width: 707
GlyphClass: 1
Flags: W
LayerCount: 2
Fore
SplineSet
281 -8 m 0,0,1
 356 -8 356 -8 427.5 26.5 c 128,-1,2
 499 61 499 61 555 119.5 c 128,-1,3
 611 178 611 178 645 256 c 128,-1,4
 679 334 679 334 679 421 c 0,5,6
 679 483 679 483 661.5 536.5 c 128,-1,7
 644 590 644 590 611.5 630 c 128,-1,8
 579 670 579 670 533 692.5 c 128,-1,9
 487 715 487 715 431 715 c 0,10,11
 389 715 389 715 345 702.5 c 128,-1,12
 301 690 301 690 260.5 667 c 128,-1,13
 220 644 220 644 186.5 613 c 128,-1,14
 153 582 153 582 130 545 c 1,15,-1
 168 526 l 1,16,17
 187 559 187 559 215.5 586.5 c 128,-1,18
 244 614 244 614 277.5 633 c 128,-1,19
 311 652 311 652 347.5 662.5 c 128,-1,20
 384 673 384 673 420 673 c 0,21,22
 467 673 467 673 506 655 c 128,-1,23
 545 637 545 637 572.5 604 c 128,-1,24
 600 571 600 571 615.5 526 c 128,-1,25
 631 481 631 481 631 427 c 0,26,27
 631 413 631 413 629.5 399.5 c 128,-1,28
 628 386 628 386 627 372 c 1,29,-1
 46 372 l 1,30,31
 40 351 40 351 35 325 c 128,-1,32
 30 299 30 299 30 269 c 0,33,34
 30 209 30 209 48.5 158 c 128,-1,35
 67 107 67 107 99.5 70 c 128,-1,36
 132 33 132 33 178.5 12.5 c 128,-1,37
 225 -8 225 -8 281 -8 c 0,0,1
288 33 m 0,38,39
 233 33 233 33 193.5 52.5 c 128,-1,40
 154 72 154 72 127.5 104.5 c 128,-1,41
 101 137 101 137 88 178.5 c 128,-1,42
 75 220 75 220 75 265 c 0,43,44
 75 282 75 282 76.5 298.5 c 128,-1,45
 78 315 78 315 82 331 c 1,46,-1
 618 331 l 1,47,48
 605 268 605 268 572.5 213.5 c 128,-1,49
 540 159 540 159 495.5 119 c 128,-1,50
 451 79 451 79 397.5 56 c 128,-1,51
 344 33 344 33 288 33 c 0,38,39
EndSplineSet
EndChar

StartChar: florin
Encoding: 402 402 319
Width: 495
GlyphClass: 1
Flags: W
LayerCount: 2
Fore
SplineSet
31 -175 m 0,0,1
 56 -175 56 -175 82.5 -164.5 c 128,-1,2
 109 -154 109 -154 132.5 -134.5 c 128,-1,3
 156 -115 156 -115 174 -88.5 c 128,-1,4
 192 -62 192 -62 198 -31 c 2,5,-1
 295 423 l 1,6,-1
 437 423 l 1,7,-1
 444 459 l 1,8,-1
 303 459 l 1,9,-1
 320 539 l 2,10,11
 337 618 337 618 372 660 c 128,-1,12
 407 702 407 702 457 702 c 0,13,14
 478 702 478 702 496.5 695 c 128,-1,15
 515 688 515 688 524 677 c 1,16,-1
 548 707 l 1,17,18
 535 722 535 722 510.5 731 c 128,-1,19
 486 740 486 740 458 740 c 0,20,21
 426 740 426 740 397.5 726 c 128,-1,22
 369 712 369 712 345.5 686.5 c 128,-1,23
 322 661 322 661 304.5 623 c 128,-1,24
 287 585 287 585 277 538 c 2,25,-1
 261 459 l 1,26,-1
 190 459 l 1,27,-1
 183 423 l 1,28,-1
 252 423 l 1,29,-1
 156 -32 l 2,30,31
 151 -54 151 -54 138.5 -73 c 128,-1,32
 126 -92 126 -92 109 -106 c 128,-1,33
 92 -120 92 -120 73 -128 c 128,-1,34
 54 -136 54 -136 36 -136 c 0,35,36
 17 -136 17 -136 -1.5 -131 c 128,-1,37
 -20 -126 -20 -126 -33 -111 c 1,38,-1
 -63 -139 l 1,39,40
 -47 -159 -47 -159 -22.5 -167 c 128,-1,41
 2 -175 2 -175 31 -175 c 0,0,1
EndSplineSet
EndChar

StartChar: Aringacute
Encoding: 506 506 328
Width: 649
GlyphClass: 1
Flags: W
LayerCount: 2
Fore
SplineSet
-42 0 m 1,0,-1
 5 0 l 1,1,-1
 151 239 l 1,2,-1
 478 239 l 1,3,-1
 523 0 l 1,4,-1
 570 0 l 1,5,-1
 434 710 l 1,6,-1
 397 710 l 1,7,-1
 -42 0 l 1,0,-1
170 275 m 1,8,-1
 404 656 l 1,9,-1
 474 275 l 1,10,-1
 170 275 l 1,8,-1
592 966 m 1,11,-1
 538 966 l 1,12,-1
 421 809 l 1,13,-1
 452 809 l 1,14,-1
 592 966 l 1,11,-1
364 756 m 0,15,16
 364 734 364 734 377.5 720.5 c 128,-1,17
 391 707 391 707 415 707 c 0,18,19
 446 707 446 707 469 728 c 128,-1,20
 492 749 492 749 492 780 c 0,21,22
 492 802 492 802 478.5 815.5 c 128,-1,23
 465 829 465 829 441 829 c 0,24,25
 411 829 411 829 387.5 808 c 128,-1,26
 364 787 364 787 364 756 c 0,15,16
436 808 m 0,27,28
 450 808 450 808 459 799 c 128,-1,29
 468 790 468 790 468 776 c 0,30,31
 468 755 468 755 452 741.5 c 128,-1,32
 436 728 436 728 420 728 c 0,33,34
 406 728 406 728 397.5 737.5 c 128,-1,35
 389 747 389 747 389 760 c 0,36,37
 389 782 389 782 403.5 795 c 128,-1,38
 418 808 418 808 436 808 c 0,27,28
EndSplineSet
EndChar

StartChar: uni0237
Encoding: 567 567 370
Width: 197
GlyphClass: 1
Flags: W
LayerCount: 2
Fore
SplineSet
-118 -175 m 0,0,1
 -93 -175 -93 -175 -66.5 -164.5 c 128,-1,2
 -40 -154 -40 -154 -16.5 -134.5 c 128,-1,3
 7 -115 7 -115 24.5 -88 c 128,-1,4
 42 -61 42 -61 49 -30 c 2,5,-1
 166 520 l 1,6,-1
 123 520 l 1,7,-1
 6 -32 l 2,8,9
 1 -54 1 -54 -11.5 -73 c 128,-1,10
 -24 -92 -24 -92 -40.5 -106 c 128,-1,11
 -57 -120 -57 -120 -76.5 -128 c 128,-1,12
 -96 -136 -96 -136 -114 -136 c 0,13,14
 -133 -136 -133 -136 -151.5 -131 c 128,-1,15
 -170 -126 -170 -126 -183 -111 c 1,16,-1
 -212 -139 l 1,17,18
 -197 -159 -197 -159 -172.5 -167 c 128,-1,19
 -148 -175 -148 -175 -118 -175 c 0,0,1
EndSplineSet
EndChar

StartChar: uni0259
Encoding: 601 601 371
Width: 554
GlyphClass: 1
Flags: W
LayerCount: 2
Fore
SplineSet
206 -10 m 0,0,1
 265 -10 265 -10 319.5 16 c 128,-1,2
 374 42 374 42 416 85.5 c 128,-1,3
 458 129 458 129 483.5 187 c 128,-1,4
 509 245 509 245 509 308 c 0,5,6
 509 354 509 354 495.5 394 c 128,-1,7
 482 434 482 434 457 464 c 128,-1,8
 432 494 432 494 396.5 511 c 128,-1,9
 361 528 361 528 317 528 c 0,10,11
 283 528 283 528 249 518.5 c 128,-1,12
 215 509 215 509 184 492 c 128,-1,13
 153 475 153 475 128 452 c 128,-1,14
 103 429 103 429 87 402 c 1,15,-1
 122 391 l 1,16,17
 136 414 136 414 157 432.5 c 128,-1,18
 178 451 178 451 202.5 464.5 c 128,-1,19
 227 478 227 478 254.5 485.5 c 128,-1,20
 282 493 282 493 308 493 c 0,21,22
 343 493 343 493 371.5 480 c 128,-1,23
 400 467 400 467 421 443 c 128,-1,24
 442 419 442 419 453.5 386 c 128,-1,25
 465 353 465 353 465 315 c 0,26,27
 465 305 465 305 464.5 295.5 c 128,-1,28
 464 286 464 286 462 276 c 1,29,-1
 25 276 l 1,30,31
 18 258 18 258 16 236 c 128,-1,32
 14 214 14 214 14 196 c 0,33,34
 14 152 14 152 27.5 114 c 128,-1,35
 41 76 41 76 66 48.5 c 128,-1,36
 91 21 91 21 126.5 5.5 c 128,-1,37
 162 -10 162 -10 206 -10 c 0,0,1
214 25 m 0,38,39
 178 25 178 25 149.5 38 c 128,-1,40
 121 51 121 51 100.5 74 c 128,-1,41
 80 97 80 97 68.5 129 c 128,-1,42
 57 161 57 161 57 201 c 0,43,44
 57 211 57 211 57.5 221.5 c 128,-1,45
 58 232 58 232 60 243 c 1,46,-1
 455 243 l 1,47,48
 443 197 443 197 419 156.5 c 128,-1,49
 395 116 395 116 362.5 87 c 128,-1,50
 330 58 330 58 292 41.5 c 128,-1,51
 254 25 254 25 214 25 c 0,38,39
EndSplineSet
EndChar

StartChar: uni02BC
Encoding: 700 700 375
Width: 184
GlyphClass: 1
Flags: W
LayerCount: 2
Fore
SplineSet
246 730 m 1,0,-1
 192 730 l 1,1,-1
 76 570 l 1,2,-1
 106 570 l 1,3,-1
 246 730 l 1,0,-1
EndSplineSet
EndChar

StartChar: uni02BE
Encoding: 702 702 376
Width: 138
GlyphClass: 1
Flags: W
LayerCount: 2
Fore
SplineSet
112 597 m 1,0,1
 126 597 126 597 140 604.5 c 128,-1,2
 154 612 154 612 164.5 626 c 128,-1,3
 175 640 175 640 181.5 658 c 128,-1,4
 188 676 188 676 188 697 c 0,5,6
 188 722 188 722 177.5 738.5 c 128,-1,7
 167 755 167 755 149 755 c 1,8,-1
 142 728 l 1,9,10
 152 728 152 728 159 718 c 128,-1,11
 166 708 166 708 166 691 c 0,12,13
 166 662 166 662 149.5 643 c 128,-1,14
 133 624 133 624 118 624 c 1,15,-1
 112 597 l 1,0,1
EndSplineSet
EndChar

StartChar: uni02BF
Encoding: 703 703 377
Width: 137
GlyphClass: 1
Flags: W
LayerCount: 2
Fore
SplineSet
172 624 m 1,0,1
 162 624 162 624 155.5 634.5 c 128,-1,2
 149 645 149 645 149 661 c 0,3,4
 149 690 149 690 164 709 c 128,-1,5
 179 728 179 728 196 728 c 1,6,-1
 203 755 l 1,7,8
 188 755 188 755 174.5 747 c 128,-1,9
 161 739 161 739 150 725.5 c 128,-1,10
 139 712 139 712 132.5 694 c 128,-1,11
 126 676 126 676 126 655 c 0,12,13
 126 630 126 630 137 613.5 c 128,-1,14
 148 597 148 597 166 597 c 1,15,-1
 172 624 l 1,0,1
EndSplineSet
EndChar

StartChar: uni02C8
Encoding: 712 712 380
Width: 159
GlyphClass: 1
Flags: W
LayerCount: 2
Fore
SplineSet
118 775 m 1,0,-1
 118 364 l 1,1,-1
 156 364 l 1,2,-1
 156 775 l 1,3,-1
 118 775 l 1,0,-1
EndSplineSet
EndChar

StartChar: uni02C9
Encoding: 713 713 381
Width: 363
GlyphClass: 1
Flags: W
LayerCount: 2
Fore
SplineSet
399 675 m 1,0,-1
 406 708 l 1,1,-1
 148 708 l 1,2,-1
 141 675 l 1,3,-1
 399 675 l 1,0,-1
EndSplineSet
EndChar

StartChar: uni02CB
Encoding: 715 715 382
Width: 174
GlyphClass: 1
Flags: W
LayerCount: 2
Fore
SplineSet
159 546 m 1,0,-1
 199 713 l 1,1,-1
 167 713 l 1,2,-1
 139 546 l 1,3,-1
 159 546 l 1,0,-1
EndSplineSet
EndChar

StartChar: uni02CC
Encoding: 716 716 383
Width: 159
GlyphClass: 1
Flags: W
LayerCount: 2
Fore
SplineSet
12 281 m 1,0,-1
 12 -130 l 1,1,-1
 51 -130 l 1,2,-1
 51 281 l 1,3,-1
 12 281 l 1,0,-1
EndSplineSet
EndChar

StartChar: hungarumlaut
Encoding: 733 733 389
Width: 311
GlyphClass: 1
Flags: W
LayerCount: 2
Fore
SplineSet
290 730 m 1,0,-1
 238 730 l 1,1,-1
 136 607 l 1,2,-1
 165 607 l 1,3,-1
 290 730 l 1,0,-1
311 730 m 1,4,-1
 259 730 l 1,5,-1
 157 607 l 1,6,-1
 186 607 l 1,7,-1
 311 730 l 1,4,-1
EndSplineSet
EndChar

StartChar: gravecomb
Encoding: 768 768 390
Width: 209
GlyphClass: 1
Flags: W
LayerCount: 2
Fore
SplineSet
76 760 m 1,0,-1
 181 600 l 1,1,-1
 210 600 l 1,2,-1
 128 760 l 1,3,-1
 76 760 l 1,0,-1
EndSplineSet
EndChar

StartChar: acutecomb
Encoding: 769 769 391
Width: 209
GlyphClass: 1
Flags: W
LayerCount: 2
Fore
SplineSet
229 760 m 1,0,-1
 175 760 l 1,1,-1
 59 600 l 1,2,-1
 89 600 l 1,3,-1
 229 760 l 1,0,-1
EndSplineSet
EndChar

StartChar: uni0302
Encoding: 770 770 392
Width: 315
GlyphClass: 1
Flags: W
LayerCount: 2
Fore
SplineSet
65 600 m 1,0,-1
 94 600 l 1,1,-1
 223 697 l 1,2,-1
 309 600 l 1,3,-1
 338 600 l 1,4,-1
 256 727 l 1,5,-1
 202 727 l 1,6,-1
 65 600 l 1,0,-1
EndSplineSet
EndChar

StartChar: tildecomb
Encoding: 771 771 393
Width: 384
GlyphClass: 1
Flags: W
LayerCount: 2
Fore
SplineSet
332 631 m 0,0,1
 359 631 359 631 378 641.5 c 128,-1,2
 397 652 397 652 409 666 c 128,-1,3
 421 680 421 680 427 693 c 128,-1,4
 433 706 433 706 434 710 c 1,5,-1
 404 710 l 1,6,7
 404 709 404 709 401 701 c 128,-1,8
 398 693 398 693 390.5 684.5 c 128,-1,9
 383 676 383 676 370.5 669 c 128,-1,10
 358 662 358 662 339 662 c 0,11,12
 321 662 321 662 308 668 c 128,-1,13
 295 674 295 674 283.5 681.5 c 128,-1,14
 272 689 272 689 259 695 c 128,-1,15
 246 701 246 701 227 701 c 0,16,17
 202 701 202 701 184.5 690.5 c 128,-1,18
 167 680 167 680 155 666 c 128,-1,19
 143 652 143 652 137.5 639 c 128,-1,20
 132 626 132 626 132 622 c 1,21,-1
 162 622 l 1,22,23
 162 624 162 624 165.5 632 c 128,-1,24
 169 640 169 640 176 648.5 c 128,-1,25
 183 657 183 657 193.5 663.5 c 128,-1,26
 204 670 204 670 220 670 c 0,27,28
 235 670 235 670 246 664 c 128,-1,29
 257 658 257 658 269 650.5 c 128,-1,30
 281 643 281 643 296 637 c 128,-1,31
 311 631 311 631 332 631 c 0,0,1
EndSplineSet
EndChar

StartChar: uni0304
Encoding: 772 772 394
Width: 370
GlyphClass: 1
Flags: W
LayerCount: 2
Fore
SplineSet
408 675 m 1,0,-1
 415 707 l 1,1,-1
 145 707 l 1,2,-1
 138 675 l 1,3,-1
 408 675 l 1,0,-1
EndSplineSet
EndChar

StartChar: uni0306
Encoding: 774 774 395
Width: 265
GlyphClass: 1
Flags: W
LayerCount: 2
Fore
SplineSet
219 667 m 0,0,1
 201 667 201 667 189.5 682 c 128,-1,2
 178 697 178 697 178 717 c 0,3,4
 178 720 178 720 178.5 723 c 128,-1,5
 179 726 179 726 180 730 c 1,6,-1
 150 730 l 1,7,8
 149 725 149 725 148.5 720.5 c 128,-1,9
 148 716 148 716 148 711 c 0,10,11
 148 681 148 681 166 661.5 c 128,-1,12
 184 642 184 642 214 642 c 0,13,14
 231 642 231 642 247 649 c 128,-1,15
 263 656 263 656 277 668 c 128,-1,16
 291 680 291 680 301 696 c 128,-1,17
 311 712 311 712 315 730 c 1,18,-1
 286 730 l 1,19,20
 278 704 278 704 258.5 685.5 c 128,-1,21
 239 667 239 667 219 667 c 0,0,1
EndSplineSet
EndChar

StartChar: uni0307
Encoding: 775 775 396
Width: 140
GlyphClass: 1
Flags: W
LayerCount: 2
Fore
SplineSet
96 684 m 0,0,1
 93 667 93 667 102.5 655 c 128,-1,2
 112 643 112 643 129 643 c 0,3,4
 138 643 138 643 146 646 c 128,-1,5
 154 649 154 649 161 654.5 c 128,-1,6
 168 660 168 660 173 667.5 c 128,-1,7
 178 675 178 675 179 684 c 0,8,9
 183 701 183 701 173 713 c 128,-1,10
 163 725 163 725 147 725 c 0,11,12
 138 725 138 725 129.5 721.5 c 128,-1,13
 121 718 121 718 114.5 712.5 c 128,-1,14
 108 707 108 707 103 700 c 128,-1,15
 98 693 98 693 96 684 c 0,0,1
EndSplineSet
EndChar

StartChar: uni0308
Encoding: 776 776 397
Width: 280
GlyphClass: 1
Flags: W
LayerCount: 2
Fore
SplineSet
107 643 m 0,0,1
 116 643 116 643 124 646 c 128,-1,2
 132 649 132 649 139 654.5 c 128,-1,3
 146 660 146 660 151 667.5 c 128,-1,4
 156 675 156 675 157 684 c 0,5,6
 161 701 161 701 151 713 c 128,-1,7
 141 725 141 725 125 725 c 0,8,9
 116 725 116 725 107.5 721.5 c 128,-1,10
 99 718 99 718 92.5 712.5 c 128,-1,11
 86 707 86 707 81 700 c 128,-1,12
 76 693 76 693 74 684 c 0,13,14
 71 667 71 667 80.5 655 c 128,-1,15
 90 643 90 643 107 643 c 0,0,1
290 643 m 0,16,17
 299 643 299 643 307 646 c 128,-1,18
 315 649 315 649 322 654.5 c 128,-1,19
 329 660 329 660 334 667.5 c 128,-1,20
 339 675 339 675 340 684 c 0,21,22
 344 701 344 701 334 713 c 128,-1,23
 324 725 324 725 308 725 c 0,24,25
 299 725 299 725 290.5 721.5 c 128,-1,26
 282 718 282 718 275.5 712.5 c 128,-1,27
 269 707 269 707 264 700 c 128,-1,28
 259 693 259 693 257 684 c 0,29,30
 254 667 254 667 263.5 655 c 128,-1,31
 273 643 273 643 290 643 c 0,16,17
EndSplineSet
EndChar

StartChar: hookabovecomb
Encoding: 777 777 398
Width: 228
GlyphClass: 1
Flags: W
LayerCount: 2
Fore
SplineSet
156 687 m 1,0,1
 176 700 176 700 188 705.5 c 128,-1,2
 200 711 200 711 213 711 c 0,3,4
 232 711 232 711 237 700.5 c 128,-1,5
 242 690 242 690 236 676 c 0,6,7
 231 664 231 664 218.5 651.5 c 128,-1,8
 206 639 206 639 182 621 c 1,9,-1
 192 604 l 1,10,11
 222 626 222 626 240.5 642.5 c 128,-1,12
 259 659 259 659 266 678 c 0,13,14
 277 705 277 705 266.5 721.5 c 128,-1,15
 256 738 256 738 228 738 c 0,16,17
 206 738 206 738 187 729.5 c 128,-1,18
 168 721 168 721 145 706 c 1,19,-1
 156 687 l 1,0,1
EndSplineSet
EndChar

StartChar: uni030A
Encoding: 778 778 399
Width: 225
GlyphClass: 1
Flags: W
LayerCount: 2
Fore
SplineSet
136 657 m 0,0,1
 136 635 136 635 149.5 621.5 c 128,-1,2
 163 608 163 608 186 608 c 0,3,4
 217 608 217 608 240 629 c 128,-1,5
 263 650 263 650 263 681 c 0,6,7
 263 703 263 703 250 716.5 c 128,-1,8
 237 730 237 730 213 730 c 0,9,10
 183 730 183 730 159.5 709 c 128,-1,11
 136 688 136 688 136 657 c 0,0,1
208 709 m 0,12,13
 222 709 222 709 231 700 c 128,-1,14
 240 691 240 691 240 677 c 0,15,16
 240 656 240 656 224 642.5 c 128,-1,17
 208 629 208 629 191 629 c 0,18,19
 177 629 177 629 168.5 638.5 c 128,-1,20
 160 648 160 648 160 662 c 0,21,22
 160 683 160 683 175 696 c 128,-1,23
 190 709 190 709 208 709 c 0,12,13
EndSplineSet
EndChar

StartChar: uni030B
Encoding: 779 779 400
Width: 311
GlyphClass: 1
Flags: W
LayerCount: 2
Fore
SplineSet
408 760 m 1,0,-1
 355 760 l 1,1,-1
 221 600 l 1,2,-1
 252 600 l 1,3,-1
 408 760 l 1,0,-1
241 760 m 1,4,-1
 188 760 l 1,5,-1
 54 600 l 1,6,-1
 85 600 l 1,7,-1
 241 760 l 1,4,-1
EndSplineSet
EndChar

StartChar: uni030C
Encoding: 780 780 401
Width: 315
GlyphClass: 1
Flags: W
LayerCount: 2
Fore
SplineSet
93 727 m 1,0,-1
 175 600 l 1,1,-1
 229 600 l 1,2,-1
 366 727 l 1,3,-1
 337 727 l 1,4,-1
 208 630 l 1,5,-1
 122 727 l 1,6,-1
 93 727 l 1,0,-1
EndSplineSet
EndChar

StartChar: uni030F
Encoding: 783 783 402
Width: 311
GlyphClass: 1
Flags: W
LayerCount: 2
Fore
SplineSet
231 760 m 1,0,-1
 320 600 l 1,1,-1
 349 600 l 1,2,-1
 283 760 l 1,3,-1
 231 760 l 1,0,-1
66 760 m 1,4,-1
 154 600 l 1,5,-1
 183 600 l 1,6,-1
 118 760 l 1,7,-1
 66 760 l 1,4,-1
EndSplineSet
EndChar

StartChar: uni0311
Encoding: 785 785 403
Width: 264
GlyphClass: 1
Flags: W
LayerCount: 2
Fore
SplineSet
131 642 m 1,0,-1
 161 642 l 1,1,2
 166 667 166 667 183 685.5 c 128,-1,3
 200 704 200 704 228 704 c 0,4,5
 249 704 249 704 259 692.5 c 128,-1,6
 269 681 269 681 269 658 c 0,7,8
 269 654 269 654 268.5 650 c 128,-1,9
 268 646 268 646 267 642 c 1,10,-1
 296 642 l 1,11,12
 297 646 297 646 297 650.5 c 128,-1,13
 297 655 297 655 297 660 c 0,14,15
 297 688 297 688 280 709 c 128,-1,16
 263 730 263 730 231 730 c 0,17,18
 213 730 213 730 196.5 723 c 128,-1,19
 180 716 180 716 167 703.5 c 128,-1,20
 154 691 154 691 144.5 675.5 c 128,-1,21
 135 660 135 660 131 642 c 1,0,-1
EndSplineSet
EndChar

StartChar: uni0312
Encoding: 786 786 404
Width: 136
GlyphClass: 1
Flags: W
LayerCount: 2
Fore
SplineSet
81 605 m 1,0,-1
 133 605 l 1,1,-1
 236 728 l 1,2,-1
 207 728 l 1,3,-1
 81 605 l 1,0,-1
EndSplineSet
EndChar

StartChar: uni031B
Encoding: 795 795 405
Width: 234
GlyphClass: 1
Flags: W
LayerCount: 2
Fore
SplineSet
106 522 m 1,0,1
 123 522 123 522 140 524.5 c 128,-1,2
 157 527 157 527 172.5 531.5 c 128,-1,3
 188 536 188 536 201 542.5 c 128,-1,4
 214 549 214 549 223 558 c 256,5,6
 232 567 232 567 238.5 576 c 128,-1,7
 245 585 245 585 249.5 594.5 c 128,-1,8
 254 604 254 604 257.5 615.5 c 128,-1,9
 261 627 261 627 265 641 c 1,10,-1
 226 641 l 1,11,12
 221 619 221 619 215 604.5 c 128,-1,13
 209 590 209 590 198 580 c 0,14,15
 186 569 186 569 164 563 c 128,-1,16
 142 557 142 557 113 557 c 1,17,-1
 106 522 l 1,0,1
EndSplineSet
EndChar

StartChar: dotbelowcomb
Encoding: 803 803 406
Width: 140
GlyphClass: 1
Flags: W
LayerCount: 2
Fore
SplineSet
-60 -106 m 0,0,1
 -64 -123 -64 -123 -54.5 -135 c 128,-1,2
 -45 -147 -45 -147 -28 -147 c 0,3,4
 -19 -147 -19 -147 -11 -144 c 128,-1,5
 -3 -141 -3 -141 4 -135.5 c 128,-1,6
 11 -130 11 -130 16 -122.5 c 128,-1,7
 21 -115 21 -115 23 -106 c 0,8,9
 26 -89 26 -89 16.5 -77 c 128,-1,10
 7 -65 7 -65 -10 -65 c 0,11,12
 -19 -65 -19 -65 -27 -68.5 c 128,-1,13
 -35 -72 -35 -72 -42 -77.5 c 128,-1,14
 -49 -83 -49 -83 -53.5 -90 c 128,-1,15
 -58 -97 -58 -97 -60 -106 c 0,0,1
EndSplineSet
EndChar

StartChar: uni0324
Encoding: 804 804 407
Width: 280
GlyphClass: 1
Flags: W
LayerCount: 2
Fore
SplineSet
24 -147 m 0,0,1
 33 -147 33 -147 41.5 -143.5 c 128,-1,2
 50 -140 50 -140 56.5 -134.5 c 128,-1,3
 63 -129 63 -129 68 -121.5 c 128,-1,4
 73 -114 73 -114 74 -105 c 0,5,6
 78 -88 78 -88 68.5 -76.5 c 128,-1,7
 59 -65 59 -65 42 -65 c 0,8,9
 33 -65 33 -65 25 -68 c 128,-1,10
 17 -71 17 -71 10 -76.5 c 128,-1,11
 3 -82 3 -82 -2 -89.5 c 128,-1,12
 -7 -97 -7 -97 -8 -105 c 0,13,14
 -12 -122 -12 -122 -2.5 -134.5 c 128,-1,15
 7 -147 7 -147 24 -147 c 0,0,1
207 -147 m 0,16,17
 216 -147 216 -147 224.5 -143.5 c 128,-1,18
 233 -140 233 -140 239.5 -134.5 c 128,-1,19
 246 -129 246 -129 251 -121.5 c 128,-1,20
 256 -114 256 -114 257 -105 c 0,21,22
 261 -88 261 -88 251.5 -76.5 c 128,-1,23
 242 -65 242 -65 225 -65 c 0,24,25
 216 -65 216 -65 207.5 -68 c 128,-1,26
 199 -71 199 -71 192.5 -76.5 c 128,-1,27
 186 -82 186 -82 181.5 -89.5 c 128,-1,28
 177 -97 177 -97 175 -105 c 0,29,30
 171 -122 171 -122 180.5 -134.5 c 128,-1,31
 190 -147 190 -147 207 -147 c 0,16,17
EndSplineSet
EndChar

StartChar: uni0326
Encoding: 806 806 408
Width: 136
GlyphClass: 1
Flags: W
LayerCount: 2
Fore
SplineSet
45 -211 m 1,0,-1
 124 -50 l 1,1,-1
 73 -50 l 1,2,-1
 14 -211 l 1,3,-1
 45 -211 l 1,0,-1
EndSplineSet
EndChar

StartChar: uni0327
Encoding: 807 807 409
Width: 254
GlyphClass: 1
Flags: W
LayerCount: 2
Fore
SplineSet
-41 -151 m 1,0,1
 -20 -161 -20 -161 2 -165.5 c 128,-1,2
 24 -170 24 -170 47 -170 c 0,3,4
 65 -170 65 -170 83.5 -167 c 128,-1,5
 102 -164 102 -164 116.5 -155 c 128,-1,6
 131 -146 131 -146 140 -131.5 c 128,-1,7
 149 -117 149 -117 149 -95 c 0,8,9
 149 -69 149 -69 132 -59.5 c 128,-1,10
 115 -50 115 -50 92 -50 c 0,11,12
 81 -50 81 -50 71 -51 c 128,-1,13
 61 -52 61 -52 52 -56 c 1,14,-1
 96 1 l 1,15,-1
 74 13 l 1,16,-1
 1 -86 l 1,17,18
 21 -80 21 -80 41 -75.5 c 128,-1,19
 61 -71 61 -71 81 -71 c 0,20,21
 89 -71 89 -71 96 -72 c 128,-1,22
 103 -73 103 -73 108.5 -76.5 c 128,-1,23
 114 -80 114 -80 117.5 -85.5 c 128,-1,24
 121 -91 121 -91 121 -100 c 0,25,26
 121 -114 121 -114 115 -123 c 128,-1,27
 109 -132 109 -132 100 -137 c 128,-1,28
 91 -142 91 -142 79.5 -143.5 c 128,-1,29
 68 -145 68 -145 56 -145 c 0,30,31
 47 -145 47 -145 36.5 -144 c 128,-1,32
 26 -143 26 -143 16 -141 c 128,-1,33
 6 -139 6 -139 -4 -135.5 c 128,-1,34
 -14 -132 -14 -132 -23 -127 c 1,35,36
 -27 -133 -27 -133 -31.5 -139 c 128,-1,37
 -36 -145 -36 -145 -41 -151 c 1,0,1
EndSplineSet
EndChar

StartChar: uni0328
Encoding: 808 808 410
Width: 186
GlyphClass: 1
Flags: W
LayerCount: 2
Fore
SplineSet
-28 -116 m 0,0,1
 -28 -136 -28 -136 -15.5 -151 c 128,-1,2
 -3 -166 -3 -166 28 -172 c 1,3,-1
 47 -142 l 1,4,5
 24 -136 24 -136 13.5 -127.5 c 128,-1,6
 3 -119 3 -119 3 -105 c 0,7,8
 3 -84 3 -84 20 -60.5 c 128,-1,9
 37 -37 37 -37 81 0 c 1,10,-1
 75 14 l 1,11,-1
 64 14 l 1,12,13
 18 -24 18 -24 -5 -54 c 128,-1,14
 -28 -84 -28 -84 -28 -116 c 0,0,1
EndSplineSet
EndChar

StartChar: uni032E
Encoding: 814 814 411
Width: 239
GlyphClass: 1
Flags: W
LayerCount: 2
Fore
SplineSet
34 -135 m 0,0,1
 49 -135 49 -135 64 -127.5 c 128,-1,2
 79 -120 79 -120 91.5 -108 c 128,-1,3
 104 -96 104 -96 113.5 -80 c 128,-1,4
 123 -64 123 -64 127 -46 c 1,5,-1
 102 -46 l 1,6,7
 93 -73 93 -73 75.5 -91 c 128,-1,8
 58 -109 58 -109 41 -109 c 0,9,10
 22 -109 22 -109 12.5 -90 c 128,-1,11
 3 -71 3 -71 8 -46 c 1,12,-1
 -18 -46 l 1,13,14
 -27 -83 -27 -83 -11 -109 c 128,-1,15
 5 -135 5 -135 34 -135 c 0,0,1
EndSplineSet
EndChar

StartChar: uni0331
Encoding: 817 817 412
Width: 359
GlyphClass: 1
Flags: W
LayerCount: 2
Fore
SplineSet
230 -111 m 1,0,-1
 237 -78 l 1,1,-1
 -21 -78 l 1,2,-1
 -29 -111 l 1,3,-1
 230 -111 l 1,0,-1
EndSplineSet
EndChar

StartChar: uni0335
Encoding: 821 821 413
Width: 300
GlyphClass: 1
Flags: W
LayerCount: 2
Fore
SplineSet
255 290 m 1,0,-1
 263 322 l 1,1,-1
 64 322 l 1,2,-1
 57 290 l 1,3,-1
 255 290 l 1,0,-1
EndSplineSet
EndChar

StartChar: tonos
Encoding: 900 900 415
Width: 146
GlyphClass: 1
Flags: W
LayerCount: 2
Fore
SplineSet
185 779 m 1,0,-1
 114 577 l 1,1,-1
 148 571 l 1,2,-1
 222 773 l 1,3,-1
 185 779 l 1,0,-1
EndSplineSet
EndChar

StartChar: dieresistonos
Encoding: 901 901 416
Width: 340
GlyphClass: 1
Flags: W
LayerCount: 2
Fore
SplineSet
93 643 m 0,0,1
 87 624 87 624 98.5 608.5 c 128,-1,2
 110 593 110 593 131 593 c 0,3,4
 150 593 150 593 165 606 c 128,-1,5
 180 619 180 619 183 637 c 0,6,7
 188 658 188 658 177.5 671.5 c 128,-1,8
 167 685 167 685 146 685 c 0,9,10
 126 685 126 685 111 674 c 128,-1,11
 96 663 96 663 93 643 c 0,0,1
331 643 m 0,12,13
 326 624 326 624 337.5 608.5 c 128,-1,14
 349 593 349 593 370 593 c 0,15,16
 389 593 389 593 403.5 606 c 128,-1,17
 418 619 418 619 422 637 c 0,18,19
 427 658 427 658 416.5 671.5 c 128,-1,20
 406 685 406 685 385 685 c 0,21,22
 366 685 366 685 350.5 674 c 128,-1,23
 335 663 335 663 331 643 c 0,12,13
293 797 m 1,24,-1
 221 595 l 1,25,-1
 255 589 l 1,26,-1
 329 791 l 1,27,-1
 293 797 l 1,24,-1
EndSplineSet
EndChar

StartChar: Gamma
Encoding: 915 915 428
Width: 482
GlyphClass: 1
Flags: W
LayerCount: 2
Fore
SplineSet
173 714 m 1,0,-1
 619 714 l 1,1,-1
 608 674 l 1,2,-1
 205 674 l 1,3,-1
 28 10 l 1,4,-1
 -15 10 l 1,5,-1
 173 714 l 1,0,-1
EndSplineSet
EndChar

StartChar: uni0394
Encoding: 916 916 429
Width: 618
GlyphClass: 1
Flags: W
LayerCount: 2
Fore
SplineSet
-36 0 m 1,0,-1
 539 0 l 1,1,-1
 542 19 l 1,2,-1
 436 714 l 1,3,-1
 388 714 l 1,4,-1
 -32 19 l 1,5,-1
 -36 0 l 1,0,-1
28 40 m 1,6,-1
 268 431 l 1,7,-1
 400 658 l 1,8,-1
 404 658 l 1,9,-1
 435 431 l 1,10,-1
 492 40 l 1,11,-1
 28 40 l 1,6,-1
EndSplineSet
EndChar

StartChar: Eta
Encoding: 919 919 432
Width: 705
GlyphClass: 1
Flags: W
LayerCount: 2
Fore
SplineSet
23 0 m 1,0,-1
 66 0 l 1,1,-1
 138 340 l 1,2,-1
 567 340 l 1,3,-1
 495 0 l 1,4,-1
 538 0 l 1,5,-1
 688 704 l 1,6,-1
 645 704 l 1,7,-1
 576 380 l 1,8,-1
 146 380 l 1,9,-1
 215 704 l 1,10,-1
 172 704 l 1,11,-1
 23 0 l 1,0,-1
EndSplineSet
EndChar

StartChar: Theta
Encoding: 920 920 433
Width: 724
GlyphClass: 1
Flags: W
LayerCount: 2
Fore
SplineSet
151 336 m 1,0,-1
 590 336 l 1,1,-1
 599 378 l 1,2,-1
 161 378 l 1,3,-1
 151 336 l 1,0,-1
299 -5 m 0,4,5
 377 -5 377 -5 448.5 30 c 128,-1,6
 520 65 520 65 574 123.5 c 128,-1,7
 628 182 628 182 660 259 c 128,-1,8
 692 336 692 336 692 419 c 0,9,10
 692 474 692 474 677 526.5 c 128,-1,11
 662 579 662 579 631 619.5 c 128,-1,12
 600 660 600 660 553 684.5 c 128,-1,13
 506 709 506 709 441 709 c 0,14,15
 364 709 364 709 292.5 674 c 128,-1,16
 221 639 221 639 167 580.5 c 128,-1,17
 113 522 113 522 81 444.5 c 128,-1,18
 49 367 49 367 49 283 c 0,19,20
 49 227 49 227 64 175 c 128,-1,21
 79 123 79 123 110 83 c 128,-1,22
 141 43 141 43 188 19 c 128,-1,23
 235 -5 235 -5 299 -5 c 0,4,5
307 35 m 0,24,25
 252 35 252 35 211.5 55.5 c 128,-1,26
 171 76 171 76 144.5 110.5 c 128,-1,27
 118 145 118 145 105 191 c 128,-1,28
 92 237 92 237 92 287 c 0,29,30
 92 358 92 358 119 426.5 c 128,-1,31
 146 495 146 495 192 549 c 128,-1,32
 238 603 238 603 300 636 c 128,-1,33
 362 669 362 669 434 669 c 0,34,35
 489 669 489 669 529.5 648 c 128,-1,36
 570 627 570 627 596 592.5 c 128,-1,37
 622 558 622 558 635 512 c 128,-1,38
 648 466 648 466 648 417 c 0,39,40
 648 346 648 346 622 277.5 c 128,-1,41
 596 209 596 209 550 155 c 128,-1,42
 504 101 504 101 441.5 68 c 128,-1,43
 379 35 379 35 307 35 c 0,24,25
EndSplineSet
EndChar

StartChar: Lambda
Encoding: 923 923 436
Width: 649
GlyphClass: 1
Flags: W
LayerCount: 2
Fore
SplineSet
-29 0 m 1,0,-1
 22 0 l 1,1,-1
 271 417 l 1,2,-1
 417 666 l 1,3,-1
 421 666 l 1,4,-1
 456 417 l 1,5,-1
 514 0 l 1,6,-1
 562 0 l 1,7,-1
 459 714 l 1,8,-1
 402 714 l 1,9,-1
 -29 0 l 1,0,-1
EndSplineSet
EndChar

StartChar: Xi
Encoding: 926 926 439
Width: 617
GlyphClass: 1
Flags: W
LayerCount: 2
Fore
SplineSet
18 0 m 1,0,-1
 482 0 l 1,1,-1
 491 40 l 1,2,-1
 27 40 l 1,3,-1
 18 0 l 1,0,-1
162 344 m 1,4,-1
 492 344 l 1,5,-1
 501 384 l 1,6,-1
 171 384 l 1,7,-1
 162 344 l 1,4,-1
172 677 m 1,8,-1
 636 677 l 1,9,-1
 645 719 l 1,10,-1
 180 719 l 1,11,-1
 172 677 l 1,8,-1
EndSplineSet
EndChar

StartChar: Pi
Encoding: 928 928 441
Width: 628
GlyphClass: 1
Flags: W
LayerCount: 2
Fore
SplineSet
33 0 m 1,0,-1
 80 0 l 1,1,-1
 235 677 l 1,2,-1
 587 677 l 1,3,-1
 433 0 l 1,4,-1
 479 0 l 1,5,-1
 642 719 l 1,6,-1
 195 719 l 1,7,-1
 33 0 l 1,0,-1
EndSplineSet
EndChar

StartChar: Sigma
Encoding: 931 931 443
Width: 540
GlyphClass: 1
Flags: W
LayerCount: 2
Fore
SplineSet
-8 0 m 1,0,-1
 442 0 l 1,1,-1
 451 40 l 1,2,-1
 66 40 l 1,3,-1
 390 366 l 1,4,-1
 214 677 l 1,5,-1
 564 677 l 1,6,-1
 573 719 l 1,7,-1
 160 719 l 1,8,-1
 156 692 l 1,9,-1
 337 366 l 1,10,-1
 -2 27 l 1,11,-1
 -8 0 l 1,0,-1
EndSplineSet
EndChar

StartChar: Upsilon
Encoding: 933 933 445
Width: 612
GlyphClass: 1
Flags: W
LayerCount: 2
Fore
SplineSet
225 0 m 1,0,-1
 270 0 l 1,1,-1
 326 247 l 2,2,3
 342 314 342 314 372.5 372.5 c 128,-1,4
 403 431 403 431 445 483.5 c 128,-1,5
 487 536 487 536 540.5 584.5 c 128,-1,6
 594 633 594 633 655 681 c 1,7,-1
 627 714 l 1,8,9
 569 666 569 666 527 628.5 c 128,-1,10
 485 591 485 591 451.5 555.5 c 128,-1,11
 418 520 418 520 391.5 480.5 c 128,-1,12
 365 441 365 441 337 388 c 1,13,-1
 331 383 l 1,14,15
 327 436 327 436 318 475.5 c 128,-1,16
 309 515 309 515 292 551 c 128,-1,17
 275 587 275 587 249.5 624 c 128,-1,18
 224 661 224 661 188 709 c 1,19,-1
 151 682 l 1,20,21
 187 640 187 640 217.5 594.5 c 128,-1,22
 248 549 248 549 268 497.5 c 128,-1,23
 288 446 288 446 293 385.5 c 128,-1,24
 298 325 298 325 282 252 c 2,25,-1
 225 0 l 1,0,-1
EndSplineSet
EndChar

StartChar: Phi
Encoding: 934 934 446
Width: 698
GlyphClass: 1
Flags: W
LayerCount: 2
Fore
SplineSet
306 125 m 1,0,1
 254 125 254 125 213.5 142.5 c 128,-1,2
 173 160 173 160 148 190.5 c 128,-1,3
 123 221 123 221 114.5 263 c 128,-1,4
 106 305 106 305 117 355 c 0,5,6
 128 406 128 406 157 450.5 c 128,-1,7
 186 495 186 495 226.5 527 c 128,-1,8
 267 559 267 559 316 577 c 128,-1,9
 365 595 365 595 417 595 c 1,10,-1
 423 636 l 1,11,12
 361 636 361 636 303.5 615.5 c 128,-1,13
 246 595 246 595 199 558.5 c 128,-1,14
 152 522 152 522 119 472 c 128,-1,15
 86 422 86 422 73 362 c 0,16,17
 59 303 59 303 70 252 c 128,-1,18
 81 201 81 201 111.5 163.5 c 128,-1,19
 142 126 142 126 190 104.5 c 128,-1,20
 238 83 238 83 300 83 c 1,21,-1
 306 125 l 1,0,1
308 -27 m 1,22,-1
 484 746 l 1,23,-1
 438 746 l 1,24,-1
 264 -27 l 1,25,-1
 308 -27 l 1,22,-1
326 83 m 1,26,27
 388 83 388 83 445.5 103.5 c 128,-1,28
 503 124 503 124 549.5 160.5 c 128,-1,29
 596 197 596 197 628.5 247 c 128,-1,30
 661 297 661 297 674 355 c 0,31,32
 688 415 688 415 678 466.5 c 128,-1,33
 668 518 668 518 637.5 555.5 c 128,-1,34
 607 593 607 593 559 614.5 c 128,-1,35
 511 636 511 636 449 636 c 1,36,-1
 443 595 l 1,37,38
 495 595 495 595 535 577.5 c 128,-1,39
 575 560 575 560 600 529.5 c 128,-1,40
 625 499 625 499 633 456 c 128,-1,41
 641 413 641 413 629 362 c 0,42,43
 617 312 617 312 589 268.5 c 128,-1,44
 561 225 561 225 521.5 193 c 128,-1,45
 482 161 482 161 433 143 c 128,-1,46
 384 125 384 125 332 125 c 1,47,-1
 326 83 l 1,26,27
EndSplineSet
EndChar

StartChar: Psi
Encoding: 936 936 448
Width: 705
GlyphClass: 1
Flags: W
LayerCount: 2
Fore
SplineSet
273 0 m 1,0,-1
 319 0 l 1,1,-1
 482 714 l 1,2,-1
 435 714 l 1,3,-1
 273 0 l 1,0,-1
122 433 m 2,4,5
 109 374 109 374 115.5 328 c 128,-1,6
 122 282 122 282 148 250.5 c 128,-1,7
 174 219 174 219 218.5 202 c 128,-1,8
 263 185 263 185 324 185 c 1,9,-1
 331 224 l 1,10,11
 279 224 279 224 241.5 237.5 c 128,-1,12
 204 251 204 251 183 277 c 128,-1,13
 162 303 162 303 156.5 341 c 128,-1,14
 151 379 151 379 162 427 c 0,15,16
 165 439 165 439 170 457 c 128,-1,17
 175 475 175 475 181 498 c 128,-1,18
 187 521 187 521 192.5 547 c 128,-1,19
 198 573 198 573 204 598 c 0,20,21
 212 632 212 632 216 659.5 c 128,-1,22
 220 687 220 687 218 712 c 1,23,-1
 177 717 l 1,24,25
 177 697 177 697 175 680 c 128,-1,26
 173 663 173 663 171 648 c 128,-1,27
 169 633 169 633 166 619 c 128,-1,28
 163 605 163 605 159 588 c 2,29,-1
 122 433 l 2,4,5
694 583 m 2,30,31
 698 600 698 600 702 614.5 c 128,-1,32
 706 629 706 629 710.5 644 c 128,-1,33
 715 659 715 659 721 675.5 c 128,-1,34
 727 692 727 692 736 712 c 1,35,-1
 692 717 l 1,36,37
 686 705 686 705 681.5 692 c 128,-1,38
 677 679 677 679 672.5 665 c 128,-1,39
 668 651 668 651 665 636 c 128,-1,40
 662 621 662 621 659 605 c 0,41,42
 653 579 653 579 647.5 552.5 c 128,-1,43
 642 526 642 526 637.5 503.5 c 128,-1,44
 633 481 633 481 629.5 463 c 128,-1,45
 626 445 626 445 623 434 c 0,46,47
 611 385 611 385 587.5 346 c 128,-1,48
 564 307 564 307 530.5 280 c 128,-1,49
 497 253 497 253 454 238.5 c 128,-1,50
 411 224 411 224 359 224 c 1,51,-1
 354 185 l 1,52,53
 416 185 416 185 466.5 201.5 c 128,-1,54
 517 218 517 218 555.5 249 c 128,-1,55
 594 280 594 280 621 325 c 128,-1,56
 648 370 648 370 660 427 c 2,57,-1
 694 583 l 2,30,31
EndSplineSet
EndChar

StartChar: uni03A9
Encoding: 937 937 449
Width: 704
GlyphClass: 1
Flags: W
LayerCount: 2
Fore
SplineSet
9 0 m 1,0,-1
 250 0 l 1,1,-1
 277 129 l 1,2,3
 236 141 236 141 203.5 165.5 c 128,-1,4
 171 190 171 190 151.5 225.5 c 128,-1,5
 132 261 132 261 127 306 c 128,-1,6
 122 351 122 351 133 405 c 0,7,8
 146 463 146 463 176 513.5 c 128,-1,9
 206 564 206 564 247.5 600.5 c 128,-1,10
 289 637 289 637 340.5 658 c 128,-1,11
 392 679 392 679 448 679 c 0,12,13
 503 679 503 679 545 658.5 c 128,-1,14
 587 638 587 638 613 602 c 128,-1,15
 639 566 639 566 647 516 c 128,-1,16
 655 466 655 466 641 408 c 0,17,18
 629 355 629 355 602 309.5 c 128,-1,19
 575 264 575 264 538.5 227.5 c 128,-1,20
 502 191 502 191 457 166 c 128,-1,21
 412 141 412 141 365 129 c 1,22,-1
 338 0 l 1,23,-1
 580 0 l 1,24,-1
 589 43 l 1,25,-1
 370 43 l 1,26,-1
 388 19 l 1,27,-1
 410 120 l 1,28,-1
 390 93 l 1,29,30
 443 108 443 108 491 136.5 c 128,-1,31
 539 165 539 165 578 205 c 128,-1,32
 617 245 617 245 645.5 295.5 c 128,-1,33
 674 346 674 346 686 405 c 0,34,35
 701 470 701 470 691.5 528 c 128,-1,36
 682 586 682 586 651 629 c 128,-1,37
 620 672 620 672 570 697 c 128,-1,38
 520 722 520 722 454 722 c 0,39,40
 393 722 393 722 334 700 c 128,-1,41
 275 678 275 678 225.5 638 c 128,-1,42
 176 598 176 598 140 540.5 c 128,-1,43
 104 483 104 483 88 413 c 0,44,45
 75 354 75 354 80.5 303 c 128,-1,46
 86 252 86 252 108 211.5 c 128,-1,47
 130 171 130 171 165 141.5 c 128,-1,48
 200 112 200 112 246 96 c 1,49,-1
 234 120 l 1,50,-1
 212 19 l 1,51,-1
 240 43 l 1,52,-1
 18 43 l 1,53,-1
 9 0 l 1,0,-1
EndSplineSet
EndChar

StartChar: Iotadieresis
Encoding: 938 938 450
Width: 295
GlyphClass: 1
Flags: W
LayerCount: 2
Fore
SplineSet
29 0 m 1,0,-1
 72 0 l 1,1,-1
 221 703 l 1,2,-1
 178 703 l 1,3,-1
 29 0 l 1,0,-1
181 867 m 0,4,5
 177 849 177 849 185 837.5 c 128,-1,6
 193 826 193 826 209 826 c 0,7,8
 224 826 224 826 237 837.5 c 128,-1,9
 250 849 250 849 254 867 c 0,10,11
 258 883 258 883 250 895 c 128,-1,12
 242 907 242 907 226 907 c 256,13,14
 210 907 210 907 197 895 c 128,-1,15
 184 883 184 883 181 867 c 0,4,5
208 867 m 0,16,17
 205 849 205 849 212.5 837.5 c 128,-1,18
 220 826 220 826 237 826 c 0,19,20
 252 826 252 826 265 837.5 c 128,-1,21
 278 849 278 849 282 867 c 0,22,23
 285 883 285 883 277 895 c 128,-1,24
 269 907 269 907 254 907 c 0,25,26
 238 907 238 907 225 895 c 128,-1,27
 212 883 212 883 208 867 c 0,16,17
EndSplineSet
EndChar

StartChar: alphatonos
Encoding: 940 940 452
Width: 645
GlyphClass: 1
Flags: W
LayerCount: 2
Fore
SplineSet
461 253 m 2,0,1
 448 226 448 226 428 188.5 c 128,-1,2
 408 151 408 151 379 117 c 128,-1,3
 350 83 350 83 311 59.5 c 128,-1,4
 272 36 272 36 220 35 c 0,5,6
 180 36 180 36 151 52 c 128,-1,7
 122 68 122 68 105 96.5 c 128,-1,8
 88 125 88 125 84.5 164.5 c 128,-1,9
 81 204 81 204 92 252 c 0,10,11
 104 306 104 306 127 349 c 128,-1,12
 150 392 150 392 179.5 423 c 128,-1,13
 209 454 209 454 243.5 470.5 c 128,-1,14
 278 487 278 487 315 487 c 0,15,16
 349 487 349 487 371.5 471 c 128,-1,17
 394 455 394 455 407.5 429.5 c 128,-1,18
 421 404 421 404 427 371.5 c 128,-1,19
 433 339 433 339 435 304.5 c 128,-1,20
 437 270 437 270 436 237.5 c 128,-1,21
 435 205 435 205 434 180 c 1,22,-1
 473 228 l 1,23,24
 477 271 477 271 475.5 323.5 c 128,-1,25
 474 376 474 376 459.5 421.5 c 128,-1,26
 445 467 445 467 412.5 498 c 128,-1,27
 380 529 380 529 322 529 c 0,28,29
 276 529 276 529 233.5 509 c 128,-1,30
 191 489 191 489 155.5 453 c 128,-1,31
 120 417 120 417 93.5 367.5 c 128,-1,32
 67 318 67 318 54 258 c 0,33,34
 41 202 41 202 45.5 153 c 128,-1,35
 50 104 50 104 70.5 68.5 c 128,-1,36
 91 33 91 33 126.5 12.5 c 128,-1,37
 162 -8 162 -8 211 -8 c 0,38,39
 250 -8 250 -8 286 4.5 c 128,-1,40
 322 17 322 17 355 42 c 128,-1,41
 388 67 388 67 417 102.5 c 128,-1,42
 446 138 446 138 470 184 c 2,43,-1
 647 519 l 1,44,-1
 599 519 l 1,45,-1
 461 253 l 2,0,1
538 33 m 1,46,-1
 512 47 l 2,47,48
 502 53 502 53 493.5 65 c 128,-1,49
 485 77 485 77 478.5 93.5 c 128,-1,50
 472 110 472 110 468.5 131 c 128,-1,51
 465 152 465 152 465 178 c 1,52,-1
 427 152 l 1,53,54
 425 128 425 128 429 105.5 c 128,-1,55
 433 83 433 83 441 64.5 c 128,-1,56
 449 46 449 46 461.5 31 c 128,-1,57
 474 16 474 16 488 5 c 2,58,-1
 509 -8 l 1,59,-1
 538 33 l 1,46,-1
410 788 m 1,60,-1
 338 584 l 1,61,-1
 372 578 l 1,62,-1
 447 782 l 1,63,-1
 410 788 l 1,60,-1
EndSplineSet
EndChar

StartChar: epsilontonos
Encoding: 941 941 453
Width: 464
GlyphClass: 1
Flags: W
LayerCount: 2
Fore
SplineSet
359 56 m 1,0,1
 328 47 328 47 290.5 41.5 c 128,-1,2
 253 36 253 36 219 34 c 0,3,4
 144 36 144 36 106 63 c 128,-1,5
 68 90 68 90 78 140 c 0,6,7
 85 167 85 167 104.5 188 c 128,-1,8
 124 209 124 209 152.5 222.5 c 128,-1,9
 181 236 181 236 215.5 243 c 128,-1,10
 250 250 250 250 288 249 c 2,11,-1
 332 249 l 1,12,-1
 340 293 l 1,13,-1
 285 293 l 2,14,15
 255 293 255 293 229 300 c 128,-1,16
 203 307 203 307 185.5 320 c 128,-1,17
 168 333 168 333 160.5 351 c 128,-1,18
 153 369 153 369 158 391 c 0,19,20
 163 407 163 407 174 424 c 128,-1,21
 185 441 185 441 204.5 455 c 128,-1,22
 224 469 224 469 252 478 c 128,-1,23
 280 487 280 487 318 487 c 0,24,25
 333 487 333 487 351.5 485.5 c 128,-1,26
 370 484 370 484 388 481 c 128,-1,27
 406 478 406 478 420.5 473.5 c 128,-1,28
 435 469 435 469 444 464 c 1,29,-1
 465 506 l 1,30,31
 440 517 440 517 402 523 c 128,-1,32
 364 529 364 529 329 529 c 0,33,34
 282 529 282 529 245 518.5 c 128,-1,35
 208 508 208 508 182 490 c 128,-1,36
 156 472 156 472 140 449 c 128,-1,37
 124 426 124 426 118 401 c 0,38,39
 114 380 114 380 117.5 359.5 c 128,-1,40
 121 339 121 339 131 322.5 c 128,-1,41
 141 306 141 306 156 293.5 c 128,-1,42
 171 281 171 281 191 275 c 1,43,-1
 187 273 l 1,44,45
 160 267 160 267 135.5 255 c 128,-1,46
 111 243 111 243 91 225.5 c 128,-1,47
 71 208 71 208 57 186.5 c 128,-1,48
 43 165 43 165 37 139 c 0,49,50
 29 107 29 107 39 79.5 c 128,-1,51
 49 52 49 52 73 32.5 c 128,-1,52
 97 13 97 13 133.5 2.5 c 128,-1,53
 170 -8 170 -8 217 -8 c 0,54,55
 237 -8 237 -8 257 -6.5 c 128,-1,56
 277 -5 277 -5 295.5 -2.5 c 128,-1,57
 314 0 314 0 330 3 c 128,-1,58
 346 6 346 6 357 9 c 1,59,-1
 359 56 l 1,0,1
406 827 m 1,60,-1
 334 623 l 1,61,-1
 368 617 l 1,62,-1
 442 821 l 1,63,-1
 406 827 l 1,60,-1
EndSplineSet
EndChar

StartChar: etatonos
Encoding: 942 942 454
Width: 559
GlyphClass: 1
Flags: W
LayerCount: 2
Fore
SplineSet
65 -2 m 1,0,1
 96 94 96 94 121 179 c 128,-1,2
 146 264 146 264 163 343 c 0,3,4
 170 374 170 374 174 401 c 128,-1,5
 178 428 178 428 175 451.5 c 128,-1,6
 172 475 172 475 161.5 494 c 128,-1,7
 151 513 151 513 128 529 c 1,8,-1
 98 490 l 1,9,10
 110 483 110 483 118.5 474 c 128,-1,11
 127 465 127 465 130 447.5 c 128,-1,12
 133 430 133 430 129.5 400 c 128,-1,13
 126 370 126 370 114 322 c 0,14,15
 99 254 99 254 74.5 170 c 128,-1,16
 50 86 50 86 20 2 c 1,17,-1
 65 -2 l 1,0,1
313 -210 m 1,18,19
 331 -173 331 -173 354 -117 c 128,-1,20
 377 -61 377 -61 399.5 2.5 c 128,-1,21
 422 66 422 66 441.5 131.5 c 128,-1,22
 461 197 461 197 474 252 c 0,23,24
 507 396 507 396 485.5 462.5 c 128,-1,25
 464 529 464 529 384 529 c 0,26,27
 346 529 346 529 311.5 514.5 c 128,-1,28
 277 500 277 500 247 477 c 128,-1,29
 217 454 217 454 193 424 c 128,-1,30
 169 394 169 394 152 362 c 1,31,-1
 130 217 l 1,32,33
 141 263 141 263 164 310.5 c 128,-1,34
 187 358 187 358 219 396.5 c 128,-1,35
 251 435 251 435 289.5 459 c 128,-1,36
 328 483 328 483 370 483 c 0,37,38
 430 483 430 483 443.5 426 c 128,-1,39
 457 369 457 369 428 241 c 0,40,41
 418 197 418 197 403 145 c 128,-1,42
 388 93 388 93 368.5 36 c 128,-1,43
 349 -21 349 -21 324.5 -81.5 c 128,-1,44
 300 -142 300 -142 271 -203 c 1,45,-1
 313 -210 l 1,18,19
433 788 m 1,46,-1
 361 584 l 1,47,-1
 395 578 l 1,48,-1
 469 782 l 1,49,-1
 433 788 l 1,46,-1
EndSplineSet
EndChar

StartChar: iotatonos
Encoding: 943 943 455
Width: 265
GlyphClass: 1
Flags: W
LayerCount: 2
Fore
SplineSet
105 -8 m 0,0,1
 110 -8 110 -8 123.5 -7 c 128,-1,2
 137 -6 137 -6 154 1 c 1,3,-1
 148 43 l 1,4,5
 137 39 137 39 129.5 37 c 128,-1,6
 122 35 122 35 113 33 c 0,7,8
 102 34 102 34 96 38 c 128,-1,9
 90 42 90 42 88.5 52.5 c 128,-1,10
 87 63 87 63 89.5 80.5 c 128,-1,11
 92 98 92 98 98 126 c 0,12,13
 104 151 104 151 115.5 197 c 128,-1,14
 127 243 127 243 141 297.5 c 128,-1,15
 155 352 155 352 170.5 410 c 128,-1,16
 186 468 186 468 199 517 c 1,17,-1
 151 522 l 1,18,19
 137 466 137 466 123 410.5 c 128,-1,20
 109 355 109 355 96.5 301 c 128,-1,21
 84 247 84 247 72 195.5 c 128,-1,22
 60 144 60 144 50 96 c 0,23,24
 43 67 43 67 44.5 47 c 128,-1,25
 46 27 46 27 53.5 14.5 c 128,-1,26
 61 2 61 2 74.5 -3 c 128,-1,27
 88 -8 88 -8 105 -8 c 0,0,1
239 790 m 1,28,-1
 167 586 l 1,29,-1
 201 580 l 1,30,-1
 275 783 l 1,31,-1
 239 790 l 1,28,-1
EndSplineSet
EndChar

StartChar: upsilondieresistonos
Encoding: 944 944 456
Width: 537
GlyphClass: 1
Flags: W
LayerCount: 2
Fore
SplineSet
60 171 m 0,0,1
 48 121 48 121 57 86.5 c 128,-1,2
 66 52 66 52 89 31 c 128,-1,3
 112 10 112 10 144.5 1 c 128,-1,4
 177 -8 177 -8 211 -8 c 0,5,6
 254 -8 254 -8 293.5 6.5 c 128,-1,7
 333 21 333 21 366.5 53.5 c 128,-1,8
 400 86 400 86 427 138 c 128,-1,9
 454 190 454 190 471 267 c 0,10,11
 476 288 476 288 481.5 318.5 c 128,-1,12
 487 349 487 349 491.5 383 c 128,-1,13
 496 417 496 417 499.5 452 c 128,-1,14
 503 487 503 487 503 517 c 1,15,-1
 459 522 l 1,16,17
 460 488 460 488 456.5 452.5 c 128,-1,18
 453 417 453 417 449 385 c 128,-1,19
 445 353 445 353 439.5 324.5 c 128,-1,20
 434 296 434 296 429 276 c 0,21,22
 401 151 401 151 347 93.5 c 128,-1,23
 293 36 293 36 216 35 c 0,24,25
 188 36 188 36 164 43 c 128,-1,26
 140 50 140 50 123.5 65 c 128,-1,27
 107 80 107 80 100 105 c 128,-1,28
 93 130 93 130 100 166 c 0,29,30
 104 178 104 178 110 197.5 c 128,-1,31
 116 217 116 217 122 240.5 c 128,-1,32
 128 264 128 264 134.5 287.5 c 128,-1,33
 141 311 141 311 145 330 c 0,34,35
 151 357 151 357 154.5 380 c 128,-1,36
 158 403 158 403 160 425.5 c 128,-1,37
 162 448 162 448 162.5 470.5 c 128,-1,38
 163 493 163 493 162 517 c 1,39,-1
 121 522 l 1,40,41
 122 470 122 470 117.5 423 c 128,-1,42
 113 376 113 376 103 331 c 0,43,44
 98 309 98 309 91.5 285.5 c 128,-1,45
 85 262 85 262 78.5 240.5 c 128,-1,46
 72 219 72 219 67 201 c 128,-1,47
 62 183 62 183 60 171 c 0,0,1
167 651 m 0,48,49
 161 631 161 631 172.5 615.5 c 128,-1,50
 184 600 184 600 206 600 c 0,51,52
 224 600 224 600 239 613 c 128,-1,53
 254 626 254 626 257 644 c 0,54,55
 263 666 263 666 252.5 679.5 c 128,-1,56
 242 693 242 693 221 693 c 256,57,58
 200 693 200 693 185 682 c 128,-1,59
 170 671 170 671 167 651 c 0,48,49
408 651 m 0,60,61
 403 631 403 631 414.5 615.5 c 128,-1,62
 426 600 426 600 447 600 c 0,63,64
 466 600 466 600 481 613 c 128,-1,65
 496 626 496 626 500 644 c 0,66,67
 504 666 504 666 493.5 679.5 c 128,-1,68
 483 693 483 693 462 693 c 0,69,70
 444 693 444 693 428 682 c 128,-1,71
 412 671 412 671 408 651 c 0,60,61
369 807 m 1,72,-1
 297 602 l 1,73,-1
 331 596 l 1,74,-1
 405 801 l 1,75,-1
 369 807 l 1,72,-1
EndSplineSet
EndChar

StartChar: alpha
Encoding: 945 945 457
Width: 637
GlyphClass: 1
Flags: W
LayerCount: 2
Fore
SplineSet
461 253 m 2,0,1
 448 226 448 226 428 188.5 c 128,-1,2
 408 151 408 151 379 117 c 128,-1,3
 350 83 350 83 311 59.5 c 128,-1,4
 272 36 272 36 220 35 c 0,5,6
 180 36 180 36 151 52 c 128,-1,7
 122 68 122 68 105 96.5 c 128,-1,8
 88 125 88 125 84.5 164.5 c 128,-1,9
 81 204 81 204 92 252 c 0,10,11
 104 306 104 306 127 349 c 128,-1,12
 150 392 150 392 179.5 423 c 128,-1,13
 209 454 209 454 243.5 470.5 c 128,-1,14
 278 487 278 487 315 487 c 0,15,16
 349 487 349 487 371.5 471 c 128,-1,17
 394 455 394 455 407.5 429.5 c 128,-1,18
 421 404 421 404 427 371.5 c 128,-1,19
 433 339 433 339 435 304.5 c 128,-1,20
 437 270 437 270 436 237.5 c 128,-1,21
 435 205 435 205 434 180 c 1,22,-1
 473 228 l 1,23,24
 477 271 477 271 475.5 323.5 c 128,-1,25
 474 376 474 376 459.5 421.5 c 128,-1,26
 445 467 445 467 412.5 498 c 128,-1,27
 380 529 380 529 322 529 c 0,28,29
 276 529 276 529 233.5 509 c 128,-1,30
 191 489 191 489 155.5 453 c 128,-1,31
 120 417 120 417 93.5 367.5 c 128,-1,32
 67 318 67 318 54 258 c 0,33,34
 41 202 41 202 45.5 153 c 128,-1,35
 50 104 50 104 70.5 68.5 c 128,-1,36
 91 33 91 33 126.5 12.5 c 128,-1,37
 162 -8 162 -8 211 -8 c 0,38,39
 250 -8 250 -8 286 4.5 c 128,-1,40
 322 17 322 17 355 42 c 128,-1,41
 388 67 388 67 417 102.5 c 128,-1,42
 446 138 446 138 470 184 c 2,43,-1
 647 519 l 1,44,-1
 599 519 l 1,45,-1
 461 253 l 2,0,1
538 33 m 1,46,-1
 512 47 l 2,47,48
 502 53 502 53 493.5 65 c 128,-1,49
 485 77 485 77 478.5 93.5 c 128,-1,50
 472 110 472 110 468.5 131 c 128,-1,51
 465 152 465 152 465 178 c 1,52,-1
 427 152 l 1,53,54
 425 128 425 128 429 105.5 c 128,-1,55
 433 83 433 83 441 64.5 c 128,-1,56
 449 46 449 46 461.5 31 c 128,-1,57
 474 16 474 16 488 5 c 2,58,-1
 509 -8 l 1,59,-1
 538 33 l 1,46,-1
EndSplineSet
EndChar

StartChar: beta
Encoding: 946 946 458
Width: 629
GlyphClass: 1
Flags: W
LayerCount: 2
Fore
SplineSet
86 74 m 1,0,1
 105 52 105 52 128 36 c 128,-1,2
 151 20 151 20 176.5 10 c 128,-1,3
 202 0 202 0 228 -4 c 128,-1,4
 254 -8 254 -8 278 -8 c 0,5,6
 326 -8 326 -8 372 10 c 128,-1,7
 418 28 418 28 455 58.5 c 128,-1,8
 492 89 492 89 518.5 130 c 128,-1,9
 545 171 545 171 554 216 c 0,10,11
 564 257 564 257 559 293.5 c 128,-1,12
 554 330 554 330 534 358.5 c 128,-1,13
 514 387 514 387 480 406 c 128,-1,14
 446 425 446 425 399 429 c 1,15,-1
 402 433 l 1,16,17
 433 449 433 449 459 467 c 128,-1,18
 485 485 485 485 505 506 c 128,-1,19
 525 527 525 527 538.5 551.5 c 128,-1,20
 552 576 552 576 558 603 c 0,21,22
 565 635 565 635 560 665.5 c 128,-1,23
 555 696 555 696 536.5 719 c 128,-1,24
 518 742 518 742 486 756 c 128,-1,25
 454 770 454 770 407 769 c 0,26,27
 351 770 351 770 307.5 749 c 128,-1,28
 264 728 264 728 232.5 690 c 128,-1,29
 201 652 201 652 179.5 600 c 128,-1,30
 158 548 158 548 144 487 c 2,31,-1
 -14 -208 l 1,32,-1
 29 -211 l 1,33,34
 46 -139 46 -139 62 -64 c 128,-1,35
 78 11 78 11 91 73 c 2,36,-1
 98 101 l 2,37,38
 107 138 107 138 115 175 c 128,-1,39
 123 212 123 212 133 255.5 c 128,-1,40
 143 299 143 299 155 351.5 c 128,-1,41
 167 404 167 404 182 472 c 0,42,43
 196 529 196 529 215.5 576 c 128,-1,44
 235 623 235 623 262 656.5 c 128,-1,45
 289 690 289 690 324 708.5 c 128,-1,46
 359 727 359 727 404 727 c 0,47,48
 441 727 441 727 464.5 717 c 128,-1,49
 488 707 488 707 501 690 c 128,-1,50
 514 673 514 673 517 651.5 c 128,-1,51
 520 630 520 630 515 608 c 0,52,53
 509 581 509 581 491.5 553.5 c 128,-1,54
 474 526 474 526 444.5 502 c 128,-1,55
 415 478 415 478 374 458.5 c 128,-1,56
 333 439 333 439 282 428 c 1,57,-1
 277 390 l 1,58,59
 279 391 279 391 287.5 392 c 128,-1,60
 296 393 296 393 307.5 394 c 128,-1,61
 319 395 319 395 332.5 396 c 128,-1,62
 346 397 346 397 358 396 c 0,63,64
 403 397 403 397 436.5 384 c 128,-1,65
 470 371 470 371 490.5 347.5 c 128,-1,66
 511 324 511 324 518 292.5 c 128,-1,67
 525 261 525 261 517 224 c 0,68,69
 508 185 508 185 484.5 150 c 128,-1,70
 461 115 461 115 428.5 89 c 128,-1,71
 396 63 396 63 357 48 c 128,-1,72
 318 33 318 33 278 32 c 0,73,74
 258 33 258 33 234 37 c 128,-1,75
 210 41 210 41 185.5 51.5 c 128,-1,76
 161 62 161 62 138 79 c 128,-1,77
 115 96 115 96 97 122 c 1,78,-1
 86 74 l 1,0,1
EndSplineSet
EndChar

StartChar: gamma
Encoding: 947 947 459
Width: 507
GlyphClass: 1
Flags: W
LayerCount: 2
Fore
SplineSet
111 -211 m 1,0,1
 153 -97 153 -97 185 9.5 c 128,-1,2
 217 116 217 116 226 211 c 128,-1,3
 235 306 235 306 215 387 c 128,-1,4
 195 468 195 468 134 531 c 1,5,-1
 99 499 l 1,6,7
 138 463 138 463 157.5 415.5 c 128,-1,8
 177 368 177 368 182.5 312.5 c 128,-1,9
 188 257 188 257 180.5 195 c 128,-1,10
 173 133 173 133 157 67 c 128,-1,11
 141 1 141 1 118.5 -68 c 128,-1,12
 96 -137 96 -137 71 -206 c 1,13,-1
 111 -211 l 1,0,1
159 -1 m 1,14,15
 232 75 232 75 288.5 141.5 c 128,-1,16
 345 208 345 208 390 270.5 c 128,-1,17
 435 333 435 333 469.5 393.5 c 128,-1,18
 504 454 504 454 533 517 c 1,19,-1
 485 522 l 1,20,21
 464 465 464 465 429 406 c 128,-1,22
 394 347 394 347 352 289.5 c 128,-1,23
 310 232 310 232 263.5 177.5 c 128,-1,24
 217 123 217 123 173 74 c 1,25,-1
 159 -1 l 1,14,15
EndSplineSet
EndChar

StartChar: delta
Encoding: 948 948 460
Width: 609
GlyphClass: 1
Flags: W
LayerCount: 2
Fore
SplineSet
236 -8 m 256,0,1
 289 -8 289 -8 338 11.5 c 128,-1,2
 387 31 387 31 427.5 65.5 c 128,-1,3
 468 100 468 100 496.5 147.5 c 128,-1,4
 525 195 525 195 537 251 c 0,5,6
 551 310 551 310 542.5 353.5 c 128,-1,7
 534 397 534 397 512.5 431 c 128,-1,8
 491 465 491 465 461 490.5 c 128,-1,9
 431 516 431 516 401 538 c 0,10,11
 380 556 380 556 358.5 572 c 128,-1,12
 337 588 337 588 322 603.5 c 128,-1,13
 307 619 307 619 299 636 c 128,-1,14
 291 653 291 653 295 672 c 0,15,16
 302 699 302 699 328 714 c 128,-1,17
 354 729 354 729 395 729 c 0,18,19
 424 729 424 729 458 721.5 c 128,-1,20
 492 714 492 714 524 701 c 128,-1,21
 556 688 556 688 583.5 671.5 c 128,-1,22
 611 655 611 655 626 636 c 1,23,-1
 658 668 l 1,24,25
 642 687 642 687 613.5 705.5 c 128,-1,26
 585 724 585 724 550 738.5 c 128,-1,27
 515 753 515 753 475.5 762 c 128,-1,28
 436 771 436 771 398 770 c 0,29,30
 338 772 338 772 300 746 c 128,-1,31
 262 720 262 720 251 678 c 0,32,33
 245 650 245 650 254 626.5 c 128,-1,34
 263 603 263 603 280.5 583 c 128,-1,35
 298 563 298 563 321.5 545.5 c 128,-1,36
 345 528 345 528 368 511 c 0,37,38
 397 491 397 491 425 467 c 128,-1,39
 453 443 453 443 473 412.5 c 128,-1,40
 493 382 493 382 501 342.5 c 128,-1,41
 509 303 509 303 497 252 c 0,42,43
 487 206 487 206 462.5 167 c 128,-1,44
 438 128 438 128 403.5 99 c 128,-1,45
 369 70 369 70 327.5 53.5 c 128,-1,46
 286 37 286 37 241 36 c 0,47,48
 198 37 198 37 164.5 53 c 128,-1,49
 131 69 131 69 110 96.5 c 128,-1,50
 89 124 89 124 82 162.5 c 128,-1,51
 75 201 75 201 85 246 c 0,52,53
 97 294 97 294 123 334.5 c 128,-1,54
 149 375 149 375 184.5 405 c 128,-1,55
 220 435 220 435 261.5 451 c 128,-1,56
 303 467 303 467 346 466 c 0,57,58
 383 467 383 467 415 454.5 c 128,-1,59
 447 442 447 442 473 419 c 1,60,-1
 453 473 l 1,61,62
 432 490 432 490 402.5 498.5 c 128,-1,63
 373 507 373 507 344 507 c 0,64,65
 295 507 295 507 247.5 488.5 c 128,-1,66
 200 470 200 470 160 436.5 c 128,-1,67
 120 403 120 403 90.5 355.5 c 128,-1,68
 61 308 61 308 48 250 c 0,69,70
 35 197 35 197 43 150 c 128,-1,71
 51 103 51 103 76 68 c 128,-1,72
 101 33 101 33 142 12.5 c 128,-1,73
 183 -8 183 -8 236 -8 c 256,0,1
EndSplineSet
EndChar

StartChar: epsilon
Encoding: 949 949 461
Width: 461
GlyphClass: 1
Flags: W
LayerCount: 2
Fore
SplineSet
359 56 m 1,0,1
 328 47 328 47 290.5 41.5 c 128,-1,2
 253 36 253 36 219 34 c 0,3,4
 144 36 144 36 106 63 c 128,-1,5
 68 90 68 90 78 140 c 0,6,7
 85 167 85 167 104.5 188 c 128,-1,8
 124 209 124 209 152.5 222.5 c 128,-1,9
 181 236 181 236 215.5 243 c 128,-1,10
 250 250 250 250 288 249 c 2,11,-1
 332 249 l 1,12,-1
 340 293 l 1,13,-1
 285 293 l 2,14,15
 255 293 255 293 229 300 c 128,-1,16
 203 307 203 307 185.5 320 c 128,-1,17
 168 333 168 333 160.5 351 c 128,-1,18
 153 369 153 369 158 391 c 0,19,20
 163 407 163 407 174 424 c 128,-1,21
 185 441 185 441 204.5 455 c 128,-1,22
 224 469 224 469 252 478 c 128,-1,23
 280 487 280 487 318 487 c 0,24,25
 333 487 333 487 351.5 485.5 c 128,-1,26
 370 484 370 484 388 481 c 128,-1,27
 406 478 406 478 420.5 473.5 c 128,-1,28
 435 469 435 469 444 464 c 1,29,-1
 465 506 l 1,30,31
 440 517 440 517 402 523 c 128,-1,32
 364 529 364 529 329 529 c 0,33,34
 282 529 282 529 245 518.5 c 128,-1,35
 208 508 208 508 182 490 c 128,-1,36
 156 472 156 472 140 449 c 128,-1,37
 124 426 124 426 118 401 c 0,38,39
 114 380 114 380 117.5 359.5 c 128,-1,40
 121 339 121 339 131 322.5 c 128,-1,41
 141 306 141 306 156 293.5 c 128,-1,42
 171 281 171 281 191 275 c 1,43,-1
 187 273 l 1,44,45
 160 267 160 267 135.5 255 c 128,-1,46
 111 243 111 243 91 225.5 c 128,-1,47
 71 208 71 208 57 186.5 c 128,-1,48
 43 165 43 165 37 139 c 0,49,50
 29 107 29 107 39 79.5 c 128,-1,51
 49 52 49 52 73 32.5 c 128,-1,52
 97 13 97 13 133.5 2.5 c 128,-1,53
 170 -8 170 -8 217 -8 c 0,54,55
 237 -8 237 -8 257 -6.5 c 128,-1,56
 277 -5 277 -5 295.5 -2.5 c 128,-1,57
 314 0 314 0 330 3 c 128,-1,58
 346 6 346 6 357 9 c 1,59,-1
 359 56 l 1,0,1
EndSplineSet
EndChar

StartChar: zeta
Encoding: 950 950 462
Width: 486
GlyphClass: 1
Flags: W
LayerCount: 2
Fore
SplineSet
240 -156 m 0,0,1
 271 -156 271 -156 299.5 -148 c 128,-1,2
 328 -140 328 -140 351 -125 c 128,-1,3
 374 -110 374 -110 389.5 -90 c 128,-1,4
 405 -70 405 -70 409 -47 c 0,5,6
 415 -28 415 -28 411 -11.5 c 128,-1,7
 407 5 407 5 395.5 17 c 128,-1,8
 384 29 384 29 365.5 35.5 c 128,-1,9
 347 42 347 42 323 42 c 0,10,11
 312 42 312 42 299.5 41.5 c 128,-1,12
 287 41 287 41 272 39 c 128,-1,13
 257 37 257 37 240 35.5 c 128,-1,14
 223 34 223 34 205 33 c 0,15,16
 180 34 180 34 156.5 39 c 128,-1,17
 133 44 133 44 116.5 59.5 c 128,-1,18
 100 75 100 75 94.5 104 c 128,-1,19
 89 133 89 133 99 180 c 0,20,21
 109 221 109 221 128.5 265.5 c 128,-1,22
 148 310 148 310 177 355.5 c 128,-1,23
 206 401 206 401 243 446.5 c 128,-1,24
 280 492 280 492 323.5 535.5 c 128,-1,25
 367 579 367 579 416.5 619.5 c 128,-1,26
 466 660 466 660 520 693 c 1,27,-1
 527 728 l 1,28,-1
 359 728 l 2,29,30
 342 728 342 728 331.5 730 c 128,-1,31
 321 732 321 732 315 736 c 128,-1,32
 309 740 309 740 307.5 745.5 c 128,-1,33
 306 751 306 751 308 758 c 0,34,35
 310 764 310 764 315.5 773.5 c 128,-1,36
 321 783 321 783 328 789 c 1,37,-1
 290 811 l 1,38,39
 279 797 279 797 274 786 c 128,-1,40
 269 775 269 775 266 764 c 0,41,42
 262 747 262 747 265 733 c 128,-1,43
 268 719 268 719 278 708.5 c 128,-1,44
 288 698 288 698 306 692 c 128,-1,45
 324 686 324 686 350 686 c 2,46,-1
 465 686 l 1,47,-1
 460 704 l 1,48,49
 413 676 413 676 350.5 622 c 128,-1,50
 288 568 288 568 228.5 497.5 c 128,-1,51
 169 427 169 427 121 346 c 128,-1,52
 73 265 73 265 54 182 c 0,53,54
 40 118 40 118 50 80 c 128,-1,55
 60 42 60 42 84 22.5 c 128,-1,56
 108 3 108 3 139.5 -2.5 c 128,-1,57
 171 -8 171 -8 199 -8 c 0,58,59
 219 -8 219 -8 236 -7 c 128,-1,60
 253 -6 253 -6 267 -4.5 c 128,-1,61
 281 -3 281 -3 292.5 -2 c 128,-1,62
 304 -1 304 -1 313 -1 c 0,63,64
 345 -1 345 -1 358.5 -14 c 128,-1,65
 372 -27 372 -27 368 -46 c 0,66,67
 364 -60 364 -60 353 -72.5 c 128,-1,68
 342 -85 342 -85 324.5 -94.5 c 128,-1,69
 307 -104 307 -104 285 -109.5 c 128,-1,70
 263 -115 263 -115 239 -115 c 0,71,72
 221 -115 221 -115 197 -111 c 128,-1,73
 173 -107 173 -107 154 -100 c 1,74,-1
 147 -145 l 1,75,76
 173 -151 173 -151 197.5 -154 c 128,-1,77
 222 -157 222 -157 240 -156 c 0,0,1
EndSplineSet
EndChar

StartChar: eta
Encoding: 951 951 463
Width: 551
GlyphClass: 1
Flags: W
LayerCount: 2
Fore
SplineSet
65 -2 m 1,0,1
 96 94 96 94 121 179 c 128,-1,2
 146 264 146 264 163 343 c 0,3,4
 170 374 170 374 174 401 c 128,-1,5
 178 428 178 428 175 451.5 c 128,-1,6
 172 475 172 475 161.5 494 c 128,-1,7
 151 513 151 513 128 529 c 1,8,-1
 98 490 l 1,9,10
 110 483 110 483 118.5 474 c 128,-1,11
 127 465 127 465 130 447.5 c 128,-1,12
 133 430 133 430 129.5 400 c 128,-1,13
 126 370 126 370 114 322 c 0,14,15
 99 254 99 254 74.5 170 c 128,-1,16
 50 86 50 86 20 2 c 1,17,-1
 65 -2 l 1,0,1
313 -210 m 1,18,19
 331 -173 331 -173 354 -117 c 128,-1,20
 377 -61 377 -61 399.5 2.5 c 128,-1,21
 422 66 422 66 441.5 131.5 c 128,-1,22
 461 197 461 197 474 252 c 0,23,24
 507 396 507 396 485.5 462.5 c 128,-1,25
 464 529 464 529 384 529 c 0,26,27
 346 529 346 529 311.5 514.5 c 128,-1,28
 277 500 277 500 247 477 c 128,-1,29
 217 454 217 454 193 424 c 128,-1,30
 169 394 169 394 152 362 c 1,31,-1
 130 217 l 1,32,33
 141 263 141 263 164 310.5 c 128,-1,34
 187 358 187 358 219 396.5 c 128,-1,35
 251 435 251 435 289.5 459 c 128,-1,36
 328 483 328 483 370 483 c 0,37,38
 430 483 430 483 443.5 426 c 128,-1,39
 457 369 457 369 428 241 c 0,40,41
 418 197 418 197 403 145 c 128,-1,42
 388 93 388 93 368.5 36 c 128,-1,43
 349 -21 349 -21 324.5 -81.5 c 128,-1,44
 300 -142 300 -142 271 -203 c 1,45,-1
 313 -210 l 1,18,19
EndSplineSet
EndChar

StartChar: theta
Encoding: 952 952 464
Width: 623
GlyphClass: 1
Flags: W
LayerCount: 2
Fore
SplineSet
255 -8 m 0,0,1
 307 -8 307 -8 356.5 21 c 128,-1,2
 406 50 406 50 448.5 101.5 c 128,-1,3
 491 153 491 153 524.5 224 c 128,-1,4
 558 295 558 295 578 379 c 0,5,6
 598 467 598 467 596.5 539.5 c 128,-1,7
 595 612 595 612 574.5 663 c 128,-1,8
 554 714 554 714 516.5 742 c 128,-1,9
 479 770 479 770 427 769 c 0,10,11
 377 770 377 770 327 742 c 128,-1,12
 277 714 277 714 233.5 662.5 c 128,-1,13
 190 611 190 611 155.5 540.5 c 128,-1,14
 121 470 121 470 101 386 c 0,15,16
 81 294 81 294 83.5 221 c 128,-1,17
 86 148 86 148 107 97 c 128,-1,18
 128 46 128 46 166 19 c 128,-1,19
 204 -8 204 -8 255 -8 c 0,0,1
252 33 m 0,20,21
 208 33 208 33 179.5 61 c 128,-1,22
 151 89 151 89 137.5 134.5 c 128,-1,23
 124 180 124 180 125 241 c 128,-1,24
 126 302 126 302 140 369 c 0,25,26
 160 449 160 449 192 514.5 c 128,-1,27
 224 580 224 580 263 627.5 c 128,-1,28
 302 675 302 675 345 700.5 c 128,-1,29
 388 726 388 726 428 726 c 0,30,31
 472 726 472 726 500.5 700 c 128,-1,32
 529 674 529 674 543 629 c 128,-1,33
 557 584 557 584 555.5 523.5 c 128,-1,34
 554 463 554 463 538 393 c 0,35,36
 520 314 520 314 488.5 248 c 128,-1,37
 457 182 457 182 418.5 134.5 c 128,-1,38
 380 87 380 87 337 60 c 128,-1,39
 294 33 294 33 252 33 c 0,20,21
549 366 m 1,40,-1
 557 401 l 1,41,-1
 131 401 l 1,42,-1
 123 366 l 1,43,-1
 549 366 l 1,40,-1
EndSplineSet
EndChar

StartChar: iota
Encoding: 953 953 465
Width: 265
GlyphClass: 1
Flags: W
LayerCount: 2
Fore
SplineSet
105 -8 m 0,0,1
 110 -8 110 -8 123.5 -7 c 128,-1,2
 137 -6 137 -6 154 1 c 1,3,-1
 148 43 l 1,4,5
 137 39 137 39 129.5 37 c 128,-1,6
 122 35 122 35 113 33 c 0,7,8
 102 34 102 34 96 38 c 128,-1,9
 90 42 90 42 88.5 52.5 c 128,-1,10
 87 63 87 63 89.5 80.5 c 128,-1,11
 92 98 92 98 98 126 c 0,12,13
 104 151 104 151 115.5 197 c 128,-1,14
 127 243 127 243 141 297.5 c 128,-1,15
 155 352 155 352 170.5 410 c 128,-1,16
 186 468 186 468 199 517 c 1,17,-1
 151 522 l 1,18,19
 137 466 137 466 123 410.5 c 128,-1,20
 109 355 109 355 96.5 301 c 128,-1,21
 84 247 84 247 72 195.5 c 128,-1,22
 60 144 60 144 50 96 c 0,23,24
 43 67 43 67 44.5 47 c 128,-1,25
 46 27 46 27 53.5 14.5 c 128,-1,26
 61 2 61 2 74.5 -3 c 128,-1,27
 88 -8 88 -8 105 -8 c 0,0,1
EndSplineSet
EndChar

StartChar: kappa
Encoding: 954 954 466
Width: 548
GlyphClass: 1
Flags: W
LayerCount: 2
Fore
SplineSet
58 -3 m 1,0,1
 107 98 107 98 171.5 183.5 c 128,-1,2
 236 269 236 269 303.5 332.5 c 128,-1,3
 371 396 371 396 436.5 435 c 128,-1,4
 502 474 502 474 553 485 c 1,5,-1
 562 529 l 1,6,7
 520 522 520 522 463 495 c 128,-1,8
 406 468 406 468 343.5 420.5 c 128,-1,9
 281 373 281 373 218 304 c 128,-1,10
 155 235 155 235 101 144 c 1,11,-1
 106 140 l 1,12,13
 129 203 129 203 144 254.5 c 128,-1,14
 159 306 159 306 166 344 c 0,15,16
 177 390 177 390 178.5 421.5 c 128,-1,17
 180 453 180 453 175 474 c 128,-1,18
 170 495 170 495 158.5 507.5 c 128,-1,19
 147 520 147 520 133 529 c 1,20,-1
 102 490 l 1,21,22
 119 482 119 482 127.5 469.5 c 128,-1,23
 136 457 136 457 138 437.5 c 128,-1,24
 140 418 140 418 135.5 392 c 128,-1,25
 131 366 131 366 123 331 c 0,26,27
 106 250 106 250 76.5 166.5 c 128,-1,28
 47 83 47 83 14 1 c 1,29,-1
 58 -3 l 1,0,1
438 30 m 1,30,31
 404 53 404 53 378.5 88 c 128,-1,32
 353 123 353 123 335 164 c 128,-1,33
 317 205 317 205 307.5 248.5 c 128,-1,34
 298 292 298 292 295 333 c 1,35,-1
 254 304 l 1,36,37
 258 263 258 263 271 216 c 128,-1,38
 284 169 284 169 304.5 125.5 c 128,-1,39
 325 82 325 82 352 46.5 c 128,-1,40
 379 11 379 11 409 -8 c 1,41,-1
 438 30 l 1,30,31
EndSplineSet
EndChar

